%TF.GenerationSoftware,KiCad,Pcbnew,9.0.5*%
%TF.CreationDate,2025-12-22T18:40:51+01:00*%
%TF.ProjectId,Carte__lectronique,43617274-655f-4e96-9c65-6374726f6e69,rev?*%
%TF.SameCoordinates,Original*%
%TF.FileFunction,Copper,L1,Top*%
%TF.FilePolarity,Positive*%
%FSLAX46Y46*%
G04 Gerber Fmt 4.6, Leading zero omitted, Abs format (unit mm)*
G04 Created by KiCad (PCBNEW 9.0.5) date 2025-12-22 18:40:51*
%MOMM*%
%LPD*%
G01*
G04 APERTURE LIST*
G04 Aperture macros list*
%AMRoundRect*
0 Rectangle with rounded corners*
0 $1 Rounding radius*
0 $2 $3 $4 $5 $6 $7 $8 $9 X,Y pos of 4 corners*
0 Add a 4 corners polygon primitive as box body*
4,1,4,$2,$3,$4,$5,$6,$7,$8,$9,$2,$3,0*
0 Add four circle primitives for the rounded corners*
1,1,$1+$1,$2,$3*
1,1,$1+$1,$4,$5*
1,1,$1+$1,$6,$7*
1,1,$1+$1,$8,$9*
0 Add four rect primitives between the rounded corners*
20,1,$1+$1,$2,$3,$4,$5,0*
20,1,$1+$1,$4,$5,$6,$7,0*
20,1,$1+$1,$6,$7,$8,$9,0*
20,1,$1+$1,$8,$9,$2,$3,0*%
G04 Aperture macros list end*
%TA.AperFunction,ComponentPad*%
%ADD10C,1.500000*%
%TD*%
%TA.AperFunction,SMDPad,CuDef*%
%ADD11RoundRect,0.250000X0.450000X-0.350000X0.450000X0.350000X-0.450000X0.350000X-0.450000X-0.350000X0*%
%TD*%
%TA.AperFunction,ComponentPad*%
%ADD12C,4.000000*%
%TD*%
%TA.AperFunction,SMDPad,CuDef*%
%ADD13RoundRect,0.250000X0.350000X0.450000X-0.350000X0.450000X-0.350000X-0.450000X0.350000X-0.450000X0*%
%TD*%
%TA.AperFunction,SMDPad,CuDef*%
%ADD14RoundRect,0.250000X-0.650000X0.412500X-0.650000X-0.412500X0.650000X-0.412500X0.650000X0.412500X0*%
%TD*%
%TA.AperFunction,SMDPad,CuDef*%
%ADD15RoundRect,0.250000X-0.475000X0.337500X-0.475000X-0.337500X0.475000X-0.337500X0.475000X0.337500X0*%
%TD*%
%TA.AperFunction,SMDPad,CuDef*%
%ADD16RoundRect,0.250000X-0.550000X-0.600000X0.550000X-0.600000X0.550000X0.600000X-0.550000X0.600000X0*%
%TD*%
%TA.AperFunction,SMDPad,CuDef*%
%ADD17RoundRect,0.150000X0.150000X-0.590000X0.150000X0.590000X-0.150000X0.590000X-0.150000X-0.590000X0*%
%TD*%
%TA.AperFunction,SMDPad,CuDef*%
%ADD18RoundRect,0.250000X0.337500X0.475000X-0.337500X0.475000X-0.337500X-0.475000X0.337500X-0.475000X0*%
%TD*%
%TA.AperFunction,SMDPad,CuDef*%
%ADD19RoundRect,0.150000X-0.590000X-0.150000X0.590000X-0.150000X0.590000X0.150000X-0.590000X0.150000X0*%
%TD*%
%TA.AperFunction,SMDPad,CuDef*%
%ADD20RoundRect,0.250000X0.475000X-0.337500X0.475000X0.337500X-0.475000X0.337500X-0.475000X-0.337500X0*%
%TD*%
%TA.AperFunction,SMDPad,CuDef*%
%ADD21RoundRect,0.250000X0.325000X0.450000X-0.325000X0.450000X-0.325000X-0.450000X0.325000X-0.450000X0*%
%TD*%
%TA.AperFunction,SMDPad,CuDef*%
%ADD22R,1.200000X1.200000*%
%TD*%
%TA.AperFunction,SMDPad,CuDef*%
%ADD23R,1.500000X1.600000*%
%TD*%
%TA.AperFunction,SMDPad,CuDef*%
%ADD24RoundRect,0.250000X-0.450000X0.350000X-0.450000X-0.350000X0.450000X-0.350000X0.450000X0.350000X0*%
%TD*%
%TA.AperFunction,SMDPad,CuDef*%
%ADD25RoundRect,0.150000X-0.675000X-0.150000X0.675000X-0.150000X0.675000X0.150000X-0.675000X0.150000X0*%
%TD*%
%TA.AperFunction,SMDPad,CuDef*%
%ADD26RoundRect,0.250000X0.550000X-1.250000X0.550000X1.250000X-0.550000X1.250000X-0.550000X-1.250000X0*%
%TD*%
%TA.AperFunction,SMDPad,CuDef*%
%ADD27RoundRect,0.250000X-0.550000X1.250000X-0.550000X-1.250000X0.550000X-1.250000X0.550000X1.250000X0*%
%TD*%
%TA.AperFunction,ComponentPad*%
%ADD28RoundRect,0.250000X-0.725000X0.600000X-0.725000X-0.600000X0.725000X-0.600000X0.725000X0.600000X0*%
%TD*%
%TA.AperFunction,ComponentPad*%
%ADD29O,1.950000X1.700000*%
%TD*%
%TA.AperFunction,SMDPad,CuDef*%
%ADD30RoundRect,0.250000X-0.350000X-0.450000X0.350000X-0.450000X0.350000X0.450000X-0.350000X0.450000X0*%
%TD*%
%TA.AperFunction,SMDPad,CuDef*%
%ADD31RoundRect,0.250000X0.550000X0.600000X-0.550000X0.600000X-0.550000X-0.600000X0.550000X-0.600000X0*%
%TD*%
%TA.AperFunction,SMDPad,CuDef*%
%ADD32RoundRect,0.250000X0.650000X-0.412500X0.650000X0.412500X-0.650000X0.412500X-0.650000X-0.412500X0*%
%TD*%
%TA.AperFunction,ComponentPad*%
%ADD33C,2.400000*%
%TD*%
%TA.AperFunction,SMDPad,CuDef*%
%ADD34RoundRect,0.250000X0.450000X-0.325000X0.450000X0.325000X-0.450000X0.325000X-0.450000X-0.325000X0*%
%TD*%
%TA.AperFunction,SMDPad,CuDef*%
%ADD35R,0.800000X1.000000*%
%TD*%
%TA.AperFunction,SMDPad,CuDef*%
%ADD36R,1.500000X0.700000*%
%TD*%
%TA.AperFunction,SMDPad,CuDef*%
%ADD37R,3.500000X2.950000*%
%TD*%
%TA.AperFunction,ViaPad*%
%ADD38C,0.800000*%
%TD*%
%TA.AperFunction,Conductor*%
%ADD39C,0.500000*%
%TD*%
%TA.AperFunction,Conductor*%
%ADD40C,0.300000*%
%TD*%
G04 APERTURE END LIST*
D10*
%TO.P,TP5,1,1*%
%TO.N,/tripleur*%
X46571200Y-87206800D03*
%TD*%
D11*
%TO.P,R17,1*%
%TO.N,Net-(Q3-B)*%
X41532200Y-102031800D03*
%TO.P,R17,2*%
%TO.N,GND*%
X41532200Y-100031800D03*
%TD*%
D12*
%TO.P,V1,1,1*%
%TO.N,/400V_HV_TP*%
X118262200Y-78612800D03*
X110642200Y-78612800D03*
%TO.P,V1,2,2*%
%TO.N,Net-(C10-Pad1)*%
X36596200Y-78612800D03*
X28981200Y-78612800D03*
%TD*%
D13*
%TO.P,R15,1*%
%TO.N,Net-(C10-Pad1)*%
X36436200Y-103063800D03*
%TO.P,R15,2*%
%TO.N,Net-(Q3-B)*%
X34436200Y-103063800D03*
%TD*%
D14*
%TO.P,C2,1*%
%TO.N,Net-(D2-K)*%
X49621200Y-90606800D03*
%TO.P,C2,2*%
%TO.N,/tripleur*%
X49621200Y-93731800D03*
%TD*%
D10*
%TO.P,TP1,1,1*%
%TO.N,+5V*%
X83521200Y-102906800D03*
%TD*%
D15*
%TO.P,C11,1*%
%TO.N,Net-(U2-DISCH)*%
X43713200Y-93577300D03*
%TO.P,C11,2*%
%TO.N,GND*%
X43713200Y-95652300D03*
%TD*%
D16*
%TO.P,D3,1,K*%
%TO.N,Net-(D3-K)*%
X56519952Y-92306021D03*
%TO.P,D3,2,A*%
%TO.N,Net-(D2-K)*%
X52599952Y-92306021D03*
%TD*%
D17*
%TO.P,Q3,1,B*%
%TO.N,Net-(Q3-B)*%
X34232200Y-100569300D03*
%TO.P,Q3,2,E*%
%TO.N,GND*%
X36132200Y-100569300D03*
%TO.P,Q3,3,C*%
%TO.N,Net-(Q3-C)*%
X35182200Y-98689300D03*
%TD*%
D18*
%TO.P,C9,1*%
%TO.N,+5V*%
X39193935Y-87336319D03*
%TO.P,C9,2*%
%TO.N,GND*%
X37118935Y-87336319D03*
%TD*%
D19*
%TO.P,Q2,1,B*%
%TO.N,Net-(Q1-E)*%
X64947200Y-93664800D03*
%TO.P,Q2,2,E*%
%TO.N,GND*%
X64947200Y-95564800D03*
%TO.P,Q2,3,C*%
%TO.N,Net-(Q2-C)*%
X66827200Y-94614800D03*
%TD*%
D20*
%TO.P,C7,1*%
%TO.N,Net-(U1-THRES)*%
X71790377Y-89330132D03*
%TO.P,C7,2*%
%TO.N,GND*%
X71790377Y-87255132D03*
%TD*%
D13*
%TO.P,R14,1*%
%TO.N,Net-(D5-A)*%
X111005200Y-103946800D03*
%TO.P,R14,2*%
%TO.N,/out_NE-Mono*%
X109005200Y-103946800D03*
%TD*%
D11*
%TO.P,R3,1*%
%TO.N,Net-(R3-Pad1)*%
X53629200Y-100610800D03*
%TO.P,R3,2*%
%TO.N,Net-(R2-Pad1)*%
X53629200Y-98610800D03*
%TD*%
D21*
%TO.P,D1,1,K*%
%TO.N,GND*%
X115376200Y-100826800D03*
%TO.P,D1,2,A*%
%TO.N,Net-(D1-A)*%
X113326200Y-100826800D03*
%TD*%
D22*
%TO.P,RV1,1,1*%
%TO.N,Net-(Q1-E)*%
X75441200Y-99456800D03*
D23*
%TO.P,RV1,2,2*%
%TO.N,GND*%
X78691200Y-100456800D03*
D22*
%TO.P,RV1,3,3*%
X75441200Y-101456800D03*
%TD*%
D24*
%TO.P,R12,1*%
%TO.N,+5V*%
X43713200Y-89042800D03*
%TO.P,R12,2*%
%TO.N,Net-(U2-DISCH)*%
X43713200Y-91042800D03*
%TD*%
D10*
%TO.P,TP3,1,1*%
%TO.N,Net-(R4-Pad1)*%
X64596200Y-102256800D03*
%TD*%
D19*
%TO.P,Q1,1,B*%
%TO.N,Net-(Q1-B)*%
X64947200Y-88863829D03*
%TO.P,Q1,2,E*%
%TO.N,Net-(Q1-E)*%
X64947200Y-90763829D03*
%TO.P,Q1,3,C*%
%TO.N,/boost_dc*%
X66827200Y-89813829D03*
%TD*%
D24*
%TO.P,R11,1*%
%TO.N,/tripleur*%
X49057200Y-98610800D03*
%TO.P,R11,2*%
%TO.N,/400V_HV_TP*%
X49057200Y-100610800D03*
%TD*%
D25*
%TO.P,U1,1,GND*%
%TO.N,GND*%
X74621200Y-90164800D03*
%TO.P,U1,2,TRIG*%
%TO.N,Net-(U1-THRES)*%
X74621200Y-91434800D03*
%TO.P,U1,3,OUT*%
%TO.N,/out_NE-A*%
X74621200Y-92714800D03*
%TO.P,U1,4,RST*%
%TO.N,Net-(Q2-C)*%
X74621200Y-93984800D03*
%TO.P,U1,5,CONT*%
%TO.N,unconnected-(U1-CONT-Pad5)*%
X79861200Y-93984800D03*
%TO.P,U1,6,THRES*%
%TO.N,Net-(U1-THRES)*%
X79861200Y-92714800D03*
%TO.P,U1,7,DISCH*%
%TO.N,Net-(U1-DISCH)*%
X79861200Y-91434800D03*
%TO.P,U1,8,VCC*%
%TO.N,Net-(U1-VCC)*%
X79861200Y-90164800D03*
%TD*%
D24*
%TO.P,R9,1*%
%TO.N,Net-(U1-DISCH)*%
X82829200Y-93360800D03*
%TO.P,R9,2*%
%TO.N,Net-(U1-THRES)*%
X82829200Y-95360800D03*
%TD*%
%TO.P,R6,1*%
%TO.N,Net-(R5-Pad2)*%
X55915200Y-98610800D03*
%TO.P,R6,2*%
%TO.N,Net-(R3-Pad1)*%
X55915200Y-100610800D03*
%TD*%
D10*
%TO.P,TP8,1,1*%
%TO.N,/out_NE-Mono*%
X38521200Y-97506800D03*
%TD*%
D25*
%TO.P,U2,1,GND*%
%TO.N,GND*%
X35505200Y-90164800D03*
%TO.P,U2,2,TRIG*%
%TO.N,Net-(Q3-C)*%
X35505200Y-91434800D03*
%TO.P,U2,3,OUT*%
%TO.N,/out_NE-Mono*%
X35505200Y-92714800D03*
%TO.P,U2,4,RST*%
%TO.N,+5V*%
X35505200Y-93984800D03*
%TO.P,U2,5,CONT*%
%TO.N,unconnected-(U2-CONT-Pad5)*%
X40745200Y-93984800D03*
%TO.P,U2,6,THRES*%
%TO.N,Net-(U2-DISCH)*%
X40745200Y-92714800D03*
%TO.P,U2,7,DISCH*%
X40745200Y-91434800D03*
%TO.P,U2,8,VCC*%
%TO.N,+5V*%
X40745200Y-90164800D03*
%TD*%
D14*
%TO.P,C8,1*%
%TO.N,/tripleur*%
X46771200Y-97794300D03*
%TO.P,C8,2*%
%TO.N,GND*%
X46771200Y-100919300D03*
%TD*%
D10*
%TO.P,TP2,1,1*%
%TO.N,GND*%
X96239687Y-102885185D03*
%TD*%
D26*
%TO.P,C4,1*%
%TO.N,+5V*%
X102133200Y-91480800D03*
%TO.P,C4,2*%
%TO.N,GND*%
X102133200Y-87080800D03*
%TD*%
D24*
%TO.P,R2,1*%
%TO.N,Net-(R2-Pad1)*%
X51343200Y-98610800D03*
%TO.P,R2,2*%
%TO.N,/400V_HV_TP*%
X51343200Y-100610800D03*
%TD*%
D27*
%TO.P,C5,1*%
%TO.N,Net-(U1-VCC)*%
X102136146Y-95746721D03*
%TO.P,C5,2*%
%TO.N,GND*%
X102136146Y-100146721D03*
%TD*%
D28*
%TO.P,J1,1,Pin_1*%
%TO.N,GND*%
X109753200Y-88852800D03*
D29*
%TO.P,J1,2,Pin_2*%
%TO.N,INT*%
X109753200Y-91352800D03*
%TO.P,J1,3,Pin_3*%
%TO.N,Net-(J1-Pin_3)*%
X109753200Y-93852800D03*
%TD*%
D11*
%TO.P,R13,1*%
%TO.N,+5V*%
X32791200Y-95614800D03*
%TO.P,R13,2*%
%TO.N,Net-(Q3-C)*%
X32791200Y-93614800D03*
%TD*%
D30*
%TO.P,R10,1*%
%TO.N,Net-(Q2-C)*%
X76241200Y-96392800D03*
%TO.P,R10,2*%
%TO.N,+5V*%
X78241200Y-96392800D03*
%TD*%
D20*
%TO.P,C10,1*%
%TO.N,Net-(C10-Pad1)*%
X39246200Y-102069300D03*
%TO.P,C10,2*%
%TO.N,GND*%
X39246200Y-99994300D03*
%TD*%
D11*
%TO.P,R8,1*%
%TO.N,/out_NE-A*%
X71790377Y-93356632D03*
%TO.P,R8,2*%
%TO.N,Net-(Q1-B)*%
X71790377Y-91356632D03*
%TD*%
D20*
%TO.P,C1,1*%
%TO.N,5V_Supply*%
X116577200Y-90420300D03*
%TO.P,C1,2*%
%TO.N,GND*%
X116577200Y-88345300D03*
%TD*%
D10*
%TO.P,TP7,1,1*%
%TO.N,/out_NE-A*%
X68271200Y-86806800D03*
%TD*%
D31*
%TO.P,D2,1,K*%
%TO.N,Net-(D2-K)*%
X52599952Y-89258021D03*
%TO.P,D2,2,A*%
%TO.N,/boost_dc*%
X56519952Y-89258021D03*
%TD*%
D24*
%TO.P,R7,1*%
%TO.N,Net-(U1-VCC)*%
X82829200Y-88534800D03*
%TO.P,R7,2*%
%TO.N,Net-(U1-DISCH)*%
X82829200Y-90534800D03*
%TD*%
D18*
%TO.P,C6,1*%
%TO.N,Net-(U1-VCC)*%
X78278700Y-87502800D03*
%TO.P,C6,2*%
%TO.N,GND*%
X76203700Y-87502800D03*
%TD*%
D32*
%TO.P,C3,1*%
%TO.N,Net-(D3-K)*%
X60041200Y-93809300D03*
%TO.P,C3,2*%
%TO.N,/boost_dc*%
X60041200Y-90684300D03*
%TD*%
D33*
%TO.P,L2,1,1*%
%TO.N,/boost_dc*%
X88751200Y-98932800D03*
%TO.P,L2,2,2*%
%TO.N,Net-(U1-VCC)*%
X91751200Y-98932800D03*
%TD*%
D10*
%TO.P,TP4,1,1*%
%TO.N,/boost_dc*%
X70421200Y-97156800D03*
%TD*%
D34*
%TO.P,F1,1*%
%TO.N,Net-(J1-Pin_3)*%
X116577200Y-94725800D03*
%TO.P,F1,2*%
%TO.N,5V_Supply*%
X116577200Y-92675800D03*
%TD*%
D30*
%TO.P,R1,1*%
%TO.N,+5V*%
X109005200Y-100898800D03*
%TO.P,R1,2*%
%TO.N,Net-(D1-A)*%
X111005200Y-100898800D03*
%TD*%
D31*
%TO.P,D4,1,K*%
%TO.N,/tripleur*%
X52599952Y-95354021D03*
%TO.P,D4,2,A*%
%TO.N,Net-(D3-K)*%
X56519952Y-95354021D03*
%TD*%
D11*
%TO.P,R5,1*%
%TO.N,Net-(R4-Pad2)*%
X58201200Y-100610800D03*
%TO.P,R5,2*%
%TO.N,Net-(R5-Pad2)*%
X58201200Y-98610800D03*
%TD*%
%TO.P,R16,1*%
%TO.N,Net-(Q3-C)*%
X32791200Y-90788800D03*
%TO.P,R16,2*%
%TO.N,INT*%
X32791200Y-88788800D03*
%TD*%
D35*
%TO.P,SW1,*%
%TO.N,*%
X119371200Y-94716800D03*
X121581200Y-94716800D03*
X119371200Y-87416800D03*
X121581200Y-87416800D03*
D36*
%TO.P,SW1,1,C*%
%TO.N,unconnected-(SW1-C-Pad1)*%
X118721200Y-93316800D03*
%TO.P,SW1,2,B*%
%TO.N,5V_Supply*%
X118721200Y-90316800D03*
%TO.P,SW1,3,A*%
%TO.N,+5V*%
X118721200Y-88816800D03*
%TD*%
D10*
%TO.P,TP6,1,1*%
%TO.N,INT*%
X32771200Y-86156800D03*
%TD*%
D24*
%TO.P,R4,1*%
%TO.N,Net-(R4-Pad1)*%
X60487200Y-98610800D03*
%TO.P,R4,2*%
%TO.N,Net-(R4-Pad2)*%
X60487200Y-100610800D03*
%TD*%
D21*
%TO.P,D5,1,K*%
%TO.N,GND*%
X115348200Y-103946800D03*
%TO.P,D5,2,A*%
%TO.N,Net-(D5-A)*%
X113298200Y-103946800D03*
%TD*%
D37*
%TO.P,L1,1*%
%TO.N,+5V*%
X91973200Y-86301800D03*
%TO.P,L1,2*%
%TO.N,Net-(U1-VCC)*%
X91973200Y-91751800D03*
%TD*%
D38*
%TO.N,+5V*%
X107211200Y-100898800D03*
X39193935Y-87336319D03*
X78241200Y-96392800D03*
X105181200Y-92328800D03*
X118101200Y-87096800D03*
%TO.N,/boost_dc*%
X68003324Y-90878056D03*
%TO.N,INT*%
X32791200Y-88788800D03*
%TO.N,/400V_HV_TP*%
X60985200Y-88303300D03*
X49057200Y-100610800D03*
%TO.N,/out_NE-A*%
X71790377Y-93356632D03*
%TO.N,/out_NE-Mono*%
X37067448Y-92714800D03*
X107211200Y-103946800D03*
%TO.N,Net-(R4-Pad1)*%
X60495200Y-98602800D03*
%TO.N,Net-(C10-Pad1)*%
X39246200Y-102069300D03*
%TD*%
D39*
%TO.N,+5V*%
X39193935Y-87336319D02*
X42784719Y-87336319D01*
X35505200Y-93984800D02*
X37485200Y-93984800D01*
X42784719Y-87336319D02*
X43713200Y-88264800D01*
X91998200Y-86276800D02*
X94135200Y-86276800D01*
X38633200Y-92836800D02*
X38633200Y-91566800D01*
X43713200Y-88264800D02*
X43713200Y-89042800D01*
X32791200Y-95614800D02*
X33875200Y-95614800D01*
X38633200Y-91566800D02*
X40035200Y-90164800D01*
X37485200Y-93984800D02*
X38633200Y-92836800D01*
X91973200Y-86301800D02*
X91998200Y-86276800D01*
X39193935Y-87336319D02*
X39990719Y-87336319D01*
X109005200Y-100898800D02*
X107211200Y-100898800D01*
X118721200Y-88588400D02*
X118721200Y-88816800D01*
X40035200Y-90164800D02*
X40745200Y-90164800D01*
X118101200Y-87968400D02*
X118721200Y-88588400D01*
X40745200Y-88090800D02*
X40745200Y-90164800D01*
X39990719Y-87336319D02*
X40745200Y-88090800D01*
X33875200Y-95614800D02*
X35505200Y-93984800D01*
X118101200Y-87096800D02*
X118101200Y-87968400D01*
X105181200Y-92328800D02*
X104333200Y-91480800D01*
X102133200Y-91480800D02*
X104333200Y-91480800D01*
X99339200Y-91480800D02*
X102133200Y-91480800D01*
X94135200Y-86276800D02*
X99339200Y-91480800D01*
D40*
%TO.N,GND*%
X46921200Y-100631800D02*
X46979200Y-100573800D01*
%TO.N,Net-(U1-VCC)*%
X81527200Y-87502800D02*
X82559200Y-88534800D01*
D39*
X87401200Y-85978800D02*
X79802700Y-85978800D01*
D40*
X78278700Y-88582300D02*
X78278700Y-87502800D01*
X91751200Y-98932800D02*
X91973200Y-98710800D01*
X78278700Y-87502800D02*
X81527200Y-87502800D01*
D39*
X92401200Y-91226800D02*
X91973200Y-91654800D01*
X91973200Y-90550800D02*
X87401200Y-85978800D01*
D40*
X91973200Y-98710800D02*
X91973200Y-91776800D01*
D39*
X79802700Y-85978800D02*
X78278700Y-87502800D01*
D40*
X82559200Y-88534800D02*
X82829200Y-88534800D01*
D39*
X91973200Y-91776800D02*
X91973200Y-90550800D01*
D40*
X79861200Y-90164800D02*
X78278700Y-88582300D01*
X98950067Y-98932800D02*
X102136146Y-95746721D01*
X91751200Y-98932800D02*
X98950067Y-98932800D01*
%TO.N,Net-(D1-A)*%
X111005200Y-100898800D02*
X113254200Y-100898800D01*
X113254200Y-100898800D02*
X113326200Y-100826800D01*
%TO.N,/tripleur*%
X49551952Y-93801048D02*
X49551952Y-95013548D01*
X49551952Y-94376521D02*
X49864952Y-94689521D01*
X48240700Y-97794300D02*
X49057200Y-98610800D01*
X49864952Y-94689521D02*
X51935452Y-94689521D01*
X49551952Y-95013548D02*
X46771200Y-97794300D01*
X46571200Y-87206800D02*
X46571200Y-90633769D01*
X49621200Y-93731800D02*
X49551952Y-93801048D01*
X46571200Y-90633769D02*
X49621200Y-93683769D01*
X49621200Y-93683769D02*
X49621200Y-93731800D01*
X49551952Y-93614521D02*
X49551952Y-94376521D01*
X46771200Y-97794300D02*
X48240700Y-97794300D01*
X49221200Y-93945273D02*
X49551952Y-93614521D01*
%TO.N,Net-(D2-K)*%
X52599952Y-89258021D02*
X50021452Y-89258021D01*
X50021452Y-89258021D02*
X49621200Y-89658273D01*
X52599952Y-89258021D02*
X52599952Y-92306021D01*
X49621200Y-89658273D02*
X49621200Y-90606800D01*
%TO.N,Net-(D3-K)*%
X56519952Y-95354021D02*
X56519952Y-92306021D01*
X56519952Y-95354021D02*
X57972452Y-95354021D01*
X57972452Y-95354021D02*
X59517173Y-93809300D01*
X59517173Y-93809300D02*
X60041200Y-93809300D01*
%TO.N,/boost_dc*%
X66921324Y-89796056D02*
X68003324Y-90878056D01*
X66778824Y-89796056D02*
X66921324Y-89796056D01*
X60911671Y-89813829D02*
X60041200Y-90684300D01*
X56676452Y-89414521D02*
X58771421Y-89414521D01*
X66976324Y-89796056D02*
X66778824Y-89796056D01*
X58771421Y-89414521D02*
X60041200Y-90684300D01*
X66827200Y-89813829D02*
X60911671Y-89813829D01*
%TO.N,Net-(D5-A)*%
X111005200Y-103946800D02*
X113298200Y-103946800D01*
D39*
%TO.N,5V_Supply*%
X118617700Y-90420300D02*
X118721200Y-90316800D01*
X116577200Y-90420300D02*
X118617700Y-90420300D01*
X116577200Y-92675800D02*
X116577200Y-90420300D01*
D40*
%TO.N,/400V_HV_TP*%
X60985200Y-88303300D02*
X60985200Y-88264800D01*
X49057200Y-100610800D02*
X51343200Y-100610800D01*
X118262200Y-78612800D02*
X110642200Y-78612800D01*
X117928483Y-78866800D02*
X118405621Y-78389662D01*
X70637200Y-78612800D02*
X110642200Y-78612800D01*
X60985200Y-88264800D02*
X70637200Y-78612800D01*
%TO.N,Net-(J1-Pin_3)*%
X116577200Y-94725800D02*
X110626200Y-94725800D01*
X110654200Y-94753800D02*
X109753200Y-93852800D01*
%TO.N,Net-(Q1-E)*%
X64947200Y-90763829D02*
X64947200Y-93664800D01*
X63525200Y-96646800D02*
X66573200Y-99694800D01*
X75203200Y-99694800D02*
X75441200Y-99456800D01*
X66573200Y-99694800D02*
X75203200Y-99694800D01*
X63525200Y-95086800D02*
X63525200Y-96646800D01*
X64947200Y-93664800D02*
X63525200Y-95086800D01*
%TO.N,/out_NE-A*%
X71790377Y-93356632D02*
X72432209Y-92714800D01*
X72432209Y-92714800D02*
X74621200Y-92714800D01*
%TO.N,Net-(Q2-C)*%
X76241200Y-96392800D02*
X75209200Y-96392800D01*
X73991200Y-94614800D02*
X74621200Y-93984800D01*
X75209200Y-96392800D02*
X74447200Y-95630800D01*
X74447200Y-95630800D02*
X74447200Y-94158800D01*
X74447200Y-94158800D02*
X74621200Y-93984800D01*
X66854824Y-94688056D02*
X66987324Y-94688056D01*
X66827200Y-94614800D02*
X73991200Y-94614800D01*
%TO.N,Net-(Q3-B)*%
X41532200Y-103317800D02*
X41532200Y-102031800D01*
X34232200Y-100569300D02*
X34232200Y-102859800D01*
X34436200Y-103063800D02*
X35960200Y-104587800D01*
X40262200Y-104587800D02*
X41532200Y-103317800D01*
X35960200Y-104587800D02*
X40262200Y-104587800D01*
%TO.N,Net-(Q3-C)*%
X32791200Y-90788800D02*
X33437200Y-91434800D01*
X35182200Y-98689300D02*
X31941700Y-98689300D01*
X31267200Y-94106800D02*
X31759200Y-93614800D01*
X32791200Y-93614800D02*
X32791200Y-90788800D01*
X31759200Y-93614800D02*
X32791200Y-93614800D01*
X31941700Y-98689300D02*
X31378200Y-98125800D01*
X35182200Y-98689300D02*
X35125700Y-98745800D01*
X31267200Y-98014800D02*
X31267200Y-94106800D01*
X31378200Y-98125800D02*
X31267200Y-98014800D01*
X33437200Y-91434800D02*
X35505200Y-91434800D01*
%TO.N,Net-(U1-DISCH)*%
X82305200Y-93265988D02*
X82575200Y-93535988D01*
X79861200Y-91434800D02*
X81691200Y-91434800D01*
X81691200Y-91434800D02*
X82591200Y-90534800D01*
X82591200Y-90534800D02*
X82829200Y-90534800D01*
X82829200Y-90534800D02*
X82829200Y-93360800D01*
%TO.N,Net-(Q1-B)*%
X64701324Y-88846056D02*
X64898824Y-88846056D01*
X70681032Y-91356632D02*
X71790377Y-91356632D01*
X68271200Y-88946800D02*
X70681032Y-91356632D01*
X71692150Y-91258405D02*
X71790377Y-91356632D01*
X68188229Y-88863829D02*
X68271200Y-88946800D01*
X64947200Y-88863829D02*
X68188229Y-88863829D01*
%TO.N,Net-(U1-THRES)*%
X79861200Y-92714800D02*
X80421200Y-92714800D01*
X82813200Y-95376800D02*
X82575200Y-95376800D01*
X71811877Y-89308632D02*
X71790377Y-89330132D01*
X77627200Y-92714800D02*
X79861200Y-92714800D01*
X71790377Y-89330132D02*
X73895045Y-91434800D01*
X76347200Y-91434800D02*
X77627200Y-92714800D01*
X71325377Y-89330132D02*
X71303877Y-89308632D01*
X74621200Y-91434800D02*
X76347200Y-91434800D01*
X82829200Y-95360800D02*
X82813200Y-95376800D01*
X80421200Y-92714800D02*
X82829200Y-95122800D01*
X73895045Y-91434800D02*
X74621200Y-91434800D01*
X82829200Y-95122800D02*
X82829200Y-95360800D01*
%TO.N,Net-(R3-Pad1)*%
X55915200Y-100610800D02*
X53629200Y-100610800D01*
%TO.N,Net-(R2-Pad1)*%
X53629200Y-98610800D02*
X51343200Y-98610800D01*
%TO.N,Net-(U2-DISCH)*%
X43713200Y-93577300D02*
X43713200Y-91042800D01*
X40745200Y-91434800D02*
X42321200Y-91434800D01*
X40745200Y-91434800D02*
X40745200Y-92714800D01*
X42321200Y-91434800D02*
X42713200Y-91042800D01*
X42713200Y-91042800D02*
X43713200Y-91042800D01*
%TO.N,/out_NE-Mono*%
X109005200Y-103946800D02*
X107211200Y-103946800D01*
X37067448Y-92714800D02*
X35505200Y-92714800D01*
%TO.N,Net-(R4-Pad2)*%
X60487200Y-100610800D02*
X58201200Y-100610800D01*
%TO.N,Net-(R4-Pad1)*%
X60503200Y-98594800D02*
X60495200Y-98602800D01*
X60495200Y-98602800D02*
X60487200Y-98610800D01*
%TO.N,Net-(R5-Pad2)*%
X58201200Y-98610800D02*
X55915200Y-98610800D01*
%TO.N,Net-(C10-Pad1)*%
X38251700Y-103063800D02*
X36436200Y-103063800D01*
X38251700Y-103063800D02*
X39246200Y-102069300D01*
%TD*%
%TA.AperFunction,Conductor*%
%TO.N,GND*%
G36*
X64168574Y-84231685D02*
G01*
X64214329Y-84284489D01*
X64224273Y-84353647D01*
X64195248Y-84417203D01*
X64189216Y-84423681D01*
X61046416Y-87566481D01*
X60985093Y-87599966D01*
X60958735Y-87602800D01*
X60916205Y-87602800D01*
X60780877Y-87629718D01*
X60780867Y-87629721D01*
X60653395Y-87682521D01*
X60653382Y-87682528D01*
X60538658Y-87759185D01*
X60538654Y-87759188D01*
X60441088Y-87856754D01*
X60441085Y-87856758D01*
X60364428Y-87971482D01*
X60364421Y-87971495D01*
X60311621Y-88098967D01*
X60311618Y-88098977D01*
X60284700Y-88234304D01*
X60284700Y-88234307D01*
X60284700Y-88372293D01*
X60284700Y-88372295D01*
X60284699Y-88372295D01*
X60311618Y-88507622D01*
X60311621Y-88507632D01*
X60364421Y-88635104D01*
X60364428Y-88635117D01*
X60441085Y-88749841D01*
X60441088Y-88749845D01*
X60538654Y-88847411D01*
X60538658Y-88847414D01*
X60653382Y-88924071D01*
X60653395Y-88924078D01*
X60780867Y-88976878D01*
X60780872Y-88976880D01*
X60780876Y-88976880D01*
X60780877Y-88976881D01*
X60916204Y-89003800D01*
X60916207Y-89003800D01*
X61054195Y-89003800D01*
X61145241Y-88985689D01*
X61189528Y-88976880D01*
X61317011Y-88924075D01*
X61431742Y-88847414D01*
X61529314Y-88749842D01*
X61605975Y-88635111D01*
X61658780Y-88507628D01*
X61675824Y-88421943D01*
X61685700Y-88372295D01*
X61685700Y-88252764D01*
X61705385Y-88185725D01*
X61722019Y-88165083D01*
X63183772Y-86703330D01*
X67220700Y-86703330D01*
X67220700Y-86910269D01*
X67261068Y-87113212D01*
X67261070Y-87113220D01*
X67338904Y-87301128D01*
X67340259Y-87304398D01*
X67357900Y-87330800D01*
X67455224Y-87476457D01*
X67601542Y-87622775D01*
X67601545Y-87622777D01*
X67773602Y-87737741D01*
X67964780Y-87816930D01*
X68153261Y-87854421D01*
X68167730Y-87857299D01*
X68167734Y-87857300D01*
X68167735Y-87857300D01*
X68374666Y-87857300D01*
X68374667Y-87857299D01*
X68577620Y-87816930D01*
X68768798Y-87737741D01*
X68940855Y-87622777D01*
X69087177Y-87476455D01*
X69202141Y-87304398D01*
X69281330Y-87113220D01*
X69321700Y-86910265D01*
X69321700Y-86867645D01*
X70565377Y-86867645D01*
X70565377Y-87005132D01*
X71540377Y-87005132D01*
X72040377Y-87005132D01*
X73015376Y-87005132D01*
X73015376Y-86977813D01*
X75116200Y-86977813D01*
X75116200Y-87252800D01*
X75953700Y-87252800D01*
X75953700Y-86277800D01*
X75816227Y-86277800D01*
X75816212Y-86277801D01*
X75713502Y-86288294D01*
X75547080Y-86343441D01*
X75547075Y-86343443D01*
X75397854Y-86435484D01*
X75273884Y-86559454D01*
X75181843Y-86708675D01*
X75181841Y-86708680D01*
X75126694Y-86875102D01*
X75126693Y-86875109D01*
X75116200Y-86977813D01*
X73015376Y-86977813D01*
X73015376Y-86867660D01*
X73015375Y-86867645D01*
X73004882Y-86764934D01*
X72949735Y-86598512D01*
X72949733Y-86598507D01*
X72857692Y-86449286D01*
X72733722Y-86325316D01*
X72584501Y-86233275D01*
X72584496Y-86233273D01*
X72418074Y-86178126D01*
X72418067Y-86178125D01*
X72315363Y-86167632D01*
X72040377Y-86167632D01*
X72040377Y-87005132D01*
X71540377Y-87005132D01*
X71540377Y-86167632D01*
X71265406Y-86167632D01*
X71265389Y-86167633D01*
X71162679Y-86178126D01*
X70996257Y-86233273D01*
X70996252Y-86233275D01*
X70847031Y-86325316D01*
X70723061Y-86449286D01*
X70631020Y-86598507D01*
X70631018Y-86598512D01*
X70575871Y-86764934D01*
X70575870Y-86764941D01*
X70565377Y-86867645D01*
X69321700Y-86867645D01*
X69321700Y-86703335D01*
X69281330Y-86500380D01*
X69202141Y-86309202D01*
X69087177Y-86137145D01*
X69087175Y-86137142D01*
X68940857Y-85990824D01*
X68854826Y-85933341D01*
X68768798Y-85875859D01*
X68577620Y-85796670D01*
X68577612Y-85796668D01*
X68374669Y-85756300D01*
X68374665Y-85756300D01*
X68167735Y-85756300D01*
X68167730Y-85756300D01*
X67964787Y-85796668D01*
X67964779Y-85796670D01*
X67773603Y-85875858D01*
X67601542Y-85990824D01*
X67455224Y-86137142D01*
X67340258Y-86309203D01*
X67261070Y-86500379D01*
X67261068Y-86500387D01*
X67220700Y-86703330D01*
X63183772Y-86703330D01*
X65638783Y-84248319D01*
X65700106Y-84214834D01*
X65726464Y-84212000D01*
X123006700Y-84212000D01*
X123073739Y-84231685D01*
X123119494Y-84284489D01*
X123130700Y-84336000D01*
X123130700Y-106392300D01*
X123111015Y-106459339D01*
X123058211Y-106505094D01*
X123006700Y-106516300D01*
X24255700Y-106516300D01*
X24188661Y-106496615D01*
X24142906Y-106443811D01*
X24131700Y-106392300D01*
X24131700Y-104151334D01*
X24880700Y-104151334D01*
X24880700Y-104387529D01*
X24917646Y-104620800D01*
X24990633Y-104845428D01*
X25088907Y-105038299D01*
X25097857Y-105055865D01*
X25236683Y-105246942D01*
X25403690Y-105413949D01*
X25594767Y-105552775D01*
X25694191Y-105603434D01*
X25805203Y-105659998D01*
X25805205Y-105659998D01*
X25805208Y-105660000D01*
X25925612Y-105699121D01*
X26029831Y-105732985D01*
X26263103Y-105769932D01*
X26263108Y-105769932D01*
X26499297Y-105769932D01*
X26732568Y-105732985D01*
X26957192Y-105660000D01*
X27167633Y-105552775D01*
X27358710Y-105413949D01*
X27525717Y-105246942D01*
X27664543Y-105055865D01*
X27771768Y-104845424D01*
X27844753Y-104620800D01*
X27852243Y-104573508D01*
X27881700Y-104387529D01*
X27881700Y-104151334D01*
X27844753Y-103918063D01*
X27787701Y-103742477D01*
X27771768Y-103693440D01*
X27771766Y-103693437D01*
X27771766Y-103693435D01*
X27702195Y-103556896D01*
X27664543Y-103482999D01*
X27525717Y-103291922D01*
X27358710Y-103124915D01*
X27167633Y-102986089D01*
X27156423Y-102980377D01*
X26957196Y-102878865D01*
X26732568Y-102805878D01*
X26499297Y-102768932D01*
X26499292Y-102768932D01*
X26263108Y-102768932D01*
X26263103Y-102768932D01*
X26029831Y-102805878D01*
X25805203Y-102878865D01*
X25594766Y-102986089D01*
X25510358Y-103047416D01*
X25403690Y-103124915D01*
X25403688Y-103124917D01*
X25403687Y-103124917D01*
X25236685Y-103291919D01*
X25236685Y-103291920D01*
X25236683Y-103291922D01*
X25184410Y-103363870D01*
X25097857Y-103482998D01*
X24990633Y-103693435D01*
X24917646Y-103918063D01*
X24880700Y-104151334D01*
X24131700Y-104151334D01*
X24131700Y-94047491D01*
X30816700Y-94047491D01*
X30816700Y-98074109D01*
X30832293Y-98132303D01*
X30847399Y-98188684D01*
X30847401Y-98188687D01*
X30906711Y-98291414D01*
X30906713Y-98291416D01*
X31108651Y-98493355D01*
X31108657Y-98493360D01*
X31665086Y-99049789D01*
X31665087Y-99049790D01*
X31665089Y-99049791D01*
X31724393Y-99084029D01*
X31724396Y-99084032D01*
X31758637Y-99103800D01*
X31767814Y-99109099D01*
X31882391Y-99139800D01*
X34457700Y-99139800D01*
X34461934Y-99141043D01*
X34466243Y-99140095D01*
X34495159Y-99150799D01*
X34524739Y-99159485D01*
X34527627Y-99162818D01*
X34531767Y-99164351D01*
X34550308Y-99188993D01*
X34570494Y-99212289D01*
X34571869Y-99217648D01*
X34573775Y-99220182D01*
X34576823Y-99236960D01*
X34581362Y-99254651D01*
X34581700Y-99259219D01*
X34581700Y-99333566D01*
X34584554Y-99363999D01*
X34590764Y-99381748D01*
X34591974Y-99398093D01*
X34587934Y-99416882D01*
X34588913Y-99436074D01*
X34580743Y-99450333D01*
X34577289Y-99466402D01*
X34563733Y-99480024D01*
X34554180Y-99496699D01*
X34539597Y-99504278D01*
X34528005Y-99515928D01*
X34509237Y-99520058D01*
X34492185Y-99528922D01*
X34462112Y-99530431D01*
X34459769Y-99530947D01*
X34458821Y-99530596D01*
X34456737Y-99530701D01*
X34436466Y-99528800D01*
X34027934Y-99528800D01*
X34027930Y-99528800D01*
X33997500Y-99531653D01*
X33997498Y-99531653D01*
X33869319Y-99576506D01*
X33869317Y-99576507D01*
X33760050Y-99657150D01*
X33679407Y-99766417D01*
X33679406Y-99766419D01*
X33634553Y-99894598D01*
X33634553Y-99894600D01*
X33631700Y-99925030D01*
X33631700Y-101213569D01*
X33634553Y-101243999D01*
X33634553Y-101244001D01*
X33679406Y-101372180D01*
X33679409Y-101372186D01*
X33757470Y-101477955D01*
X33781441Y-101543584D01*
X33781700Y-101551588D01*
X33781700Y-102092235D01*
X33762015Y-102159274D01*
X33732626Y-102191038D01*
X33693278Y-102220876D01*
X33601839Y-102341456D01*
X33546322Y-102482238D01*
X33542585Y-102513361D01*
X33535700Y-102570698D01*
X33535700Y-103556902D01*
X33540205Y-103594413D01*
X33546322Y-103645361D01*
X33601839Y-103786143D01*
X33693277Y-103906722D01*
X33813856Y-103998160D01*
X33813857Y-103998160D01*
X33813858Y-103998161D01*
X33954636Y-104053677D01*
X34043098Y-104064300D01*
X34748235Y-104064300D01*
X34815274Y-104083985D01*
X34835916Y-104100619D01*
X35683586Y-104948289D01*
X35683587Y-104948290D01*
X35683589Y-104948291D01*
X35742893Y-104982529D01*
X35742896Y-104982532D01*
X35777137Y-105002300D01*
X35786314Y-105007599D01*
X35900891Y-105038300D01*
X35900894Y-105038300D01*
X40321508Y-105038300D01*
X40321509Y-105038300D01*
X40411873Y-105014086D01*
X40436087Y-105007599D01*
X40538814Y-104948289D01*
X41892689Y-103594414D01*
X41951999Y-103491687D01*
X41970058Y-103424289D01*
X41982700Y-103377109D01*
X41982700Y-103047416D01*
X42002385Y-102980377D01*
X42055189Y-102934622D01*
X42091915Y-102924300D01*
X42113764Y-102921677D01*
X42254542Y-102866161D01*
X42375122Y-102774722D01*
X42466561Y-102654142D01*
X42522077Y-102513364D01*
X42532700Y-102424902D01*
X42532700Y-102153330D01*
X63545700Y-102153330D01*
X63545700Y-102360269D01*
X63586068Y-102563212D01*
X63586070Y-102563220D01*
X63663474Y-102750090D01*
X63665259Y-102754398D01*
X63699657Y-102805878D01*
X63780224Y-102926457D01*
X63926542Y-103072775D01*
X63926545Y-103072777D01*
X64098602Y-103187741D01*
X64289780Y-103266930D01*
X64492730Y-103307299D01*
X64492734Y-103307300D01*
X64492735Y-103307300D01*
X64699666Y-103307300D01*
X64699667Y-103307299D01*
X64902620Y-103266930D01*
X65093798Y-103187741D01*
X65265855Y-103072777D01*
X65412177Y-102926455D01*
X65494446Y-102803330D01*
X82470700Y-102803330D01*
X82470700Y-103010269D01*
X82511068Y-103213212D01*
X82511070Y-103213220D01*
X82583657Y-103388461D01*
X82590259Y-103404398D01*
X82607571Y-103430307D01*
X82705224Y-103576457D01*
X82851542Y-103722775D01*
X82851545Y-103722777D01*
X83023602Y-103837741D01*
X83214780Y-103916930D01*
X83417730Y-103957299D01*
X83417734Y-103957300D01*
X83417735Y-103957300D01*
X83624666Y-103957300D01*
X83624667Y-103957299D01*
X83767633Y-103928862D01*
X95549560Y-103928862D01*
X95549560Y-103928863D01*
X95584545Y-103954281D01*
X95759851Y-104043603D01*
X95946981Y-104104406D01*
X96141305Y-104135185D01*
X96338069Y-104135185D01*
X96532392Y-104104406D01*
X96719522Y-104043603D01*
X96774099Y-104015795D01*
X106510699Y-104015795D01*
X106537618Y-104151122D01*
X106537621Y-104151132D01*
X106590421Y-104278604D01*
X106590428Y-104278617D01*
X106667085Y-104393341D01*
X106667088Y-104393345D01*
X106764654Y-104490911D01*
X106764658Y-104490914D01*
X106879382Y-104567571D01*
X106879395Y-104567578D01*
X107006867Y-104620378D01*
X107006872Y-104620380D01*
X107006876Y-104620380D01*
X107006877Y-104620381D01*
X107142204Y-104647300D01*
X107142207Y-104647300D01*
X107280195Y-104647300D01*
X107371241Y-104629189D01*
X107415528Y-104620380D01*
X107514124Y-104579540D01*
X107543004Y-104567578D01*
X107543004Y-104567577D01*
X107543011Y-104567575D01*
X107657742Y-104490914D01*
X107715038Y-104433617D01*
X107741969Y-104418911D01*
X107767783Y-104402323D01*
X107773982Y-104401431D01*
X107776359Y-104400134D01*
X107802718Y-104397300D01*
X107989584Y-104397300D01*
X108056623Y-104416985D01*
X108102378Y-104469789D01*
X108112700Y-104506518D01*
X108115322Y-104528361D01*
X108170839Y-104669143D01*
X108262277Y-104789722D01*
X108382856Y-104881160D01*
X108382857Y-104881160D01*
X108382858Y-104881161D01*
X108523636Y-104936677D01*
X108612098Y-104947300D01*
X108612103Y-104947300D01*
X109398297Y-104947300D01*
X109398302Y-104947300D01*
X109486764Y-104936677D01*
X109627542Y-104881161D01*
X109748122Y-104789722D01*
X109839561Y-104669142D01*
X109889846Y-104541626D01*
X109932751Y-104486485D01*
X109998659Y-104463292D01*
X110066643Y-104479412D01*
X110115120Y-104529729D01*
X110120548Y-104541614D01*
X110133126Y-104573508D01*
X110170839Y-104669143D01*
X110262277Y-104789722D01*
X110382856Y-104881160D01*
X110382857Y-104881160D01*
X110382858Y-104881161D01*
X110523636Y-104936677D01*
X110612098Y-104947300D01*
X110612103Y-104947300D01*
X111398297Y-104947300D01*
X111398302Y-104947300D01*
X111486764Y-104936677D01*
X111627542Y-104881161D01*
X111748122Y-104789722D01*
X111839561Y-104669142D01*
X111895077Y-104528364D01*
X111897700Y-104506516D01*
X111925236Y-104442303D01*
X111983118Y-104403169D01*
X112020816Y-104397300D01*
X112307584Y-104397300D01*
X112374623Y-104416985D01*
X112420378Y-104469789D01*
X112430700Y-104506518D01*
X112433322Y-104528361D01*
X112488839Y-104669143D01*
X112580277Y-104789722D01*
X112700856Y-104881160D01*
X112700857Y-104881160D01*
X112700858Y-104881161D01*
X112841636Y-104936677D01*
X112930098Y-104947300D01*
X112930103Y-104947300D01*
X113666297Y-104947300D01*
X113666302Y-104947300D01*
X113754764Y-104936677D01*
X113895542Y-104881161D01*
X114016122Y-104789722D01*
X114072092Y-104715915D01*
X114112686Y-104662384D01*
X114114517Y-104663772D01*
X114155807Y-104623489D01*
X114224258Y-104609482D01*
X114289416Y-104634705D01*
X114330594Y-104691151D01*
X114331591Y-104694041D01*
X114338840Y-104715915D01*
X114338843Y-104715924D01*
X114430884Y-104865145D01*
X114554854Y-104989115D01*
X114704075Y-105081156D01*
X114704080Y-105081158D01*
X114870502Y-105136305D01*
X114870509Y-105136306D01*
X114973219Y-105146799D01*
X115098199Y-105146799D01*
X115598200Y-105146799D01*
X115723172Y-105146799D01*
X115723186Y-105146798D01*
X115825897Y-105136305D01*
X115992319Y-105081158D01*
X115992324Y-105081156D01*
X116141545Y-104989115D01*
X116265515Y-104865145D01*
X116357556Y-104715924D01*
X116357558Y-104715919D01*
X116412705Y-104549497D01*
X116412706Y-104549490D01*
X116423199Y-104446786D01*
X116423200Y-104446773D01*
X116423200Y-104196800D01*
X115598200Y-104196800D01*
X115598200Y-105146799D01*
X115098199Y-105146799D01*
X115098200Y-105146798D01*
X115098200Y-104151334D01*
X119383694Y-104151334D01*
X119383694Y-104387529D01*
X119420640Y-104620800D01*
X119493627Y-104845428D01*
X119591901Y-105038299D01*
X119600851Y-105055865D01*
X119739677Y-105246942D01*
X119906684Y-105413949D01*
X120097761Y-105552775D01*
X120197185Y-105603434D01*
X120308197Y-105659998D01*
X120308199Y-105659998D01*
X120308202Y-105660000D01*
X120428606Y-105699121D01*
X120532825Y-105732985D01*
X120766097Y-105769932D01*
X120766102Y-105769932D01*
X121002291Y-105769932D01*
X121235562Y-105732985D01*
X121460186Y-105660000D01*
X121670627Y-105552775D01*
X121861704Y-105413949D01*
X122028711Y-105246942D01*
X122167537Y-105055865D01*
X122274762Y-104845424D01*
X122347747Y-104620800D01*
X122355237Y-104573508D01*
X122384694Y-104387529D01*
X122384694Y-104151334D01*
X122347747Y-103918063D01*
X122290695Y-103742477D01*
X122274762Y-103693440D01*
X122274760Y-103693437D01*
X122274760Y-103693435D01*
X122205189Y-103556896D01*
X122167537Y-103482999D01*
X122028711Y-103291922D01*
X121861704Y-103124915D01*
X121670627Y-102986089D01*
X121659417Y-102980377D01*
X121460190Y-102878865D01*
X121235562Y-102805878D01*
X121002291Y-102768932D01*
X121002286Y-102768932D01*
X120766102Y-102768932D01*
X120766097Y-102768932D01*
X120532825Y-102805878D01*
X120308197Y-102878865D01*
X120097760Y-102986089D01*
X120013352Y-103047416D01*
X119906684Y-103124915D01*
X119906682Y-103124917D01*
X119906681Y-103124917D01*
X119739679Y-103291919D01*
X119739679Y-103291920D01*
X119739677Y-103291922D01*
X119687404Y-103363870D01*
X119600851Y-103482998D01*
X119493627Y-103693435D01*
X119420640Y-103918063D01*
X119383694Y-104151334D01*
X115098200Y-104151334D01*
X115098200Y-103696800D01*
X115598200Y-103696800D01*
X116423199Y-103696800D01*
X116423199Y-103446828D01*
X116423198Y-103446813D01*
X116412705Y-103344102D01*
X116357558Y-103177680D01*
X116357556Y-103177675D01*
X116265515Y-103028454D01*
X116141545Y-102904484D01*
X115992324Y-102812443D01*
X115992319Y-102812441D01*
X115825897Y-102757294D01*
X115825890Y-102757293D01*
X115723186Y-102746800D01*
X115598200Y-102746800D01*
X115598200Y-103696800D01*
X115098200Y-103696800D01*
X115098200Y-102746800D01*
X114973227Y-102746800D01*
X114973212Y-102746801D01*
X114870502Y-102757294D01*
X114704080Y-102812441D01*
X114704075Y-102812443D01*
X114554854Y-102904484D01*
X114430884Y-103028454D01*
X114338843Y-103177675D01*
X114338840Y-103177684D01*
X114331591Y-103199559D01*
X114291818Y-103257003D01*
X114227302Y-103283825D01*
X114158526Y-103271509D01*
X114114034Y-103230193D01*
X114112686Y-103231216D01*
X114016122Y-103103877D01*
X113895543Y-103012439D01*
X113754761Y-102956922D01*
X113709126Y-102951442D01*
X113666302Y-102946300D01*
X112930098Y-102946300D01*
X112891053Y-102950988D01*
X112841638Y-102956922D01*
X112700856Y-103012439D01*
X112580277Y-103103877D01*
X112488839Y-103224456D01*
X112433322Y-103365238D01*
X112430700Y-103387082D01*
X112403164Y-103451297D01*
X112345282Y-103490431D01*
X112307584Y-103496300D01*
X112020816Y-103496300D01*
X111953777Y-103476615D01*
X111908022Y-103423811D01*
X111897700Y-103387082D01*
X111896502Y-103377109D01*
X111895077Y-103365236D01*
X111839561Y-103224458D01*
X111839560Y-103224457D01*
X111839560Y-103224456D01*
X111748122Y-103103877D01*
X111627543Y-103012439D01*
X111486761Y-102956922D01*
X111441126Y-102951442D01*
X111398302Y-102946300D01*
X110612098Y-102946300D01*
X110573053Y-102950988D01*
X110523638Y-102956922D01*
X110382856Y-103012439D01*
X110262277Y-103103877D01*
X110170839Y-103224456D01*
X110144236Y-103291919D01*
X110120553Y-103351971D01*
X110077649Y-103407114D01*
X110011741Y-103430307D01*
X109943756Y-103414186D01*
X109895280Y-103363870D01*
X109889848Y-103351978D01*
X109839561Y-103224458D01*
X109839560Y-103224457D01*
X109839560Y-103224456D01*
X109748122Y-103103877D01*
X109627543Y-103012439D01*
X109486761Y-102956922D01*
X109441126Y-102951442D01*
X109398302Y-102946300D01*
X108612098Y-102946300D01*
X108573053Y-102950988D01*
X108523638Y-102956922D01*
X108382856Y-103012439D01*
X108262277Y-103103877D01*
X108170839Y-103224456D01*
X108115322Y-103365238D01*
X108112700Y-103387082D01*
X108112108Y-103388461D01*
X108112322Y-103389947D01*
X108098387Y-103420460D01*
X108085164Y-103451297D01*
X108083920Y-103452137D01*
X108083297Y-103453503D01*
X108055079Y-103471637D01*
X108027282Y-103490431D01*
X108025372Y-103490728D01*
X108024519Y-103491277D01*
X107989584Y-103496300D01*
X107802718Y-103496300D01*
X107735679Y-103476615D01*
X107715041Y-103459985D01*
X107657742Y-103402686D01*
X107657741Y-103402685D01*
X107657740Y-103402684D01*
X107543017Y-103326028D01*
X107543004Y-103326021D01*
X107415532Y-103273221D01*
X107415522Y-103273218D01*
X107280195Y-103246300D01*
X107280193Y-103246300D01*
X107142207Y-103246300D01*
X107142205Y-103246300D01*
X107006877Y-103273218D01*
X107006867Y-103273221D01*
X106879395Y-103326021D01*
X106879382Y-103326028D01*
X106764658Y-103402685D01*
X106764654Y-103402688D01*
X106667088Y-103500254D01*
X106667085Y-103500258D01*
X106590428Y-103614982D01*
X106590421Y-103614995D01*
X106537621Y-103742467D01*
X106537618Y-103742477D01*
X106510700Y-103877804D01*
X106510700Y-103877807D01*
X106510700Y-104015793D01*
X106510700Y-104015795D01*
X106510699Y-104015795D01*
X96774099Y-104015795D01*
X96894830Y-103954280D01*
X96929812Y-103928863D01*
X96929813Y-103928863D01*
X96239688Y-103238738D01*
X96239687Y-103238738D01*
X95549560Y-103928862D01*
X83767633Y-103928862D01*
X83827620Y-103916930D01*
X84018798Y-103837741D01*
X84066059Y-103806162D01*
X84107452Y-103778505D01*
X84107454Y-103778503D01*
X84190855Y-103722777D01*
X84337177Y-103576455D01*
X84452141Y-103404398D01*
X84531330Y-103213220D01*
X84571700Y-103010265D01*
X84571700Y-102803335D01*
X84570981Y-102799722D01*
X84568411Y-102786802D01*
X94989687Y-102786802D01*
X94989687Y-102983567D01*
X95020465Y-103177890D01*
X95081268Y-103365020D01*
X95170592Y-103540330D01*
X95196006Y-103575310D01*
X95196007Y-103575310D01*
X95886133Y-102885185D01*
X95886133Y-102885184D01*
X95840056Y-102839107D01*
X95889687Y-102839107D01*
X95889687Y-102931263D01*
X95913539Y-103020280D01*
X95959617Y-103100090D01*
X96024782Y-103165255D01*
X96104592Y-103211333D01*
X96193609Y-103235185D01*
X96285765Y-103235185D01*
X96374782Y-103211333D01*
X96454592Y-103165255D01*
X96519757Y-103100090D01*
X96565835Y-103020280D01*
X96589687Y-102931263D01*
X96589687Y-102885184D01*
X96593240Y-102885184D01*
X96593240Y-102885186D01*
X97283365Y-103575311D01*
X97283365Y-103575310D01*
X97308782Y-103540328D01*
X97398105Y-103365020D01*
X97458908Y-103177890D01*
X97489687Y-102983567D01*
X97489687Y-102786802D01*
X97458908Y-102592479D01*
X97398105Y-102405349D01*
X97308783Y-102230043D01*
X97283365Y-102195058D01*
X97283364Y-102195058D01*
X96593240Y-102885184D01*
X96589687Y-102885184D01*
X96589687Y-102839107D01*
X96565835Y-102750090D01*
X96519757Y-102670280D01*
X96454592Y-102605115D01*
X96374782Y-102559037D01*
X96285765Y-102535185D01*
X96193609Y-102535185D01*
X96104592Y-102559037D01*
X96024782Y-102605115D01*
X95959617Y-102670280D01*
X95913539Y-102750090D01*
X95889687Y-102839107D01*
X95840056Y-102839107D01*
X95196007Y-102195057D01*
X95196007Y-102195058D01*
X95170589Y-102230044D01*
X95170586Y-102230048D01*
X95081269Y-102405346D01*
X95020465Y-102592479D01*
X94989687Y-102786802D01*
X84568411Y-102786802D01*
X84546997Y-102679143D01*
X84531330Y-102600380D01*
X84452141Y-102409202D01*
X84337177Y-102237145D01*
X84337175Y-102237142D01*
X84190857Y-102090824D01*
X84099133Y-102029537D01*
X84018798Y-101975859D01*
X84018799Y-101975859D01*
X84018797Y-101975858D01*
X83827620Y-101896670D01*
X83827612Y-101896668D01*
X83624669Y-101856300D01*
X83624665Y-101856300D01*
X83417735Y-101856300D01*
X83417730Y-101856300D01*
X83214787Y-101896668D01*
X83214779Y-101896670D01*
X83023603Y-101975858D01*
X82851542Y-102090824D01*
X82705224Y-102237142D01*
X82590258Y-102409203D01*
X82511070Y-102600379D01*
X82511068Y-102600387D01*
X82470700Y-102803330D01*
X65494446Y-102803330D01*
X65527141Y-102754398D01*
X65606330Y-102563220D01*
X65646700Y-102360265D01*
X65646700Y-102153335D01*
X65637015Y-102104644D01*
X74341200Y-102104644D01*
X74347601Y-102164172D01*
X74347603Y-102164179D01*
X74397845Y-102298886D01*
X74397849Y-102298893D01*
X74484009Y-102413987D01*
X74484012Y-102413990D01*
X74599106Y-102500150D01*
X74599113Y-102500154D01*
X74733820Y-102550396D01*
X74733827Y-102550398D01*
X74793355Y-102556799D01*
X74793372Y-102556800D01*
X75191200Y-102556800D01*
X75691200Y-102556800D01*
X76089028Y-102556800D01*
X76089044Y-102556799D01*
X76148572Y-102550398D01*
X76148579Y-102550396D01*
X76283286Y-102500154D01*
X76283293Y-102500150D01*
X76398387Y-102413990D01*
X76398390Y-102413987D01*
X76484550Y-102298893D01*
X76484554Y-102298886D01*
X76534796Y-102164179D01*
X76534798Y-102164172D01*
X76541199Y-102104644D01*
X76541200Y-102104627D01*
X76541200Y-101841505D01*
X95549559Y-101841505D01*
X96239687Y-102531631D01*
X96239688Y-102531631D01*
X96929812Y-101841505D01*
X96929812Y-101841504D01*
X96894832Y-101816090D01*
X96719522Y-101726766D01*
X96532392Y-101665963D01*
X96338069Y-101635185D01*
X96141305Y-101635185D01*
X95946981Y-101665963D01*
X95759848Y-101726767D01*
X95584550Y-101816084D01*
X95584546Y-101816087D01*
X95549560Y-101841505D01*
X95549559Y-101841505D01*
X76541200Y-101841505D01*
X76541200Y-101706800D01*
X75691200Y-101706800D01*
X75691200Y-102556800D01*
X75191200Y-102556800D01*
X75191200Y-101706800D01*
X74341200Y-101706800D01*
X74341200Y-102104644D01*
X65637015Y-102104644D01*
X65606330Y-101950380D01*
X65527141Y-101759202D01*
X65503838Y-101724327D01*
X65503838Y-101724325D01*
X65412180Y-101587149D01*
X65412174Y-101587141D01*
X65265857Y-101440824D01*
X65122961Y-101345345D01*
X65093798Y-101325859D01*
X65042581Y-101304644D01*
X77441200Y-101304644D01*
X77447601Y-101364172D01*
X77447603Y-101364179D01*
X77497845Y-101498886D01*
X77497849Y-101498893D01*
X77584009Y-101613987D01*
X77584012Y-101613990D01*
X77699106Y-101700150D01*
X77699113Y-101700154D01*
X77833820Y-101750396D01*
X77833827Y-101750398D01*
X77893355Y-101756799D01*
X77893372Y-101756800D01*
X78441200Y-101756800D01*
X78941200Y-101756800D01*
X79489028Y-101756800D01*
X79489044Y-101756799D01*
X79548572Y-101750398D01*
X79548579Y-101750396D01*
X79683286Y-101700154D01*
X79683293Y-101700150D01*
X79798387Y-101613990D01*
X79798390Y-101613987D01*
X79884550Y-101498893D01*
X79884554Y-101498886D01*
X79904015Y-101446707D01*
X100836147Y-101446707D01*
X100846640Y-101549418D01*
X100901787Y-101715840D01*
X100901789Y-101715845D01*
X100993830Y-101865066D01*
X101117800Y-101989036D01*
X101267021Y-102081077D01*
X101267026Y-102081079D01*
X101433448Y-102136226D01*
X101433455Y-102136227D01*
X101536165Y-102146720D01*
X101886145Y-102146720D01*
X102386146Y-102146720D01*
X102736118Y-102146720D01*
X102736132Y-102146719D01*
X102838843Y-102136226D01*
X103005265Y-102081079D01*
X103005270Y-102081077D01*
X103154491Y-101989036D01*
X103278461Y-101865066D01*
X103370502Y-101715845D01*
X103370504Y-101715840D01*
X103425651Y-101549418D01*
X103425652Y-101549411D01*
X103436145Y-101446707D01*
X103436146Y-101446694D01*
X103436146Y-100967795D01*
X106510699Y-100967795D01*
X106537618Y-101103122D01*
X106537621Y-101103132D01*
X106590421Y-101230604D01*
X106590428Y-101230617D01*
X106667085Y-101345341D01*
X106667088Y-101345345D01*
X106764654Y-101442911D01*
X106764658Y-101442914D01*
X106879382Y-101519571D01*
X106879395Y-101519578D01*
X107003905Y-101571151D01*
X107006872Y-101572380D01*
X107006876Y-101572380D01*
X107006877Y-101572381D01*
X107142204Y-101599300D01*
X107142207Y-101599300D01*
X107280195Y-101599300D01*
X107371241Y-101581189D01*
X107415528Y-101572380D01*
X107543011Y-101519575D01*
X107616909Y-101470198D01*
X107683586Y-101449320D01*
X107685800Y-101449300D01*
X108018679Y-101449300D01*
X108085718Y-101468985D01*
X108131473Y-101521789D01*
X108134025Y-101527790D01*
X108147064Y-101560852D01*
X108170839Y-101621143D01*
X108262277Y-101741722D01*
X108382856Y-101833160D01*
X108382857Y-101833160D01*
X108382858Y-101833161D01*
X108523636Y-101888677D01*
X108612098Y-101899300D01*
X108612103Y-101899300D01*
X109398297Y-101899300D01*
X109398302Y-101899300D01*
X109486764Y-101888677D01*
X109627542Y-101833161D01*
X109748122Y-101741722D01*
X109839561Y-101621142D01*
X109889846Y-101493626D01*
X109932751Y-101438485D01*
X109998659Y-101415292D01*
X110066643Y-101431412D01*
X110115120Y-101481729D01*
X110120548Y-101493614D01*
X110147064Y-101560852D01*
X110170839Y-101621143D01*
X110262277Y-101741722D01*
X110382856Y-101833160D01*
X110382857Y-101833160D01*
X110382858Y-101833161D01*
X110523636Y-101888677D01*
X110612098Y-101899300D01*
X110612103Y-101899300D01*
X111398297Y-101899300D01*
X111398302Y-101899300D01*
X111486764Y-101888677D01*
X111627542Y-101833161D01*
X111748122Y-101741722D01*
X111839561Y-101621142D01*
X111895077Y-101480364D01*
X111897700Y-101458516D01*
X111925236Y-101394303D01*
X111983118Y-101355169D01*
X112020816Y-101349300D01*
X112353637Y-101349300D01*
X112420676Y-101368985D01*
X112466431Y-101421789D01*
X112468985Y-101427795D01*
X112481471Y-101459456D01*
X112516839Y-101549143D01*
X112608277Y-101669722D01*
X112728856Y-101761160D01*
X112728857Y-101761160D01*
X112728858Y-101761161D01*
X112869636Y-101816677D01*
X112958098Y-101827300D01*
X112958103Y-101827300D01*
X113694297Y-101827300D01*
X113694302Y-101827300D01*
X113782764Y-101816677D01*
X113923542Y-101761161D01*
X114044122Y-101669722D01*
X114080961Y-101621143D01*
X114140686Y-101542384D01*
X114142517Y-101543772D01*
X114183807Y-101503489D01*
X114252258Y-101489482D01*
X114317416Y-101514705D01*
X114358594Y-101571151D01*
X114359591Y-101574041D01*
X114366840Y-101595915D01*
X114366843Y-101595924D01*
X114458884Y-101745145D01*
X114582854Y-101869115D01*
X114732075Y-101961156D01*
X114732080Y-101961158D01*
X114898502Y-102016305D01*
X114898509Y-102016306D01*
X115001219Y-102026799D01*
X115126199Y-102026799D01*
X115626200Y-102026799D01*
X115751172Y-102026799D01*
X115751186Y-102026798D01*
X115853897Y-102016305D01*
X116020319Y-101961158D01*
X116020324Y-101961156D01*
X116169545Y-101869115D01*
X116293515Y-101745145D01*
X116385556Y-101595924D01*
X116385558Y-101595919D01*
X116440705Y-101429497D01*
X116440706Y-101429490D01*
X116451199Y-101326786D01*
X116451200Y-101326773D01*
X116451200Y-101076800D01*
X115626200Y-101076800D01*
X115626200Y-102026799D01*
X115126199Y-102026799D01*
X115126200Y-102026798D01*
X115126200Y-100576800D01*
X115626200Y-100576800D01*
X116451199Y-100576800D01*
X116451199Y-100326828D01*
X116451198Y-100326813D01*
X116440705Y-100224102D01*
X116385558Y-100057680D01*
X116385556Y-100057675D01*
X116293515Y-99908454D01*
X116169545Y-99784484D01*
X116020324Y-99692443D01*
X116020319Y-99692441D01*
X115853897Y-99637294D01*
X115853890Y-99637293D01*
X115751186Y-99626800D01*
X115626200Y-99626800D01*
X115626200Y-100576800D01*
X115126200Y-100576800D01*
X115126200Y-99626800D01*
X115001227Y-99626800D01*
X115001212Y-99626801D01*
X114898502Y-99637294D01*
X114732080Y-99692441D01*
X114732075Y-99692443D01*
X114582854Y-99784484D01*
X114458884Y-99908454D01*
X114366843Y-100057675D01*
X114366840Y-100057684D01*
X114359591Y-100079559D01*
X114319818Y-100137003D01*
X114255302Y-100163825D01*
X114186526Y-100151509D01*
X114142034Y-100110193D01*
X114140686Y-100111216D01*
X114044122Y-99983877D01*
X113923543Y-99892439D01*
X113782761Y-99836922D01*
X113737126Y-99831442D01*
X113694302Y-99826300D01*
X112958098Y-99826300D01*
X112919053Y-99830988D01*
X112869638Y-99836922D01*
X112728856Y-99892439D01*
X112608277Y-99983877D01*
X112516839Y-100104456D01*
X112461322Y-100245238D01*
X112457385Y-100278028D01*
X112450700Y-100333698D01*
X112450700Y-100333703D01*
X112450259Y-100337376D01*
X112448838Y-100337205D01*
X112427172Y-100397442D01*
X112371733Y-100439966D01*
X112327041Y-100448300D01*
X112020816Y-100448300D01*
X111953777Y-100428615D01*
X111908022Y-100375811D01*
X111897700Y-100339082D01*
X111897495Y-100337376D01*
X111895077Y-100317236D01*
X111839561Y-100176458D01*
X111839560Y-100176457D01*
X111839560Y-100176456D01*
X111748122Y-100055877D01*
X111627543Y-99964439D01*
X111527608Y-99925030D01*
X111486764Y-99908923D01*
X111486763Y-99908922D01*
X111486761Y-99908922D01*
X111441126Y-99903442D01*
X111398302Y-99898300D01*
X110612098Y-99898300D01*
X110573053Y-99902988D01*
X110523638Y-99908922D01*
X110382856Y-99964439D01*
X110262277Y-100055877D01*
X110170839Y-100176456D01*
X110143620Y-100245481D01*
X110120553Y-100303971D01*
X110077649Y-100359114D01*
X110011741Y-100382307D01*
X109943756Y-100366186D01*
X109895280Y-100315870D01*
X109889848Y-100303978D01*
X109839561Y-100176458D01*
X109839560Y-100176457D01*
X109839560Y-100176456D01*
X109748122Y-100055877D01*
X109627543Y-99964439D01*
X109527608Y-99925030D01*
X109486764Y-99908923D01*
X109486763Y-99908922D01*
X109486761Y-99908922D01*
X109441126Y-99903442D01*
X109398302Y-99898300D01*
X108612098Y-99898300D01*
X108573053Y-99902988D01*
X108523638Y-99908922D01*
X108382856Y-99964439D01*
X108262277Y-100055877D01*
X108170839Y-100176456D01*
X108151610Y-100225218D01*
X108134032Y-100269791D01*
X108091128Y-100324934D01*
X108025220Y-100348127D01*
X108018679Y-100348300D01*
X107685800Y-100348300D01*
X107618761Y-100328615D01*
X107616909Y-100327402D01*
X107543016Y-100278028D01*
X107543004Y-100278021D01*
X107415532Y-100225221D01*
X107415522Y-100225218D01*
X107280195Y-100198300D01*
X107280193Y-100198300D01*
X107142207Y-100198300D01*
X107142205Y-100198300D01*
X107006877Y-100225218D01*
X107006867Y-100225221D01*
X106879395Y-100278021D01*
X106879382Y-100278028D01*
X106764658Y-100354685D01*
X106764654Y-100354688D01*
X106667088Y-100452254D01*
X106667085Y-100452258D01*
X106590428Y-100566982D01*
X106590421Y-100566995D01*
X106537621Y-100694467D01*
X106537618Y-100694477D01*
X106510700Y-100829804D01*
X106510700Y-100829807D01*
X106510700Y-100967793D01*
X106510700Y-100967795D01*
X106510699Y-100967795D01*
X103436146Y-100967795D01*
X103436146Y-100396721D01*
X102386146Y-100396721D01*
X102386146Y-102146720D01*
X101886145Y-102146720D01*
X101886146Y-102146719D01*
X101886146Y-100396721D01*
X100836147Y-100396721D01*
X100836147Y-101446707D01*
X79904015Y-101446707D01*
X79934796Y-101364179D01*
X79934798Y-101364172D01*
X79941199Y-101304644D01*
X79941200Y-101304627D01*
X79941200Y-100706800D01*
X78941200Y-100706800D01*
X78941200Y-101756800D01*
X78441200Y-101756800D01*
X78441200Y-100706800D01*
X77441200Y-100706800D01*
X77441200Y-101304644D01*
X65042581Y-101304644D01*
X64902620Y-101246670D01*
X64902612Y-101246668D01*
X64699669Y-101206300D01*
X64699665Y-101206300D01*
X64492735Y-101206300D01*
X64492730Y-101206300D01*
X64289787Y-101246668D01*
X64289779Y-101246670D01*
X64098603Y-101325858D01*
X63926542Y-101440824D01*
X63780224Y-101587142D01*
X63665258Y-101759203D01*
X63586070Y-101950379D01*
X63586068Y-101950387D01*
X63545700Y-102153330D01*
X42532700Y-102153330D01*
X42532700Y-101638698D01*
X42522077Y-101550236D01*
X42466561Y-101409458D01*
X42466560Y-101409457D01*
X42466560Y-101409456D01*
X42445577Y-101381786D01*
X45371201Y-101381786D01*
X45381694Y-101484497D01*
X45436841Y-101650919D01*
X45436843Y-101650924D01*
X45528884Y-101800145D01*
X45652854Y-101924115D01*
X45802075Y-102016156D01*
X45802080Y-102016158D01*
X45968502Y-102071305D01*
X45968509Y-102071306D01*
X46071219Y-102081799D01*
X46521199Y-102081799D01*
X46521200Y-102081798D01*
X46521200Y-101169300D01*
X45371201Y-101169300D01*
X45371201Y-101381786D01*
X42445577Y-101381786D01*
X42375122Y-101288877D01*
X42324247Y-101250298D01*
X42305574Y-101225028D01*
X42285443Y-101200908D01*
X42284973Y-101197150D01*
X42282724Y-101194106D01*
X42280677Y-101162761D01*
X42276782Y-101131578D01*
X42278418Y-101128162D01*
X42278172Y-101124384D01*
X42293397Y-101096907D01*
X42306978Y-101068570D01*
X42310925Y-101065275D01*
X42312037Y-101063270D01*
X42334075Y-101045955D01*
X42388478Y-101012399D01*
X42450545Y-100974115D01*
X42574515Y-100850145D01*
X42666556Y-100700924D01*
X42666558Y-100700919D01*
X42721705Y-100534497D01*
X42721706Y-100534490D01*
X42729643Y-100456813D01*
X45371200Y-100456813D01*
X45371200Y-100669300D01*
X46521200Y-100669300D01*
X46521200Y-99756800D01*
X46071228Y-99756800D01*
X46071212Y-99756801D01*
X45968502Y-99767294D01*
X45802080Y-99822441D01*
X45802075Y-99822443D01*
X45652854Y-99914484D01*
X45528884Y-100038454D01*
X45436843Y-100187675D01*
X45436841Y-100187680D01*
X45381694Y-100354102D01*
X45381693Y-100354109D01*
X45371200Y-100456813D01*
X42729643Y-100456813D01*
X42731252Y-100441061D01*
X42731252Y-100441060D01*
X42732199Y-100431791D01*
X42732200Y-100431773D01*
X42732200Y-100281800D01*
X40291062Y-100281800D01*
X40224023Y-100262115D01*
X40203381Y-100245481D01*
X40202200Y-100244300D01*
X38021201Y-100244300D01*
X38021201Y-100381786D01*
X38031694Y-100484497D01*
X38086841Y-100650919D01*
X38086843Y-100650924D01*
X38178884Y-100800145D01*
X38302854Y-100924115D01*
X38452076Y-101016156D01*
X38473955Y-101023406D01*
X38531401Y-101063178D01*
X38558225Y-101127693D01*
X38545911Y-101196469D01*
X38504593Y-101240966D01*
X38505616Y-101242314D01*
X38378277Y-101338877D01*
X38286839Y-101459456D01*
X38231322Y-101600238D01*
X38229671Y-101613990D01*
X38220700Y-101688698D01*
X38220700Y-101688703D01*
X38220700Y-102406333D01*
X38212056Y-102435769D01*
X38205533Y-102465759D01*
X38201777Y-102470776D01*
X38201015Y-102473372D01*
X38184382Y-102494014D01*
X38101416Y-102576981D01*
X38040093Y-102610466D01*
X38013734Y-102613300D01*
X37451816Y-102613300D01*
X37384777Y-102593615D01*
X37339022Y-102540811D01*
X37328700Y-102504082D01*
X37328228Y-102500154D01*
X37326077Y-102482236D01*
X37270561Y-102341458D01*
X37270560Y-102341457D01*
X37270560Y-102341456D01*
X37179122Y-102220877D01*
X37058543Y-102129439D01*
X36917761Y-102073922D01*
X36872126Y-102068442D01*
X36829302Y-102063300D01*
X36043098Y-102063300D01*
X36004053Y-102067988D01*
X35954638Y-102073922D01*
X35813856Y-102129439D01*
X35693277Y-102220877D01*
X35601839Y-102341456D01*
X35576645Y-102405346D01*
X35551553Y-102468971D01*
X35508649Y-102524114D01*
X35442741Y-102547307D01*
X35374756Y-102531186D01*
X35326280Y-102480870D01*
X35320848Y-102468978D01*
X35270561Y-102341458D01*
X35270560Y-102341457D01*
X35270560Y-102341456D01*
X35179122Y-102220877D01*
X35058543Y-102129439D01*
X34917761Y-102073922D01*
X34872126Y-102068442D01*
X34829302Y-102063300D01*
X34829297Y-102063300D01*
X34806700Y-102063300D01*
X34739661Y-102043615D01*
X34693906Y-101990811D01*
X34682700Y-101939300D01*
X34682700Y-101551588D01*
X34702385Y-101484549D01*
X34706930Y-101477955D01*
X34784990Y-101372186D01*
X34784989Y-101372186D01*
X34784993Y-101372182D01*
X34807419Y-101308090D01*
X34829846Y-101244001D01*
X34829846Y-101243999D01*
X34831633Y-101224949D01*
X35332200Y-101224949D01*
X35335099Y-101261789D01*
X35335100Y-101261795D01*
X35380916Y-101419493D01*
X35380917Y-101419496D01*
X35464514Y-101560852D01*
X35464521Y-101560861D01*
X35580638Y-101676978D01*
X35580647Y-101676985D01*
X35722001Y-101760581D01*
X35879714Y-101806400D01*
X35879711Y-101806400D01*
X35882198Y-101806595D01*
X35882200Y-101806595D01*
X36382200Y-101806595D01*
X36382201Y-101806595D01*
X36384686Y-101806400D01*
X36542398Y-101760581D01*
X36683752Y-101676985D01*
X36683761Y-101676978D01*
X36799878Y-101560861D01*
X36799885Y-101560852D01*
X36883482Y-101419496D01*
X36883483Y-101419493D01*
X36929299Y-101261795D01*
X36929300Y-101261789D01*
X36932199Y-101224949D01*
X36932200Y-101224934D01*
X36932200Y-100819300D01*
X36382200Y-100819300D01*
X36382200Y-101806595D01*
X35882200Y-101806595D01*
X35882200Y-100819300D01*
X35332200Y-100819300D01*
X35332200Y-101224949D01*
X34831633Y-101224949D01*
X34832700Y-101213569D01*
X34832700Y-99925030D01*
X34829846Y-99894601D01*
X34829045Y-99892311D01*
X34828953Y-99890510D01*
X34828236Y-99887227D01*
X34828779Y-99887108D01*
X34825484Y-99822532D01*
X34860213Y-99761905D01*
X34922207Y-99729678D01*
X34957664Y-99727899D01*
X34977934Y-99729800D01*
X35213251Y-99729800D01*
X35280290Y-99749485D01*
X35326045Y-99802289D01*
X35335989Y-99871447D01*
X35335233Y-99876080D01*
X35335099Y-99876808D01*
X35332200Y-99913650D01*
X35332200Y-100319300D01*
X35882200Y-100319300D01*
X36382200Y-100319300D01*
X36932200Y-100319300D01*
X36932200Y-99913665D01*
X36932199Y-99913650D01*
X36929300Y-99876810D01*
X36929299Y-99876804D01*
X36883483Y-99719106D01*
X36883482Y-99719103D01*
X36852542Y-99666785D01*
X36817075Y-99606813D01*
X38021200Y-99606813D01*
X38021200Y-99744300D01*
X38996200Y-99744300D01*
X39496200Y-99744300D01*
X40512338Y-99744300D01*
X40579377Y-99763985D01*
X40600019Y-99780619D01*
X40601200Y-99781800D01*
X41282200Y-99781800D01*
X41782200Y-99781800D01*
X42732199Y-99781800D01*
X42732199Y-99631828D01*
X42732198Y-99631813D01*
X42721705Y-99529102D01*
X42666558Y-99362680D01*
X42666556Y-99362675D01*
X42574515Y-99213454D01*
X42450545Y-99089484D01*
X42301324Y-98997443D01*
X42301319Y-98997441D01*
X42134897Y-98942294D01*
X42134890Y-98942293D01*
X42032186Y-98931800D01*
X41782200Y-98931800D01*
X41782200Y-99781800D01*
X41282200Y-99781800D01*
X41282200Y-98931800D01*
X41032229Y-98931800D01*
X41032212Y-98931801D01*
X40929502Y-98942294D01*
X40763080Y-98997441D01*
X40763075Y-98997443D01*
X40613857Y-99089482D01*
X40500958Y-99202381D01*
X40439635Y-99235865D01*
X40369943Y-99230881D01*
X40318652Y-99193534D01*
X40318624Y-99193563D01*
X40318439Y-99193378D01*
X40316012Y-99191611D01*
X40313517Y-99188456D01*
X40189545Y-99064484D01*
X40040324Y-98972443D01*
X40040319Y-98972441D01*
X39873897Y-98917294D01*
X39873890Y-98917293D01*
X39771186Y-98906800D01*
X39496200Y-98906800D01*
X39496200Y-99744300D01*
X38996200Y-99744300D01*
X38996200Y-98906800D01*
X38721229Y-98906800D01*
X38721212Y-98906801D01*
X38618502Y-98917294D01*
X38452080Y-98972441D01*
X38452075Y-98972443D01*
X38302854Y-99064484D01*
X38178884Y-99188454D01*
X38086843Y-99337675D01*
X38086841Y-99337680D01*
X38031694Y-99504102D01*
X38031693Y-99504109D01*
X38021200Y-99606813D01*
X36817075Y-99606813D01*
X36799885Y-99577747D01*
X36799878Y-99577738D01*
X36683761Y-99461621D01*
X36683752Y-99461614D01*
X36542396Y-99378017D01*
X36542393Y-99378016D01*
X36384694Y-99332200D01*
X36384697Y-99332200D01*
X36382200Y-99332003D01*
X36382200Y-100319300D01*
X35882200Y-100319300D01*
X35882200Y-99341043D01*
X35833959Y-99306101D01*
X35817492Y-99284810D01*
X35798316Y-99265919D01*
X35796014Y-99257039D01*
X35791214Y-99250833D01*
X35789592Y-99232265D01*
X35782700Y-99205678D01*
X35782700Y-98045030D01*
X35779846Y-98014600D01*
X35779846Y-98014598D01*
X35734993Y-97886419D01*
X35734992Y-97886417D01*
X35721309Y-97867877D01*
X35654350Y-97777150D01*
X35545082Y-97696507D01*
X35545080Y-97696506D01*
X35416900Y-97651653D01*
X35386470Y-97648800D01*
X35386466Y-97648800D01*
X34977934Y-97648800D01*
X34977930Y-97648800D01*
X34947500Y-97651653D01*
X34947498Y-97651653D01*
X34819319Y-97696506D01*
X34819317Y-97696507D01*
X34710050Y-97777150D01*
X34629407Y-97886417D01*
X34629406Y-97886419D01*
X34584553Y-98014598D01*
X34584553Y-98014600D01*
X34581700Y-98045030D01*
X34581700Y-98114800D01*
X34562015Y-98181839D01*
X34509211Y-98227594D01*
X34457700Y-98238800D01*
X32179665Y-98238800D01*
X32112626Y-98219115D01*
X32091984Y-98202481D01*
X31754019Y-97864516D01*
X31720534Y-97803193D01*
X31717700Y-97776835D01*
X31717700Y-97403330D01*
X37470700Y-97403330D01*
X37470700Y-97610269D01*
X37511068Y-97813212D01*
X37511070Y-97813220D01*
X37583655Y-97988456D01*
X37590259Y-98004398D01*
X37617408Y-98045030D01*
X37705224Y-98176457D01*
X37851542Y-98322775D01*
X37851545Y-98322777D01*
X38023602Y-98437741D01*
X38214780Y-98516930D01*
X38412708Y-98556300D01*
X38417730Y-98557299D01*
X38417734Y-98557300D01*
X38417735Y-98557300D01*
X38624666Y-98557300D01*
X38624667Y-98557299D01*
X38827620Y-98516930D01*
X39018798Y-98437741D01*
X39190855Y-98322777D01*
X39337177Y-98176455D01*
X39452141Y-98004398D01*
X39531330Y-97813220D01*
X39571700Y-97610265D01*
X39571700Y-97403335D01*
X39531330Y-97200380D01*
X39452141Y-97009202D01*
X39337177Y-96837145D01*
X39337175Y-96837142D01*
X39190857Y-96690824D01*
X39104826Y-96633341D01*
X39018798Y-96575859D01*
X38953689Y-96548890D01*
X38827620Y-96496670D01*
X38827612Y-96496668D01*
X38624669Y-96456300D01*
X38624665Y-96456300D01*
X38417735Y-96456300D01*
X38417730Y-96456300D01*
X38214787Y-96496668D01*
X38214779Y-96496670D01*
X38023603Y-96575858D01*
X37851542Y-96690824D01*
X37705224Y-96837142D01*
X37590258Y-97009203D01*
X37511070Y-97200379D01*
X37511068Y-97200387D01*
X37470700Y-97403330D01*
X31717700Y-97403330D01*
X31717700Y-96422396D01*
X31737385Y-96355357D01*
X31790189Y-96309602D01*
X31859347Y-96299658D01*
X31922903Y-96328683D01*
X31940504Y-96347471D01*
X31948277Y-96357722D01*
X32068856Y-96449160D01*
X32068857Y-96449160D01*
X32068858Y-96449161D01*
X32209636Y-96504677D01*
X32298098Y-96515300D01*
X32298103Y-96515300D01*
X33284297Y-96515300D01*
X33284302Y-96515300D01*
X33372764Y-96504677D01*
X33513542Y-96449161D01*
X33634122Y-96357722D01*
X33725561Y-96237142D01*
X33725562Y-96237138D01*
X33729719Y-96229748D01*
X33732612Y-96231374D01*
X33765817Y-96188681D01*
X33831720Y-96165474D01*
X33838286Y-96165300D01*
X33947672Y-96165300D01*
X33947674Y-96165300D01*
X33947675Y-96165300D01*
X34087685Y-96127784D01*
X34098628Y-96121465D01*
X34107773Y-96116187D01*
X34176423Y-96076551D01*
X34213215Y-96055310D01*
X34228739Y-96039786D01*
X42488201Y-96039786D01*
X42498694Y-96142497D01*
X42553841Y-96308919D01*
X42553843Y-96308924D01*
X42645884Y-96458145D01*
X42769854Y-96582115D01*
X42919075Y-96674156D01*
X42919080Y-96674158D01*
X43085502Y-96729305D01*
X43085509Y-96729306D01*
X43188219Y-96739799D01*
X43463199Y-96739799D01*
X43963200Y-96739799D01*
X44238172Y-96739799D01*
X44238186Y-96739798D01*
X44340897Y-96729305D01*
X44507319Y-96674158D01*
X44507324Y-96674156D01*
X44656545Y-96582115D01*
X44780515Y-96458145D01*
X44872556Y-96308924D01*
X44872558Y-96308919D01*
X44927705Y-96142497D01*
X44927706Y-96142490D01*
X44938199Y-96039786D01*
X44938200Y-96039773D01*
X44938200Y-95902300D01*
X43963200Y-95902300D01*
X43963200Y-96739799D01*
X43463199Y-96739799D01*
X43463200Y-96739798D01*
X43463200Y-95902300D01*
X42488201Y-95902300D01*
X42488201Y-96039786D01*
X34228739Y-96039786D01*
X35646906Y-94621619D01*
X35708229Y-94588134D01*
X35734587Y-94585300D01*
X36234470Y-94585300D01*
X36264899Y-94582446D01*
X36303225Y-94569035D01*
X36379749Y-94542259D01*
X36420704Y-94535300D01*
X37557672Y-94535300D01*
X37557674Y-94535300D01*
X37557675Y-94535300D01*
X37697685Y-94497784D01*
X37733362Y-94477186D01*
X37823215Y-94425310D01*
X39073710Y-93174815D01*
X39146184Y-93049285D01*
X39146808Y-93046958D01*
X39183700Y-92909275D01*
X39183700Y-91846187D01*
X39203385Y-91779148D01*
X39220019Y-91758506D01*
X39313383Y-91665142D01*
X39409162Y-91569362D01*
X39470483Y-91535879D01*
X39540174Y-91540863D01*
X39596108Y-91582734D01*
X39620299Y-91645464D01*
X39622553Y-91669500D01*
X39622553Y-91669501D01*
X39666570Y-91795290D01*
X39667407Y-91797682D01*
X39748050Y-91906950D01*
X39840296Y-91975030D01*
X39882546Y-92030677D01*
X39888005Y-92100333D01*
X39854938Y-92161883D01*
X39840298Y-92174568D01*
X39778359Y-92220281D01*
X39748050Y-92242650D01*
X39667407Y-92351917D01*
X39667406Y-92351919D01*
X39622553Y-92480098D01*
X39622553Y-92480100D01*
X39619700Y-92510530D01*
X39619700Y-92919069D01*
X39622553Y-92949499D01*
X39622553Y-92949501D01*
X39667406Y-93077680D01*
X39667407Y-93077682D01*
X39748050Y-93186950D01*
X39833521Y-93250030D01*
X39875771Y-93305677D01*
X39881230Y-93375334D01*
X39848162Y-93436883D01*
X39833521Y-93449569D01*
X39785248Y-93485197D01*
X39748050Y-93512650D01*
X39667407Y-93621917D01*
X39667406Y-93621919D01*
X39622553Y-93750098D01*
X39622553Y-93750100D01*
X39619700Y-93780530D01*
X39619700Y-94189069D01*
X39622553Y-94219499D01*
X39622553Y-94219501D01*
X39667333Y-94347471D01*
X39667407Y-94347682D01*
X39748050Y-94456950D01*
X39857318Y-94537593D01*
X39870653Y-94542259D01*
X39985499Y-94582446D01*
X40015930Y-94585300D01*
X40015934Y-94585300D01*
X41474470Y-94585300D01*
X41504899Y-94582446D01*
X41504901Y-94582446D01*
X41568990Y-94560019D01*
X41633082Y-94537593D01*
X41742350Y-94456950D01*
X41822993Y-94347682D01*
X41848124Y-94275861D01*
X41867846Y-94219501D01*
X41867846Y-94219499D01*
X41870700Y-94189069D01*
X41870700Y-93780530D01*
X41867846Y-93750100D01*
X41867846Y-93750098D01*
X41822993Y-93621919D01*
X41822992Y-93621917D01*
X41806659Y-93599787D01*
X41742350Y-93512650D01*
X41656877Y-93449568D01*
X41614628Y-93393923D01*
X41609169Y-93324267D01*
X41642236Y-93262717D01*
X41656870Y-93250036D01*
X41742350Y-93186950D01*
X41822993Y-93077682D01*
X41852815Y-92992456D01*
X41867846Y-92949501D01*
X41867846Y-92949499D01*
X41870700Y-92919069D01*
X41870700Y-92510530D01*
X41867846Y-92480100D01*
X41867846Y-92480098D01*
X41822993Y-92351919D01*
X41822992Y-92351917D01*
X41742350Y-92242650D01*
X41650102Y-92174568D01*
X41633632Y-92152875D01*
X41614504Y-92133485D01*
X41612814Y-92125456D01*
X41607854Y-92118923D01*
X41605725Y-92091768D01*
X41600117Y-92065113D01*
X41603036Y-92057446D01*
X41602395Y-92049267D01*
X41615287Y-92025268D01*
X41624979Y-91999816D01*
X41633452Y-91991456D01*
X41635462Y-91987717D01*
X41650105Y-91975030D01*
X41738855Y-91909530D01*
X41804484Y-91885559D01*
X41812488Y-91885300D01*
X42380508Y-91885300D01*
X42380509Y-91885300D01*
X42470873Y-91861086D01*
X42495087Y-91854599D01*
X42597814Y-91795289D01*
X42656340Y-91736762D01*
X42717660Y-91703278D01*
X42787352Y-91708262D01*
X42842824Y-91749519D01*
X42870277Y-91785722D01*
X42990856Y-91877160D01*
X42990857Y-91877160D01*
X42990858Y-91877161D01*
X43131636Y-91932677D01*
X43153483Y-91935300D01*
X43217697Y-91962836D01*
X43256831Y-92020718D01*
X43262700Y-92058416D01*
X43262700Y-92571181D01*
X43243015Y-92638220D01*
X43190211Y-92683975D01*
X43153485Y-92694296D01*
X43106641Y-92699921D01*
X42965856Y-92755439D01*
X42845277Y-92846877D01*
X42753839Y-92967456D01*
X42698322Y-93108238D01*
X42695157Y-93134597D01*
X42687700Y-93196698D01*
X42687700Y-93957902D01*
X42690731Y-93983142D01*
X42698322Y-94046361D01*
X42698322Y-94046363D01*
X42698323Y-94046364D01*
X42704492Y-94062007D01*
X42753839Y-94187143D01*
X42845277Y-94307722D01*
X42972616Y-94404286D01*
X42971228Y-94406115D01*
X43011515Y-94447418D01*
X43025516Y-94515871D01*
X43000287Y-94581026D01*
X42943836Y-94622198D01*
X42940959Y-94623191D01*
X42919082Y-94630440D01*
X42919075Y-94630443D01*
X42769854Y-94722484D01*
X42645884Y-94846454D01*
X42553843Y-94995675D01*
X42553841Y-94995680D01*
X42498694Y-95162102D01*
X42498693Y-95162109D01*
X42488200Y-95264813D01*
X42488200Y-95402300D01*
X44938199Y-95402300D01*
X44938199Y-95264828D01*
X44938198Y-95264813D01*
X44927705Y-95162102D01*
X44872558Y-94995680D01*
X44872556Y-94995675D01*
X44780515Y-94846454D01*
X44656545Y-94722484D01*
X44507324Y-94630443D01*
X44507321Y-94630442D01*
X44485441Y-94623192D01*
X44427997Y-94583419D01*
X44401174Y-94518903D01*
X44413489Y-94450127D01*
X44454805Y-94405632D01*
X44453784Y-94404286D01*
X44581122Y-94307722D01*
X44613292Y-94265300D01*
X44672561Y-94187142D01*
X44728077Y-94046364D01*
X44738700Y-93957902D01*
X44738700Y-93196698D01*
X44728077Y-93108236D01*
X44672561Y-92967458D01*
X44672560Y-92967457D01*
X44672560Y-92967456D01*
X44581122Y-92846877D01*
X44460543Y-92755439D01*
X44376503Y-92722298D01*
X44319764Y-92699923D01*
X44319762Y-92699922D01*
X44319758Y-92699921D01*
X44272915Y-92694296D01*
X44208701Y-92666759D01*
X44169568Y-92608876D01*
X44163700Y-92571181D01*
X44163700Y-92058416D01*
X44183385Y-91991377D01*
X44236189Y-91945622D01*
X44272915Y-91935300D01*
X44294764Y-91932677D01*
X44435542Y-91877161D01*
X44556122Y-91785722D01*
X44647561Y-91665142D01*
X44703077Y-91524364D01*
X44713700Y-91435902D01*
X44713700Y-90649698D01*
X44703077Y-90561236D01*
X44647561Y-90420458D01*
X44647560Y-90420457D01*
X44647560Y-90420456D01*
X44556122Y-90299877D01*
X44435543Y-90208439D01*
X44382959Y-90187703D01*
X44308026Y-90158153D01*
X44252885Y-90115249D01*
X44229692Y-90049341D01*
X44245812Y-89981357D01*
X44296129Y-89932880D01*
X44308014Y-89927451D01*
X44435542Y-89877161D01*
X44556122Y-89785722D01*
X44647561Y-89665142D01*
X44703077Y-89524364D01*
X44713700Y-89435902D01*
X44713700Y-88649698D01*
X44703077Y-88561236D01*
X44647561Y-88420458D01*
X44647560Y-88420457D01*
X44647560Y-88420456D01*
X44556122Y-88299877D01*
X44435541Y-88208438D01*
X44435539Y-88208437D01*
X44306339Y-88157487D01*
X44251195Y-88114582D01*
X44232055Y-88074228D01*
X44226184Y-88052315D01*
X44219579Y-88040874D01*
X44219579Y-88040873D01*
X44153714Y-87926791D01*
X44153708Y-87926783D01*
X43330255Y-87103330D01*
X45520700Y-87103330D01*
X45520700Y-87310269D01*
X45561068Y-87513212D01*
X45561070Y-87513220D01*
X45640258Y-87704396D01*
X45755224Y-87876457D01*
X45901542Y-88022775D01*
X45901545Y-88022777D01*
X46065591Y-88132388D01*
X46110396Y-88185999D01*
X46120700Y-88235490D01*
X46120700Y-90693078D01*
X46140290Y-90766187D01*
X46140289Y-90766187D01*
X46140290Y-90766189D01*
X46151399Y-90807652D01*
X46151400Y-90807654D01*
X46151401Y-90807656D01*
X46210711Y-90910383D01*
X46210713Y-90910385D01*
X48394785Y-93094457D01*
X48428270Y-93155780D01*
X48430220Y-93196921D01*
X48420700Y-93276198D01*
X48420700Y-94187402D01*
X48425457Y-94227015D01*
X48431322Y-94275861D01*
X48431322Y-94275863D01*
X48431323Y-94275864D01*
X48440706Y-94299658D01*
X48486839Y-94416643D01*
X48578277Y-94537222D01*
X48698856Y-94628660D01*
X48698857Y-94628660D01*
X48698858Y-94628661D01*
X48839636Y-94684177D01*
X48928098Y-94694800D01*
X48934235Y-94694800D01*
X49001274Y-94714485D01*
X49047029Y-94767289D01*
X49056973Y-94836447D01*
X49027948Y-94900003D01*
X49021916Y-94906481D01*
X47133416Y-96794981D01*
X47072093Y-96828466D01*
X47045735Y-96831300D01*
X46078098Y-96831300D01*
X46039053Y-96835988D01*
X45989638Y-96841922D01*
X45848856Y-96897439D01*
X45728277Y-96988877D01*
X45636839Y-97109456D01*
X45581322Y-97250238D01*
X45580118Y-97260269D01*
X45570700Y-97338698D01*
X45570700Y-98249902D01*
X45575685Y-98291413D01*
X45581322Y-98338361D01*
X45581322Y-98338363D01*
X45581323Y-98338364D01*
X45598922Y-98382992D01*
X45636839Y-98479143D01*
X45728277Y-98599722D01*
X45848856Y-98691160D01*
X45848857Y-98691160D01*
X45848858Y-98691161D01*
X45989636Y-98746677D01*
X46078098Y-98757300D01*
X46078103Y-98757300D01*
X47464297Y-98757300D01*
X47464302Y-98757300D01*
X47552764Y-98746677D01*
X47693542Y-98691161D01*
X47814122Y-98599722D01*
X47833895Y-98573646D01*
X47890087Y-98532123D01*
X47959809Y-98527570D01*
X48020923Y-98561435D01*
X48054027Y-98622964D01*
X48056700Y-98648571D01*
X48056700Y-99003902D01*
X48062210Y-99049787D01*
X48067322Y-99092361D01*
X48067322Y-99092363D01*
X48067323Y-99092364D01*
X48078340Y-99120300D01*
X48122839Y-99233143D01*
X48214277Y-99353722D01*
X48334856Y-99445160D01*
X48334857Y-99445160D01*
X48334858Y-99445161D01*
X48462371Y-99495446D01*
X48517514Y-99538351D01*
X48540707Y-99604259D01*
X48524586Y-99672244D01*
X48474270Y-99720720D01*
X48462378Y-99726151D01*
X48410863Y-99746465D01*
X48334856Y-99776439D01*
X48214276Y-99867878D01*
X48140054Y-99965754D01*
X48083861Y-100007277D01*
X48014140Y-100011828D01*
X47953570Y-99978509D01*
X47889545Y-99914484D01*
X47740324Y-99822443D01*
X47740319Y-99822441D01*
X47573897Y-99767294D01*
X47573890Y-99767293D01*
X47471186Y-99756800D01*
X47021200Y-99756800D01*
X47021200Y-102081799D01*
X47471172Y-102081799D01*
X47471186Y-102081798D01*
X47573897Y-102071305D01*
X47699946Y-102029537D01*
X47740319Y-102016158D01*
X47740324Y-102016156D01*
X47889545Y-101924115D01*
X48013515Y-101800145D01*
X48105556Y-101650924D01*
X48105559Y-101650917D01*
X48151716Y-101511623D01*
X48191488Y-101454178D01*
X48256004Y-101427354D01*
X48324780Y-101439669D01*
X48330194Y-101442539D01*
X48334854Y-101445159D01*
X48334856Y-101445160D01*
X48334858Y-101445161D01*
X48475636Y-101500677D01*
X48564098Y-101511300D01*
X48564103Y-101511300D01*
X49550297Y-101511300D01*
X49550302Y-101511300D01*
X49638764Y-101500677D01*
X49779542Y-101445161D01*
X49900122Y-101353722D01*
X49991561Y-101233142D01*
X50028367Y-101139808D01*
X50041275Y-101123218D01*
X50050008Y-101104097D01*
X50062299Y-101096197D01*
X50071272Y-101084666D01*
X50091101Y-101077687D01*
X50108786Y-101066323D01*
X50133492Y-101062770D01*
X50137180Y-101061473D01*
X50143721Y-101061300D01*
X50256679Y-101061300D01*
X50323718Y-101080985D01*
X50369473Y-101133789D01*
X50372025Y-101139790D01*
X50382703Y-101166866D01*
X50408839Y-101233143D01*
X50500277Y-101353722D01*
X50620856Y-101445160D01*
X50620857Y-101445160D01*
X50620858Y-101445161D01*
X50761636Y-101500677D01*
X50850098Y-101511300D01*
X50850103Y-101511300D01*
X51836297Y-101511300D01*
X51836302Y-101511300D01*
X51924764Y-101500677D01*
X52065542Y-101445161D01*
X52186122Y-101353722D01*
X52277561Y-101233142D01*
X52333077Y-101092364D01*
X52343700Y-101003902D01*
X52343700Y-100217698D01*
X52333077Y-100129236D01*
X52277561Y-99988458D01*
X52277560Y-99988457D01*
X52277560Y-99988456D01*
X52186122Y-99867877D01*
X52065543Y-99776439D01*
X52027539Y-99761452D01*
X51938026Y-99726153D01*
X51882885Y-99683249D01*
X51859692Y-99617341D01*
X51875812Y-99549357D01*
X51926129Y-99500880D01*
X51938014Y-99495451D01*
X52065542Y-99445161D01*
X52186122Y-99353722D01*
X52277561Y-99233142D01*
X52314367Y-99139808D01*
X52327275Y-99123218D01*
X52336008Y-99104097D01*
X52348299Y-99096197D01*
X52357272Y-99084666D01*
X52377101Y-99077687D01*
X52394786Y-99066323D01*
X52419492Y-99062770D01*
X52423180Y-99061473D01*
X52429721Y-99061300D01*
X52542679Y-99061300D01*
X52609718Y-99080985D01*
X52655473Y-99133789D01*
X52658025Y-99139790D01*
X52676777Y-99187339D01*
X52694839Y-99233143D01*
X52786277Y-99353722D01*
X52906856Y-99445160D01*
X52906857Y-99445160D01*
X52906858Y-99445161D01*
X53034371Y-99495446D01*
X53089514Y-99538351D01*
X53112707Y-99604259D01*
X53096586Y-99672244D01*
X53046270Y-99720720D01*
X53034378Y-99726151D01*
X52982863Y-99746465D01*
X52906856Y-99776439D01*
X52786277Y-99867877D01*
X52694839Y-99988456D01*
X52639322Y-100129238D01*
X52635169Y-100163825D01*
X52628700Y-100217698D01*
X52628700Y-101003902D01*
X52633750Y-101045955D01*
X52639322Y-101092361D01*
X52639322Y-101092363D01*
X52639323Y-101092364D01*
X52643950Y-101104097D01*
X52694839Y-101233143D01*
X52786277Y-101353722D01*
X52906856Y-101445160D01*
X52906857Y-101445160D01*
X52906858Y-101445161D01*
X53047636Y-101500677D01*
X53136098Y-101511300D01*
X53136103Y-101511300D01*
X54122297Y-101511300D01*
X54122302Y-101511300D01*
X54210764Y-101500677D01*
X54351542Y-101445161D01*
X54472122Y-101353722D01*
X54563561Y-101233142D01*
X54600367Y-101139808D01*
X54613275Y-101123218D01*
X54622008Y-101104097D01*
X54634299Y-101096197D01*
X54643272Y-101084666D01*
X54663101Y-101077687D01*
X54680786Y-101066323D01*
X54705492Y-101062770D01*
X54709180Y-101061473D01*
X54715721Y-101061300D01*
X54828679Y-101061300D01*
X54895718Y-101080985D01*
X54941473Y-101133789D01*
X54944025Y-101139790D01*
X54954703Y-101166866D01*
X54980839Y-101233143D01*
X55072277Y-101353722D01*
X55192856Y-101445160D01*
X55192857Y-101445160D01*
X55192858Y-101445161D01*
X55333636Y-101500677D01*
X55422098Y-101511300D01*
X55422103Y-101511300D01*
X56408297Y-101511300D01*
X56408302Y-101511300D01*
X56496764Y-101500677D01*
X56637542Y-101445161D01*
X56758122Y-101353722D01*
X56849561Y-101233142D01*
X56905077Y-101092364D01*
X56915700Y-101003902D01*
X56915700Y-100217698D01*
X56905077Y-100129236D01*
X56849561Y-99988458D01*
X56849560Y-99988457D01*
X56849560Y-99988456D01*
X56758122Y-99867877D01*
X56637543Y-99776439D01*
X56599539Y-99761452D01*
X56510026Y-99726153D01*
X56454885Y-99683249D01*
X56431692Y-99617341D01*
X56447812Y-99549357D01*
X56498129Y-99500880D01*
X56510014Y-99495451D01*
X56637542Y-99445161D01*
X56758122Y-99353722D01*
X56849561Y-99233142D01*
X56886367Y-99139808D01*
X56899275Y-99123218D01*
X56908008Y-99104097D01*
X56920299Y-99096197D01*
X56929272Y-99084666D01*
X56949101Y-99077687D01*
X56966786Y-99066323D01*
X56991492Y-99062770D01*
X56995180Y-99061473D01*
X57001721Y-99061300D01*
X57114679Y-99061300D01*
X57181718Y-99080985D01*
X57227473Y-99133789D01*
X57230025Y-99139790D01*
X57248777Y-99187339D01*
X57266839Y-99233143D01*
X57358277Y-99353722D01*
X57478856Y-99445160D01*
X57478857Y-99445160D01*
X57478858Y-99445161D01*
X57606371Y-99495446D01*
X57661514Y-99538351D01*
X57684707Y-99604259D01*
X57668586Y-99672244D01*
X57618270Y-99720720D01*
X57606378Y-99726151D01*
X57554863Y-99746465D01*
X57478856Y-99776439D01*
X57358277Y-99867877D01*
X57266839Y-99988456D01*
X57211322Y-100129238D01*
X57207169Y-100163825D01*
X57200700Y-100217698D01*
X57200700Y-101003902D01*
X57205750Y-101045955D01*
X57211322Y-101092361D01*
X57211322Y-101092363D01*
X57211323Y-101092364D01*
X57215950Y-101104097D01*
X57266839Y-101233143D01*
X57358277Y-101353722D01*
X57478856Y-101445160D01*
X57478857Y-101445160D01*
X57478858Y-101445161D01*
X57619636Y-101500677D01*
X57708098Y-101511300D01*
X57708103Y-101511300D01*
X58694297Y-101511300D01*
X58694302Y-101511300D01*
X58782764Y-101500677D01*
X58923542Y-101445161D01*
X59044122Y-101353722D01*
X59135561Y-101233142D01*
X59172367Y-101139808D01*
X59185275Y-101123218D01*
X59194008Y-101104097D01*
X59206299Y-101096197D01*
X59215272Y-101084666D01*
X59235101Y-101077687D01*
X59252786Y-101066323D01*
X59277492Y-101062770D01*
X59281180Y-101061473D01*
X59287721Y-101061300D01*
X59400679Y-101061300D01*
X59467718Y-101080985D01*
X59513473Y-101133789D01*
X59516025Y-101139790D01*
X59526703Y-101166866D01*
X59552839Y-101233143D01*
X59644277Y-101353722D01*
X59764856Y-101445160D01*
X59764857Y-101445160D01*
X59764858Y-101445161D01*
X59905636Y-101500677D01*
X59994098Y-101511300D01*
X59994103Y-101511300D01*
X60980297Y-101511300D01*
X60980302Y-101511300D01*
X61068764Y-101500677D01*
X61209542Y-101445161D01*
X61330122Y-101353722D01*
X61421561Y-101233142D01*
X61477077Y-101092364D01*
X61487700Y-101003902D01*
X61487700Y-100217698D01*
X61477077Y-100129236D01*
X61421561Y-99988458D01*
X61421560Y-99988457D01*
X61421560Y-99988456D01*
X61330122Y-99867877D01*
X61209543Y-99776439D01*
X61171539Y-99761452D01*
X61082026Y-99726153D01*
X61026885Y-99683249D01*
X61003692Y-99617341D01*
X61019812Y-99549357D01*
X61070129Y-99500880D01*
X61082014Y-99495451D01*
X61209542Y-99445161D01*
X61330122Y-99353722D01*
X61421561Y-99233142D01*
X61477077Y-99092364D01*
X61487700Y-99003902D01*
X61487700Y-98217698D01*
X61477077Y-98129236D01*
X61421561Y-97988458D01*
X61421560Y-97988457D01*
X61421560Y-97988456D01*
X61330122Y-97867877D01*
X61209543Y-97776439D01*
X61068761Y-97720922D01*
X61023126Y-97715442D01*
X60980302Y-97710300D01*
X59994098Y-97710300D01*
X59955053Y-97714988D01*
X59905638Y-97720922D01*
X59764856Y-97776439D01*
X59644277Y-97867877D01*
X59552839Y-97988456D01*
X59497322Y-98129238D01*
X59492796Y-98166930D01*
X59486700Y-98217698D01*
X59486700Y-99003902D01*
X59492210Y-99049787D01*
X59497322Y-99092361D01*
X59497322Y-99092363D01*
X59497323Y-99092364D01*
X59508340Y-99120300D01*
X59552839Y-99233143D01*
X59644277Y-99353722D01*
X59764856Y-99445160D01*
X59764857Y-99445160D01*
X59764858Y-99445161D01*
X59892371Y-99495446D01*
X59947514Y-99538351D01*
X59970707Y-99604259D01*
X59954586Y-99672244D01*
X59904270Y-99720720D01*
X59892378Y-99726151D01*
X59840863Y-99746465D01*
X59764856Y-99776439D01*
X59644277Y-99867877D01*
X59552839Y-99988456D01*
X59543623Y-100011828D01*
X59516032Y-100081791D01*
X59503124Y-100098381D01*
X59494392Y-100117503D01*
X59482100Y-100125402D01*
X59473128Y-100136934D01*
X59453298Y-100143912D01*
X59435614Y-100155277D01*
X59410907Y-100158829D01*
X59407220Y-100160127D01*
X59400679Y-100160300D01*
X59287721Y-100160300D01*
X59220682Y-100140615D01*
X59174927Y-100087811D01*
X59172374Y-100081809D01*
X59135561Y-99988458D01*
X59135560Y-99988457D01*
X59135560Y-99988456D01*
X59044122Y-99867877D01*
X58923543Y-99776439D01*
X58885539Y-99761452D01*
X58796026Y-99726153D01*
X58740885Y-99683249D01*
X58717692Y-99617341D01*
X58733812Y-99549357D01*
X58784129Y-99500880D01*
X58796014Y-99495451D01*
X58923542Y-99445161D01*
X59044122Y-99353722D01*
X59135561Y-99233142D01*
X59191077Y-99092364D01*
X59201700Y-99003902D01*
X59201700Y-98217698D01*
X59191077Y-98129236D01*
X59135561Y-97988458D01*
X59135560Y-97988457D01*
X59135560Y-97988456D01*
X59044122Y-97867877D01*
X58923543Y-97776439D01*
X58782761Y-97720922D01*
X58737126Y-97715442D01*
X58694302Y-97710300D01*
X57708098Y-97710300D01*
X57669053Y-97714988D01*
X57619638Y-97720922D01*
X57478856Y-97776439D01*
X57358277Y-97867877D01*
X57266839Y-97988456D01*
X57256529Y-98014601D01*
X57230032Y-98081791D01*
X57217124Y-98098381D01*
X57208392Y-98117503D01*
X57196100Y-98125402D01*
X57187128Y-98136934D01*
X57167298Y-98143912D01*
X57149614Y-98155277D01*
X57124907Y-98158829D01*
X57121220Y-98160127D01*
X57114679Y-98160300D01*
X57001721Y-98160300D01*
X56934682Y-98140615D01*
X56888927Y-98087811D01*
X56886374Y-98081809D01*
X56849561Y-97988458D01*
X56849560Y-97988457D01*
X56849560Y-97988456D01*
X56758122Y-97867877D01*
X56637543Y-97776439D01*
X56496761Y-97720922D01*
X56451126Y-97715442D01*
X56408302Y-97710300D01*
X55422098Y-97710300D01*
X55383053Y-97714988D01*
X55333638Y-97720922D01*
X55192856Y-97776439D01*
X55072277Y-97867877D01*
X54980839Y-97988456D01*
X54925322Y-98129238D01*
X54920796Y-98166930D01*
X54914700Y-98217698D01*
X54914700Y-99003902D01*
X54920210Y-99049787D01*
X54925322Y-99092361D01*
X54925322Y-99092363D01*
X54925323Y-99092364D01*
X54936340Y-99120300D01*
X54980839Y-99233143D01*
X55072277Y-99353722D01*
X55192856Y-99445160D01*
X55192857Y-99445160D01*
X55192858Y-99445161D01*
X55320371Y-99495446D01*
X55375514Y-99538351D01*
X55398707Y-99604259D01*
X55382586Y-99672244D01*
X55332270Y-99720720D01*
X55320378Y-99726151D01*
X55268863Y-99746465D01*
X55192856Y-99776439D01*
X55072277Y-99867877D01*
X54980839Y-99988456D01*
X54971623Y-100011828D01*
X54944032Y-100081791D01*
X54931124Y-100098381D01*
X54922392Y-100117503D01*
X54910100Y-100125402D01*
X54901128Y-100136934D01*
X54881298Y-100143912D01*
X54863614Y-100155277D01*
X54838907Y-100158829D01*
X54835220Y-100160127D01*
X54828679Y-100160300D01*
X54715721Y-100160300D01*
X54648682Y-100140615D01*
X54602927Y-100087811D01*
X54600374Y-100081809D01*
X54563561Y-99988458D01*
X54563560Y-99988457D01*
X54563560Y-99988456D01*
X54472122Y-99867877D01*
X54351543Y-99776439D01*
X54313539Y-99761452D01*
X54224026Y-99726153D01*
X54168885Y-99683249D01*
X54145692Y-99617341D01*
X54161812Y-99549357D01*
X54212129Y-99500880D01*
X54224014Y-99495451D01*
X54351542Y-99445161D01*
X54472122Y-99353722D01*
X54563561Y-99233142D01*
X54619077Y-99092364D01*
X54629700Y-99003902D01*
X54629700Y-98217698D01*
X54619077Y-98129236D01*
X54563561Y-97988458D01*
X54563560Y-97988457D01*
X54563560Y-97988456D01*
X54472122Y-97867877D01*
X54351543Y-97776439D01*
X54210761Y-97720922D01*
X54165126Y-97715442D01*
X54122302Y-97710300D01*
X53136098Y-97710300D01*
X53097053Y-97714988D01*
X53047638Y-97720922D01*
X52906856Y-97776439D01*
X52786277Y-97867877D01*
X52694839Y-97988456D01*
X52684529Y-98014601D01*
X52658032Y-98081791D01*
X52645124Y-98098381D01*
X52636392Y-98117503D01*
X52624100Y-98125402D01*
X52615128Y-98136934D01*
X52595298Y-98143912D01*
X52577614Y-98155277D01*
X52552907Y-98158829D01*
X52549220Y-98160127D01*
X52542679Y-98160300D01*
X52429721Y-98160300D01*
X52362682Y-98140615D01*
X52316927Y-98087811D01*
X52314374Y-98081809D01*
X52277561Y-97988458D01*
X52277560Y-97988457D01*
X52277560Y-97988456D01*
X52186122Y-97867877D01*
X52065543Y-97776439D01*
X51924761Y-97720922D01*
X51879126Y-97715442D01*
X51836302Y-97710300D01*
X50850098Y-97710300D01*
X50811053Y-97714988D01*
X50761638Y-97720922D01*
X50620856Y-97776439D01*
X50500277Y-97867877D01*
X50408839Y-97988456D01*
X50353322Y-98129238D01*
X50348796Y-98166930D01*
X50342700Y-98217698D01*
X50342700Y-99003902D01*
X50348210Y-99049787D01*
X50353322Y-99092361D01*
X50353322Y-99092363D01*
X50353323Y-99092364D01*
X50364340Y-99120300D01*
X50408839Y-99233143D01*
X50500277Y-99353722D01*
X50620856Y-99445160D01*
X50620857Y-99445160D01*
X50620858Y-99445161D01*
X50748371Y-99495446D01*
X50803514Y-99538351D01*
X50826707Y-99604259D01*
X50810586Y-99672244D01*
X50760270Y-99720720D01*
X50748378Y-99726151D01*
X50696863Y-99746465D01*
X50620856Y-99776439D01*
X50500277Y-99867877D01*
X50408839Y-99988456D01*
X50399623Y-100011828D01*
X50372032Y-100081791D01*
X50359124Y-100098381D01*
X50350392Y-100117503D01*
X50338100Y-100125402D01*
X50329128Y-100136934D01*
X50309298Y-100143912D01*
X50291614Y-100155277D01*
X50266907Y-100158829D01*
X50263220Y-100160127D01*
X50256679Y-100160300D01*
X50143721Y-100160300D01*
X50076682Y-100140615D01*
X50030927Y-100087811D01*
X50028374Y-100081809D01*
X49991561Y-99988458D01*
X49991560Y-99988457D01*
X49991560Y-99988456D01*
X49900122Y-99867877D01*
X49779543Y-99776439D01*
X49741539Y-99761452D01*
X49652026Y-99726153D01*
X49596885Y-99683249D01*
X49573692Y-99617341D01*
X49589812Y-99549357D01*
X49640129Y-99500880D01*
X49652014Y-99495451D01*
X49779542Y-99445161D01*
X49900122Y-99353722D01*
X49991561Y-99233142D01*
X50047077Y-99092364D01*
X50057700Y-99003902D01*
X50057700Y-98217698D01*
X50047077Y-98129236D01*
X49991561Y-97988458D01*
X49991560Y-97988457D01*
X49991560Y-97988456D01*
X49900122Y-97867877D01*
X49779543Y-97776439D01*
X49638761Y-97720922D01*
X49593126Y-97715442D01*
X49550302Y-97710300D01*
X49550297Y-97710300D01*
X48845165Y-97710300D01*
X48778126Y-97690615D01*
X48757484Y-97673981D01*
X48517316Y-97433813D01*
X48517314Y-97433811D01*
X48465950Y-97404156D01*
X48414588Y-97374501D01*
X48402480Y-97371257D01*
X48390373Y-97368013D01*
X48390370Y-97368012D01*
X48337598Y-97353872D01*
X48300009Y-97343800D01*
X48300008Y-97343800D01*
X48158164Y-97343800D01*
X48091125Y-97324115D01*
X48045370Y-97271311D01*
X48035426Y-97202153D01*
X48064451Y-97138597D01*
X48070483Y-97132119D01*
X48902944Y-96299658D01*
X49912441Y-95290162D01*
X49963330Y-95202019D01*
X50013898Y-95153805D01*
X50070717Y-95140021D01*
X51375452Y-95140021D01*
X51442491Y-95159706D01*
X51488246Y-95212510D01*
X51499452Y-95264021D01*
X51499452Y-95997123D01*
X51504574Y-96039773D01*
X51510074Y-96085582D01*
X51565591Y-96226364D01*
X51657029Y-96346943D01*
X51777608Y-96438381D01*
X51777609Y-96438381D01*
X51777610Y-96438382D01*
X51918388Y-96493898D01*
X52006850Y-96504521D01*
X52006855Y-96504521D01*
X53193049Y-96504521D01*
X53193054Y-96504521D01*
X53281516Y-96493898D01*
X53422294Y-96438382D01*
X53542874Y-96346943D01*
X53634313Y-96226363D01*
X53689829Y-96085585D01*
X53700452Y-95997123D01*
X53700452Y-94710919D01*
X53689829Y-94622457D01*
X53634313Y-94481679D01*
X53634312Y-94481678D01*
X53634312Y-94481677D01*
X53542874Y-94361098D01*
X53422295Y-94269660D01*
X53295095Y-94219499D01*
X53281516Y-94214144D01*
X53281515Y-94214143D01*
X53281513Y-94214143D01*
X53235878Y-94208663D01*
X53193054Y-94203521D01*
X52006850Y-94203521D01*
X51973665Y-94207506D01*
X51918388Y-94214143D01*
X51892439Y-94224377D01*
X51877229Y-94230375D01*
X51831739Y-94239021D01*
X50945700Y-94239021D01*
X50878661Y-94219336D01*
X50832906Y-94166532D01*
X50821700Y-94115021D01*
X50821700Y-93276203D01*
X50821700Y-93276198D01*
X50811077Y-93187736D01*
X50755561Y-93046958D01*
X50755560Y-93046957D01*
X50755560Y-93046956D01*
X50664122Y-92926377D01*
X50543543Y-92834939D01*
X50439817Y-92794035D01*
X50402764Y-92779423D01*
X50402763Y-92779422D01*
X50402761Y-92779422D01*
X50356738Y-92773896D01*
X50314302Y-92768800D01*
X50314297Y-92768800D01*
X49394696Y-92768800D01*
X49327657Y-92749115D01*
X49307015Y-92732481D01*
X47058019Y-90483485D01*
X47043315Y-90456557D01*
X47026723Y-90430739D01*
X47025831Y-90424538D01*
X47024534Y-90422162D01*
X47021700Y-90395804D01*
X47021700Y-90151198D01*
X48420700Y-90151198D01*
X48420700Y-91062402D01*
X48425042Y-91098560D01*
X48431322Y-91150861D01*
X48431322Y-91150863D01*
X48431323Y-91150864D01*
X48433799Y-91157142D01*
X48486839Y-91291643D01*
X48578277Y-91412222D01*
X48698856Y-91503660D01*
X48698857Y-91503660D01*
X48698858Y-91503661D01*
X48839636Y-91559177D01*
X48928098Y-91569800D01*
X48928103Y-91569800D01*
X50314297Y-91569800D01*
X50314302Y-91569800D01*
X50402764Y-91559177D01*
X50543542Y-91503661D01*
X50664122Y-91412222D01*
X50755561Y-91291642D01*
X50811077Y-91150864D01*
X50821700Y-91062402D01*
X50821700Y-90151198D01*
X50811077Y-90062736D01*
X50755561Y-89921958D01*
X50744556Y-89907446D01*
X50719733Y-89842136D01*
X50734160Y-89773772D01*
X50783257Y-89724061D01*
X50843360Y-89708521D01*
X51375452Y-89708521D01*
X51442491Y-89728206D01*
X51488246Y-89781010D01*
X51499452Y-89832521D01*
X51499452Y-89901123D01*
X51504118Y-89939975D01*
X51510074Y-89989582D01*
X51510074Y-89989584D01*
X51510075Y-89989585D01*
X51519443Y-90013341D01*
X51565591Y-90130364D01*
X51657029Y-90250943D01*
X51777608Y-90342381D01*
X51777609Y-90342381D01*
X51777610Y-90342382D01*
X51918388Y-90397898D01*
X52006850Y-90408521D01*
X52025452Y-90408521D01*
X52092491Y-90428206D01*
X52138246Y-90481010D01*
X52149452Y-90532521D01*
X52149452Y-91031521D01*
X52129767Y-91098560D01*
X52076963Y-91144315D01*
X52025452Y-91155521D01*
X52006850Y-91155521D01*
X51967805Y-91160209D01*
X51918390Y-91166143D01*
X51777608Y-91221660D01*
X51657029Y-91313098D01*
X51565591Y-91433677D01*
X51510074Y-91574459D01*
X51507478Y-91596083D01*
X51499452Y-91662919D01*
X51499452Y-92949123D01*
X51502589Y-92975245D01*
X51510074Y-93037582D01*
X51510074Y-93037584D01*
X51510075Y-93037585D01*
X51513771Y-93046958D01*
X51565591Y-93178364D01*
X51657029Y-93298943D01*
X51777608Y-93390381D01*
X51777609Y-93390381D01*
X51777610Y-93390382D01*
X51918388Y-93445898D01*
X52006850Y-93456521D01*
X52006855Y-93456521D01*
X53193049Y-93456521D01*
X53193054Y-93456521D01*
X53281516Y-93445898D01*
X53422294Y-93390382D01*
X53542874Y-93298943D01*
X53634313Y-93178363D01*
X53689829Y-93037585D01*
X53700452Y-92949123D01*
X53700452Y-91662919D01*
X55419452Y-91662919D01*
X55419452Y-92949123D01*
X55422589Y-92975245D01*
X55430074Y-93037582D01*
X55430074Y-93037584D01*
X55430075Y-93037585D01*
X55433771Y-93046958D01*
X55485591Y-93178364D01*
X55577029Y-93298943D01*
X55697608Y-93390381D01*
X55697609Y-93390381D01*
X55697610Y-93390382D01*
X55838388Y-93445898D01*
X55926850Y-93456521D01*
X55945452Y-93456521D01*
X56012491Y-93476206D01*
X56058246Y-93529010D01*
X56069452Y-93580521D01*
X56069452Y-94079521D01*
X56049767Y-94146560D01*
X55996963Y-94192315D01*
X55945452Y-94203521D01*
X55926850Y-94203521D01*
X55887805Y-94208209D01*
X55838390Y-94214143D01*
X55697608Y-94269660D01*
X55577029Y-94361098D01*
X55485591Y-94481677D01*
X55430074Y-94622459D01*
X55424140Y-94671874D01*
X55419452Y-94710919D01*
X55419452Y-95997123D01*
X55424574Y-96039773D01*
X55430074Y-96085582D01*
X55485591Y-96226364D01*
X55577029Y-96346943D01*
X55697608Y-96438381D01*
X55697609Y-96438381D01*
X55697610Y-96438382D01*
X55838388Y-96493898D01*
X55926850Y-96504521D01*
X55926855Y-96504521D01*
X57113049Y-96504521D01*
X57113054Y-96504521D01*
X57201516Y-96493898D01*
X57342294Y-96438382D01*
X57462874Y-96346943D01*
X57554313Y-96226363D01*
X57609829Y-96085585D01*
X57620452Y-95997123D01*
X57620452Y-95928521D01*
X57640137Y-95861482D01*
X57692941Y-95815727D01*
X57744452Y-95804521D01*
X58031760Y-95804521D01*
X58031761Y-95804521D01*
X58121506Y-95780473D01*
X58122118Y-95780309D01*
X58122119Y-95780308D01*
X58122125Y-95780307D01*
X58146339Y-95773820D01*
X58249066Y-95714510D01*
X59165468Y-94798106D01*
X59226789Y-94764623D01*
X59267930Y-94762673D01*
X59348098Y-94772300D01*
X59348103Y-94772300D01*
X60734297Y-94772300D01*
X60734302Y-94772300D01*
X60822764Y-94761677D01*
X60963542Y-94706161D01*
X61084122Y-94614722D01*
X61175561Y-94494142D01*
X61231077Y-94353364D01*
X61241700Y-94264902D01*
X61241700Y-93353698D01*
X61231077Y-93265236D01*
X61175561Y-93124458D01*
X61175560Y-93124457D01*
X61175560Y-93124456D01*
X61084122Y-93003877D01*
X60963543Y-92912439D01*
X60863314Y-92872914D01*
X60822764Y-92856923D01*
X60822763Y-92856922D01*
X60822761Y-92856922D01*
X60777126Y-92851442D01*
X60734302Y-92846300D01*
X59348098Y-92846300D01*
X59309053Y-92850988D01*
X59259638Y-92856922D01*
X59118856Y-92912439D01*
X58998277Y-93003877D01*
X58906839Y-93124456D01*
X58851322Y-93265238D01*
X58846119Y-93308573D01*
X58840700Y-93353698D01*
X58840700Y-93353703D01*
X58840700Y-93797308D01*
X58821015Y-93864347D01*
X58804381Y-93884989D01*
X57832133Y-94857237D01*
X57770810Y-94890722D01*
X57701118Y-94885738D01*
X57645185Y-94843866D01*
X57620768Y-94778402D01*
X57620452Y-94769556D01*
X57620452Y-94710924D01*
X57620452Y-94710919D01*
X57609829Y-94622457D01*
X57554313Y-94481679D01*
X57554312Y-94481678D01*
X57554312Y-94481677D01*
X57462874Y-94361098D01*
X57342295Y-94269660D01*
X57215095Y-94219499D01*
X57201516Y-94214144D01*
X57201515Y-94214143D01*
X57201513Y-94214143D01*
X57155878Y-94208663D01*
X57113054Y-94203521D01*
X57113049Y-94203521D01*
X57094452Y-94203521D01*
X57027413Y-94183836D01*
X56981658Y-94131032D01*
X56970452Y-94079521D01*
X56970452Y-93580521D01*
X56990137Y-93513482D01*
X57042941Y-93467727D01*
X57094452Y-93456521D01*
X57113049Y-93456521D01*
X57113054Y-93456521D01*
X57201516Y-93445898D01*
X57342294Y-93390382D01*
X57462874Y-93298943D01*
X57554313Y-93178363D01*
X57609829Y-93037585D01*
X57620452Y-92949123D01*
X57620452Y-91662919D01*
X57609829Y-91574457D01*
X57554313Y-91433679D01*
X57554312Y-91433678D01*
X57554312Y-91433677D01*
X57462874Y-91313098D01*
X57342295Y-91221660D01*
X57201513Y-91166143D01*
X57155878Y-91160663D01*
X57113054Y-91155521D01*
X55926850Y-91155521D01*
X55887805Y-91160209D01*
X55838390Y-91166143D01*
X55697608Y-91221660D01*
X55577029Y-91313098D01*
X55485591Y-91433677D01*
X55430074Y-91574459D01*
X55427478Y-91596083D01*
X55419452Y-91662919D01*
X53700452Y-91662919D01*
X53689829Y-91574457D01*
X53634313Y-91433679D01*
X53634312Y-91433678D01*
X53634312Y-91433677D01*
X53542874Y-91313098D01*
X53422295Y-91221660D01*
X53281513Y-91166143D01*
X53235878Y-91160663D01*
X53193054Y-91155521D01*
X53193049Y-91155521D01*
X53174452Y-91155521D01*
X53107413Y-91135836D01*
X53061658Y-91083032D01*
X53050452Y-91031521D01*
X53050452Y-90532521D01*
X53070137Y-90465482D01*
X53122941Y-90419727D01*
X53174452Y-90408521D01*
X53193049Y-90408521D01*
X53193054Y-90408521D01*
X53281516Y-90397898D01*
X53422294Y-90342382D01*
X53542874Y-90250943D01*
X53634313Y-90130363D01*
X53689829Y-89989585D01*
X53700452Y-89901123D01*
X53700452Y-88614919D01*
X55419452Y-88614919D01*
X55419452Y-89901123D01*
X55424118Y-89939975D01*
X55430074Y-89989582D01*
X55430074Y-89989584D01*
X55430075Y-89989585D01*
X55439443Y-90013341D01*
X55485591Y-90130364D01*
X55577029Y-90250943D01*
X55697608Y-90342381D01*
X55697609Y-90342381D01*
X55697610Y-90342382D01*
X55838388Y-90397898D01*
X55926850Y-90408521D01*
X55926855Y-90408521D01*
X57113049Y-90408521D01*
X57113054Y-90408521D01*
X57201516Y-90397898D01*
X57342294Y-90342382D01*
X57462874Y-90250943D01*
X57554313Y-90130363D01*
X57609829Y-89989585D01*
X57609830Y-89989579D01*
X57611673Y-89974237D01*
X57639210Y-89910022D01*
X57697092Y-89870890D01*
X57734788Y-89865021D01*
X58533456Y-89865021D01*
X58600495Y-89884706D01*
X58621137Y-89901340D01*
X58809635Y-90089838D01*
X58843120Y-90151161D01*
X58845070Y-90192299D01*
X58842283Y-90215516D01*
X58840700Y-90228698D01*
X58840700Y-91139902D01*
X58844721Y-91173384D01*
X58851322Y-91228361D01*
X58851322Y-91228363D01*
X58851323Y-91228364D01*
X58852177Y-91230530D01*
X58906839Y-91369143D01*
X58998277Y-91489722D01*
X59118856Y-91581160D01*
X59118857Y-91581160D01*
X59118858Y-91581161D01*
X59259636Y-91636677D01*
X59348098Y-91647300D01*
X59348103Y-91647300D01*
X60734297Y-91647300D01*
X60734302Y-91647300D01*
X60822764Y-91636677D01*
X60963542Y-91581161D01*
X61084122Y-91489722D01*
X61175561Y-91369142D01*
X61231077Y-91228364D01*
X61241700Y-91139902D01*
X61241700Y-90388329D01*
X61261385Y-90321290D01*
X61314189Y-90275535D01*
X61365700Y-90264329D01*
X63827450Y-90264329D01*
X63894489Y-90284014D01*
X63940244Y-90336818D01*
X63950188Y-90405976D01*
X63944491Y-90429284D01*
X63909554Y-90529127D01*
X63909553Y-90529129D01*
X63906700Y-90559559D01*
X63906700Y-90968098D01*
X63909553Y-90998528D01*
X63909553Y-90998530D01*
X63954406Y-91126709D01*
X63954407Y-91126711D01*
X64035050Y-91235979D01*
X64144318Y-91316622D01*
X64167121Y-91324601D01*
X64272499Y-91361475D01*
X64302930Y-91364329D01*
X64302934Y-91364329D01*
X64372700Y-91364329D01*
X64439739Y-91384014D01*
X64485494Y-91436818D01*
X64496700Y-91488329D01*
X64496700Y-92940300D01*
X64477015Y-93007339D01*
X64424211Y-93053094D01*
X64372700Y-93064300D01*
X64302930Y-93064300D01*
X64272500Y-93067153D01*
X64272498Y-93067153D01*
X64144319Y-93112006D01*
X64144317Y-93112007D01*
X64035050Y-93192650D01*
X63954407Y-93301917D01*
X63954406Y-93301919D01*
X63909553Y-93430098D01*
X63909553Y-93430100D01*
X63906700Y-93460530D01*
X63906700Y-93869069D01*
X63909553Y-93899497D01*
X63926809Y-93948812D01*
X63930370Y-94018590D01*
X63897448Y-94077447D01*
X63164713Y-94810183D01*
X63164711Y-94810186D01*
X63105400Y-94912913D01*
X63105399Y-94912916D01*
X63098912Y-94937124D01*
X63098913Y-94937125D01*
X63088500Y-94975987D01*
X63074700Y-95027491D01*
X63074700Y-96706109D01*
X63080916Y-96729306D01*
X63098063Y-96793301D01*
X63098063Y-96793302D01*
X63105399Y-96820684D01*
X63105401Y-96820687D01*
X63164711Y-96923414D01*
X66296586Y-100055289D01*
X66368795Y-100096979D01*
X66399314Y-100114600D01*
X66414985Y-100118798D01*
X66414990Y-100118801D01*
X66414991Y-100118800D01*
X66435891Y-100124399D01*
X66513891Y-100145300D01*
X74470989Y-100145300D01*
X74538028Y-100164985D01*
X74573208Y-100199106D01*
X74579753Y-100208638D01*
X74588994Y-100229565D01*
X74605369Y-100245940D01*
X74611833Y-100255353D01*
X74619288Y-100278143D01*
X74630780Y-100299189D01*
X74629953Y-100310746D01*
X74633556Y-100321760D01*
X74627506Y-100344961D01*
X74625796Y-100368881D01*
X74618850Y-100378158D01*
X74615928Y-100389369D01*
X74598297Y-100405614D01*
X74583926Y-100424813D01*
X74484009Y-100499612D01*
X74397849Y-100614706D01*
X74397845Y-100614713D01*
X74347603Y-100749420D01*
X74347601Y-100749427D01*
X74341200Y-100808955D01*
X74341200Y-101206800D01*
X76541200Y-101206800D01*
X76541200Y-100808972D01*
X76541199Y-100808955D01*
X76534798Y-100749427D01*
X76534796Y-100749419D01*
X76515906Y-100698771D01*
X76484554Y-100614713D01*
X76484550Y-100614706D01*
X76398390Y-100499612D01*
X76298473Y-100424813D01*
X76256603Y-100368879D01*
X76251619Y-100299187D01*
X76285103Y-100237867D01*
X76293406Y-100229565D01*
X76338785Y-100126791D01*
X76341700Y-100101665D01*
X76341699Y-99608955D01*
X77441200Y-99608955D01*
X77441200Y-100206800D01*
X78441200Y-100206800D01*
X78941200Y-100206800D01*
X79941200Y-100206800D01*
X79941200Y-99608972D01*
X79941199Y-99608955D01*
X79934798Y-99549427D01*
X79934796Y-99549420D01*
X79884554Y-99414713D01*
X79884550Y-99414706D01*
X79798390Y-99299612D01*
X79798387Y-99299609D01*
X79683293Y-99213449D01*
X79683286Y-99213445D01*
X79548579Y-99163203D01*
X79548572Y-99163201D01*
X79489044Y-99156800D01*
X78941200Y-99156800D01*
X78941200Y-100206800D01*
X78441200Y-100206800D01*
X78441200Y-99156800D01*
X77893355Y-99156800D01*
X77833827Y-99163201D01*
X77833820Y-99163203D01*
X77699113Y-99213445D01*
X77699106Y-99213449D01*
X77584012Y-99299609D01*
X77584009Y-99299612D01*
X77497849Y-99414706D01*
X77497845Y-99414713D01*
X77447603Y-99549420D01*
X77447601Y-99549427D01*
X77441200Y-99608955D01*
X76341699Y-99608955D01*
X76341699Y-99450333D01*
X76341699Y-98811943D01*
X76341699Y-98811936D01*
X76341697Y-98811917D01*
X76338786Y-98786812D01*
X76338785Y-98786810D01*
X76338785Y-98786809D01*
X76293406Y-98684035D01*
X76213965Y-98604594D01*
X76161506Y-98581431D01*
X76111192Y-98559215D01*
X76086065Y-98556300D01*
X74796343Y-98556300D01*
X74796317Y-98556302D01*
X74771212Y-98559213D01*
X74771208Y-98559215D01*
X74668435Y-98604593D01*
X74588994Y-98684034D01*
X74543615Y-98786806D01*
X74543615Y-98786808D01*
X74540700Y-98811931D01*
X74540700Y-99120300D01*
X74521015Y-99187339D01*
X74468211Y-99233094D01*
X74416700Y-99244300D01*
X66811165Y-99244300D01*
X66744126Y-99224615D01*
X66723484Y-99207981D01*
X64568833Y-97053330D01*
X69370700Y-97053330D01*
X69370700Y-97260269D01*
X69411068Y-97463212D01*
X69411070Y-97463220D01*
X69488211Y-97649455D01*
X69490259Y-97654398D01*
X69518395Y-97696507D01*
X69605224Y-97826457D01*
X69751542Y-97972775D01*
X69751545Y-97972777D01*
X69923602Y-98087741D01*
X70114780Y-98166930D01*
X70224161Y-98188687D01*
X70317730Y-98207299D01*
X70317734Y-98207300D01*
X70317735Y-98207300D01*
X70524666Y-98207300D01*
X70524667Y-98207299D01*
X70727620Y-98166930D01*
X70918798Y-98087741D01*
X71090855Y-97972777D01*
X71237177Y-97826455D01*
X71352141Y-97654398D01*
X71431330Y-97463220D01*
X71471700Y-97260265D01*
X71471700Y-97053335D01*
X71431330Y-96850380D01*
X71352141Y-96659202D01*
X71237177Y-96487145D01*
X71237175Y-96487142D01*
X71090857Y-96340824D01*
X71004826Y-96283341D01*
X70918798Y-96225859D01*
X70918643Y-96225795D01*
X70727620Y-96146670D01*
X70727612Y-96146668D01*
X70524669Y-96106300D01*
X70524665Y-96106300D01*
X70317735Y-96106300D01*
X70317730Y-96106300D01*
X70114787Y-96146668D01*
X70114779Y-96146670D01*
X69923603Y-96225858D01*
X69751542Y-96340824D01*
X69605224Y-96487142D01*
X69490258Y-96659203D01*
X69411070Y-96850379D01*
X69411068Y-96850387D01*
X69370700Y-97053330D01*
X64568833Y-97053330D01*
X64064393Y-96548890D01*
X64030908Y-96487567D01*
X64035892Y-96417875D01*
X64077764Y-96361942D01*
X64143228Y-96337525D01*
X64186669Y-96342133D01*
X64254704Y-96361899D01*
X64254710Y-96361900D01*
X64291550Y-96364799D01*
X64291566Y-96364800D01*
X64697200Y-96364800D01*
X65197200Y-96364800D01*
X65602834Y-96364800D01*
X65602849Y-96364799D01*
X65639689Y-96361900D01*
X65639695Y-96361899D01*
X65797393Y-96316083D01*
X65797396Y-96316082D01*
X65938752Y-96232485D01*
X65938761Y-96232478D01*
X66054878Y-96116361D01*
X66054885Y-96116352D01*
X66138481Y-95974998D01*
X66184300Y-95817286D01*
X66184495Y-95814801D01*
X66184495Y-95814800D01*
X65197200Y-95814800D01*
X65197200Y-96364800D01*
X64697200Y-96364800D01*
X64697200Y-94764800D01*
X64678433Y-94746033D01*
X64644948Y-94684710D01*
X64649932Y-94615018D01*
X64678433Y-94570671D01*
X64947485Y-94301619D01*
X65008808Y-94268134D01*
X65035166Y-94265300D01*
X65591470Y-94265300D01*
X65621899Y-94262446D01*
X65624184Y-94261647D01*
X65625979Y-94261555D01*
X65629273Y-94260836D01*
X65629392Y-94261380D01*
X65693963Y-94258083D01*
X65754591Y-94292810D01*
X65786820Y-94354803D01*
X65788601Y-94390262D01*
X65787115Y-94406115D01*
X65786700Y-94410538D01*
X65786700Y-94645851D01*
X65767015Y-94712890D01*
X65714211Y-94758645D01*
X65645053Y-94768589D01*
X65640420Y-94767833D01*
X65639691Y-94767699D01*
X65602849Y-94764800D01*
X65197200Y-94764800D01*
X65197200Y-95314800D01*
X66184495Y-95314800D01*
X66197287Y-95300961D01*
X66201555Y-95280648D01*
X66250609Y-95230893D01*
X66310807Y-95215300D01*
X67471470Y-95215300D01*
X67501899Y-95212446D01*
X67501901Y-95212446D01*
X67568047Y-95189300D01*
X67630082Y-95167593D01*
X67670465Y-95137789D01*
X67735855Y-95089530D01*
X67801484Y-95065559D01*
X67809488Y-95065300D01*
X73872700Y-95065300D01*
X73939739Y-95084985D01*
X73985494Y-95137789D01*
X73996700Y-95189300D01*
X73996700Y-95690108D01*
X74020912Y-95780472D01*
X74027400Y-95804685D01*
X74027400Y-95804686D01*
X74033240Y-95814801D01*
X74086711Y-95907414D01*
X74932586Y-96753290D01*
X75035313Y-96812599D01*
X75059526Y-96819086D01*
X75149891Y-96843300D01*
X75234436Y-96843300D01*
X75243201Y-96844558D01*
X75267256Y-96855536D01*
X75292623Y-96862985D01*
X75298540Y-96869813D01*
X75306764Y-96873567D01*
X75321066Y-96895810D01*
X75338378Y-96915789D01*
X75341845Y-96928126D01*
X75344552Y-96932336D01*
X75344553Y-96937763D01*
X75348700Y-96952518D01*
X75351322Y-96974361D01*
X75406839Y-97115143D01*
X75498277Y-97235722D01*
X75618856Y-97327160D01*
X75618857Y-97327160D01*
X75618858Y-97327161D01*
X75759636Y-97382677D01*
X75848098Y-97393300D01*
X75848103Y-97393300D01*
X76634297Y-97393300D01*
X76634302Y-97393300D01*
X76722764Y-97382677D01*
X76863542Y-97327161D01*
X76984122Y-97235722D01*
X77075561Y-97115142D01*
X77125846Y-96987626D01*
X77168751Y-96932485D01*
X77234659Y-96909292D01*
X77302643Y-96925412D01*
X77351120Y-96975729D01*
X77356548Y-96987614D01*
X77391852Y-97077139D01*
X77406839Y-97115143D01*
X77498277Y-97235722D01*
X77618856Y-97327160D01*
X77618857Y-97327160D01*
X77618858Y-97327161D01*
X77759636Y-97382677D01*
X77848098Y-97393300D01*
X77848103Y-97393300D01*
X78634297Y-97393300D01*
X78634302Y-97393300D01*
X78722764Y-97382677D01*
X78863542Y-97327161D01*
X78984122Y-97235722D01*
X79075561Y-97115142D01*
X79131077Y-96974364D01*
X79141700Y-96885902D01*
X79141700Y-95899698D01*
X79131077Y-95811236D01*
X79075561Y-95670458D01*
X79075560Y-95670457D01*
X79075560Y-95670456D01*
X78984122Y-95549877D01*
X78863543Y-95458439D01*
X78722761Y-95402922D01*
X78677126Y-95397442D01*
X78634302Y-95392300D01*
X77848098Y-95392300D01*
X77809053Y-95396988D01*
X77759638Y-95402922D01*
X77618856Y-95458439D01*
X77498277Y-95549877D01*
X77406839Y-95670456D01*
X77379553Y-95739650D01*
X77356553Y-95797971D01*
X77313649Y-95853114D01*
X77247741Y-95876307D01*
X77179756Y-95860186D01*
X77131280Y-95809870D01*
X77125848Y-95797978D01*
X77075561Y-95670458D01*
X77075560Y-95670457D01*
X77075560Y-95670456D01*
X76984122Y-95549877D01*
X76863543Y-95458439D01*
X76722761Y-95402922D01*
X76677126Y-95397442D01*
X76634302Y-95392300D01*
X75848098Y-95392300D01*
X75809053Y-95396988D01*
X75759638Y-95402922D01*
X75618856Y-95458439D01*
X75498277Y-95549877D01*
X75406838Y-95670458D01*
X75396188Y-95697463D01*
X75353280Y-95752605D01*
X75287372Y-95775797D01*
X75219388Y-95759673D01*
X75193154Y-95739650D01*
X74934019Y-95480515D01*
X74900534Y-95419192D01*
X74897700Y-95392834D01*
X74897700Y-94709300D01*
X74917385Y-94642261D01*
X74970189Y-94596506D01*
X75021700Y-94585300D01*
X75350470Y-94585300D01*
X75380899Y-94582446D01*
X75380901Y-94582446D01*
X75444990Y-94560019D01*
X75509082Y-94537593D01*
X75618350Y-94456950D01*
X75698993Y-94347682D01*
X75724124Y-94275861D01*
X75743846Y-94219501D01*
X75743846Y-94219499D01*
X75746700Y-94189069D01*
X75746700Y-93780530D01*
X75743846Y-93750100D01*
X75743846Y-93750098D01*
X75698993Y-93621919D01*
X75698992Y-93621917D01*
X75682659Y-93599787D01*
X75618350Y-93512650D01*
X75532877Y-93449568D01*
X75490628Y-93393923D01*
X75485169Y-93324267D01*
X75518236Y-93262717D01*
X75532870Y-93250036D01*
X75618350Y-93186950D01*
X75698993Y-93077682D01*
X75728815Y-92992456D01*
X75743846Y-92949501D01*
X75743846Y-92949499D01*
X75746700Y-92919069D01*
X75746700Y-92510530D01*
X75743846Y-92480100D01*
X75743846Y-92480098D01*
X75698993Y-92351919D01*
X75698992Y-92351917D01*
X75618350Y-92242650D01*
X75526102Y-92174568D01*
X75509632Y-92152875D01*
X75490504Y-92133485D01*
X75488814Y-92125456D01*
X75483854Y-92118923D01*
X75481725Y-92091768D01*
X75476117Y-92065113D01*
X75479036Y-92057446D01*
X75478395Y-92049267D01*
X75491287Y-92025268D01*
X75500979Y-91999816D01*
X75509452Y-91991456D01*
X75511462Y-91987717D01*
X75526105Y-91975030D01*
X75614855Y-91909530D01*
X75680484Y-91885559D01*
X75688488Y-91885300D01*
X76109235Y-91885300D01*
X76176274Y-91904985D01*
X76196916Y-91921619D01*
X77350586Y-93075289D01*
X77399101Y-93103299D01*
X77453314Y-93134599D01*
X77567891Y-93165300D01*
X78793912Y-93165300D01*
X78814764Y-93171423D01*
X78836454Y-93172826D01*
X78856836Y-93183776D01*
X78860951Y-93184985D01*
X78867545Y-93189530D01*
X78949520Y-93250030D01*
X78991771Y-93305677D01*
X78997230Y-93375333D01*
X78964163Y-93436883D01*
X78949521Y-93449569D01*
X78901248Y-93485197D01*
X78864050Y-93512650D01*
X78783407Y-93621917D01*
X78783406Y-93621919D01*
X78738553Y-93750098D01*
X78738553Y-93750100D01*
X78735700Y-93780530D01*
X78735700Y-94189069D01*
X78738553Y-94219499D01*
X78738553Y-94219501D01*
X78783333Y-94347471D01*
X78783407Y-94347682D01*
X78864050Y-94456950D01*
X78973318Y-94537593D01*
X78986653Y-94542259D01*
X79101499Y-94582446D01*
X79131930Y-94585300D01*
X79131934Y-94585300D01*
X80590470Y-94585300D01*
X80620899Y-94582446D01*
X80620901Y-94582446D01*
X80684990Y-94560019D01*
X80749082Y-94537593D01*
X80858350Y-94456950D01*
X80938993Y-94347682D01*
X80972865Y-94250880D01*
X80983845Y-94219503D01*
X80983845Y-94219501D01*
X80983846Y-94219499D01*
X80985364Y-94203309D01*
X81011219Y-94138404D01*
X81068063Y-94097777D01*
X81137848Y-94094332D01*
X81196503Y-94127206D01*
X81812699Y-94743402D01*
X81846184Y-94804725D01*
X81841200Y-94874417D01*
X81840377Y-94876562D01*
X81839323Y-94879233D01*
X81839322Y-94879237D01*
X81834546Y-94919012D01*
X81828700Y-94967698D01*
X81828700Y-95753902D01*
X81831871Y-95780306D01*
X81839322Y-95842361D01*
X81839322Y-95842363D01*
X81839323Y-95842364D01*
X81856922Y-95886992D01*
X81894839Y-95983143D01*
X81986277Y-96103722D01*
X82106856Y-96195160D01*
X82106857Y-96195160D01*
X82106858Y-96195161D01*
X82247636Y-96250677D01*
X82336098Y-96261300D01*
X82336103Y-96261300D01*
X83322297Y-96261300D01*
X83322302Y-96261300D01*
X83410764Y-96250677D01*
X83551542Y-96195161D01*
X83672122Y-96103722D01*
X83763561Y-95983142D01*
X83819077Y-95842364D01*
X83829700Y-95753902D01*
X83829700Y-94967698D01*
X83819077Y-94879236D01*
X83763561Y-94738458D01*
X83763560Y-94738457D01*
X83763560Y-94738456D01*
X83672122Y-94617877D01*
X83551543Y-94526439D01*
X83496872Y-94504880D01*
X83424026Y-94476153D01*
X83368885Y-94433249D01*
X83345692Y-94367341D01*
X83361812Y-94299357D01*
X83412129Y-94250880D01*
X83424014Y-94245451D01*
X83551542Y-94195161D01*
X83672122Y-94103722D01*
X83763561Y-93983142D01*
X83819077Y-93842364D01*
X83829700Y-93753902D01*
X83829700Y-92967698D01*
X83819077Y-92879236D01*
X83763561Y-92738458D01*
X83763560Y-92738457D01*
X83763560Y-92738456D01*
X83672122Y-92617877D01*
X83551543Y-92526439D01*
X83478536Y-92497649D01*
X83410764Y-92470923D01*
X83410762Y-92470922D01*
X83410758Y-92470921D01*
X83388914Y-92468298D01*
X83324700Y-92440760D01*
X83285568Y-92382877D01*
X83279700Y-92345183D01*
X83279700Y-91550416D01*
X83299385Y-91483377D01*
X83352189Y-91437622D01*
X83388915Y-91427300D01*
X83410764Y-91424677D01*
X83551542Y-91369161D01*
X83672122Y-91277722D01*
X83763561Y-91157142D01*
X83819077Y-91016364D01*
X83829700Y-90927902D01*
X83829700Y-90141698D01*
X83819077Y-90053236D01*
X83763561Y-89912458D01*
X83763560Y-89912457D01*
X83763560Y-89912456D01*
X83672122Y-89791877D01*
X83551543Y-89700439D01*
X83496872Y-89678880D01*
X83424026Y-89650153D01*
X83368885Y-89607249D01*
X83345692Y-89541341D01*
X83361812Y-89473357D01*
X83412129Y-89424880D01*
X83424014Y-89419451D01*
X83551542Y-89369161D01*
X83672122Y-89277722D01*
X83763561Y-89157142D01*
X83819077Y-89016364D01*
X83829700Y-88927902D01*
X83829700Y-88141698D01*
X83819077Y-88053236D01*
X83763561Y-87912458D01*
X83763560Y-87912457D01*
X83763560Y-87912456D01*
X83672122Y-87791877D01*
X83551543Y-87700439D01*
X83410761Y-87644922D01*
X83358276Y-87638620D01*
X83322302Y-87634300D01*
X82347165Y-87634300D01*
X82280126Y-87614615D01*
X82259484Y-87597981D01*
X81803816Y-87142313D01*
X81803814Y-87142311D01*
X81752450Y-87112656D01*
X81701088Y-87083001D01*
X81688980Y-87079757D01*
X81676873Y-87076513D01*
X81676870Y-87076512D01*
X81638678Y-87066278D01*
X81586509Y-87052300D01*
X81586508Y-87052300D01*
X79807087Y-87052300D01*
X79740048Y-87032615D01*
X79694293Y-86979811D01*
X79684349Y-86910653D01*
X79713374Y-86847097D01*
X79719406Y-86840619D01*
X79994406Y-86565619D01*
X80055729Y-86532134D01*
X80082087Y-86529300D01*
X87121813Y-86529300D01*
X87188852Y-86548985D01*
X87209494Y-86565619D01*
X90408494Y-89764619D01*
X90441979Y-89825942D01*
X90436995Y-89895634D01*
X90395123Y-89951567D01*
X90329659Y-89975984D01*
X90320814Y-89976300D01*
X90178344Y-89976300D01*
X90178317Y-89976302D01*
X90153212Y-89979213D01*
X90153208Y-89979215D01*
X90050435Y-90024593D01*
X89970994Y-90104034D01*
X89925615Y-90206806D01*
X89925615Y-90206808D01*
X89922700Y-90231931D01*
X89922700Y-93271656D01*
X89922702Y-93271682D01*
X89925613Y-93296787D01*
X89925615Y-93296791D01*
X89970993Y-93399564D01*
X89970994Y-93399565D01*
X90050435Y-93479006D01*
X90153209Y-93524385D01*
X90178335Y-93527300D01*
X91398700Y-93527299D01*
X91465739Y-93546984D01*
X91511494Y-93599787D01*
X91522700Y-93651299D01*
X91522700Y-97343880D01*
X91503015Y-97410919D01*
X91450211Y-97456674D01*
X91418102Y-97466353D01*
X91399832Y-97469247D01*
X91175205Y-97542233D01*
X90964766Y-97649457D01*
X90900008Y-97696507D01*
X90773690Y-97788283D01*
X90773688Y-97788285D01*
X90773687Y-97788285D01*
X90606685Y-97955287D01*
X90606685Y-97955288D01*
X90606683Y-97955290D01*
X90571004Y-98004398D01*
X90467857Y-98146366D01*
X90361685Y-98354741D01*
X90313710Y-98405537D01*
X90245889Y-98422332D01*
X90179754Y-98399795D01*
X90140715Y-98354741D01*
X90087297Y-98249902D01*
X90034543Y-98146367D01*
X89895717Y-97955290D01*
X89728710Y-97788283D01*
X89537633Y-97649457D01*
X89491402Y-97625901D01*
X89327196Y-97542233D01*
X89102568Y-97469246D01*
X88869297Y-97432300D01*
X88869292Y-97432300D01*
X88633108Y-97432300D01*
X88633103Y-97432300D01*
X88399831Y-97469246D01*
X88175203Y-97542233D01*
X87964766Y-97649457D01*
X87900008Y-97696507D01*
X87773690Y-97788283D01*
X87773688Y-97788285D01*
X87773687Y-97788285D01*
X87606685Y-97955287D01*
X87606685Y-97955288D01*
X87606683Y-97955290D01*
X87571004Y-98004398D01*
X87467857Y-98146366D01*
X87360633Y-98356803D01*
X87287646Y-98581431D01*
X87250700Y-98814702D01*
X87250700Y-99050897D01*
X87287646Y-99284168D01*
X87360633Y-99508796D01*
X87426107Y-99637294D01*
X87467857Y-99719233D01*
X87606683Y-99910310D01*
X87773690Y-100077317D01*
X87964767Y-100216143D01*
X88022346Y-100245481D01*
X88175203Y-100323366D01*
X88175205Y-100323366D01*
X88175208Y-100323368D01*
X88251941Y-100348300D01*
X88399831Y-100396353D01*
X88633103Y-100433300D01*
X88633108Y-100433300D01*
X88869297Y-100433300D01*
X89102568Y-100396353D01*
X89158566Y-100378158D01*
X89327192Y-100323368D01*
X89537633Y-100216143D01*
X89728710Y-100077317D01*
X89895717Y-99910310D01*
X90034543Y-99719233D01*
X90140715Y-99510857D01*
X90188689Y-99460062D01*
X90256510Y-99443267D01*
X90322645Y-99465804D01*
X90361684Y-99510857D01*
X90467857Y-99719233D01*
X90606683Y-99910310D01*
X90773690Y-100077317D01*
X90964767Y-100216143D01*
X91022346Y-100245481D01*
X91175203Y-100323366D01*
X91175205Y-100323366D01*
X91175208Y-100323368D01*
X91251941Y-100348300D01*
X91399831Y-100396353D01*
X91633103Y-100433300D01*
X91633108Y-100433300D01*
X91869297Y-100433300D01*
X92102568Y-100396353D01*
X92158566Y-100378158D01*
X92327192Y-100323368D01*
X92537633Y-100216143D01*
X92728710Y-100077317D01*
X92895717Y-99910310D01*
X93034543Y-99719233D01*
X93141768Y-99508792D01*
X93154703Y-99468979D01*
X93194141Y-99411306D01*
X93258500Y-99384108D01*
X93272634Y-99383300D01*
X99009375Y-99383300D01*
X99009376Y-99383300D01*
X99099740Y-99359086D01*
X99123954Y-99352599D01*
X99226681Y-99293289D01*
X99673236Y-98846734D01*
X100836146Y-98846734D01*
X100836146Y-99896721D01*
X101886146Y-99896721D01*
X102386146Y-99896721D01*
X103436145Y-99896721D01*
X103436145Y-98846749D01*
X103436144Y-98846734D01*
X103425651Y-98744023D01*
X103370504Y-98577601D01*
X103370502Y-98577596D01*
X103278461Y-98428375D01*
X103154491Y-98304405D01*
X103005270Y-98212364D01*
X103005265Y-98212362D01*
X102838843Y-98157215D01*
X102838836Y-98157214D01*
X102736132Y-98146721D01*
X102386146Y-98146721D01*
X102386146Y-99896721D01*
X101886146Y-99896721D01*
X101886146Y-98146721D01*
X101536174Y-98146721D01*
X101536158Y-98146722D01*
X101433448Y-98157215D01*
X101267026Y-98212362D01*
X101267021Y-98212364D01*
X101117800Y-98304405D01*
X100993830Y-98428375D01*
X100901789Y-98577596D01*
X100901787Y-98577601D01*
X100846640Y-98744023D01*
X100846639Y-98744030D01*
X100836146Y-98846734D01*
X99673236Y-98846734D01*
X101081000Y-97438968D01*
X101142321Y-97405485D01*
X101212013Y-97410469D01*
X101243605Y-97427848D01*
X101313802Y-97481081D01*
X101313803Y-97481081D01*
X101313804Y-97481082D01*
X101454582Y-97536598D01*
X101543044Y-97547221D01*
X101543049Y-97547221D01*
X102729243Y-97547221D01*
X102729248Y-97547221D01*
X102817710Y-97536598D01*
X102958488Y-97481082D01*
X103079068Y-97389643D01*
X103170507Y-97269063D01*
X103226023Y-97128285D01*
X103236646Y-97039823D01*
X103236646Y-94453619D01*
X103226023Y-94365157D01*
X103170507Y-94224379D01*
X103170506Y-94224378D01*
X103170506Y-94224377D01*
X103079068Y-94103798D01*
X102958489Y-94012360D01*
X102844222Y-93967299D01*
X102817710Y-93956844D01*
X102817709Y-93956843D01*
X102817707Y-93956843D01*
X102772072Y-93951363D01*
X102729248Y-93946221D01*
X101543044Y-93946221D01*
X101503999Y-93950909D01*
X101454584Y-93956843D01*
X101313802Y-94012360D01*
X101193223Y-94103798D01*
X101101785Y-94224377D01*
X101046268Y-94365159D01*
X101040820Y-94410534D01*
X101035646Y-94453619D01*
X101035646Y-94453624D01*
X101035646Y-96158756D01*
X101015961Y-96225795D01*
X100999327Y-96246437D01*
X98799783Y-98445981D01*
X98738460Y-98479466D01*
X98712102Y-98482300D01*
X93272634Y-98482300D01*
X93205595Y-98462615D01*
X93159840Y-98409811D01*
X93154703Y-98396619D01*
X93141766Y-98356803D01*
X93056106Y-98188687D01*
X93034543Y-98146367D01*
X92895717Y-97955290D01*
X92728710Y-97788283D01*
X92537633Y-97649457D01*
X92537632Y-97649456D01*
X92537630Y-97649455D01*
X92491404Y-97625901D01*
X92440608Y-97577926D01*
X92423700Y-97515417D01*
X92423700Y-93651299D01*
X92443385Y-93584260D01*
X92496189Y-93538505D01*
X92547700Y-93527299D01*
X93768056Y-93527299D01*
X93768064Y-93527299D01*
X93768079Y-93527297D01*
X93768082Y-93527297D01*
X93793187Y-93524386D01*
X93793188Y-93524385D01*
X93793191Y-93524385D01*
X93895965Y-93479006D01*
X93975406Y-93399565D01*
X94020785Y-93296791D01*
X94023700Y-93271665D01*
X94023699Y-90231936D01*
X94023641Y-90231436D01*
X94020786Y-90206812D01*
X94020785Y-90206810D01*
X94020785Y-90206809D01*
X93975406Y-90104035D01*
X93895965Y-90024594D01*
X93894004Y-90023728D01*
X93793192Y-89979215D01*
X93768068Y-89976300D01*
X93768065Y-89976300D01*
X92228587Y-89976300D01*
X92161548Y-89956615D01*
X92140906Y-89939981D01*
X90489905Y-88288980D01*
X90456420Y-88227657D01*
X90461404Y-88157965D01*
X90503276Y-88102032D01*
X90568740Y-88077615D01*
X90577586Y-88077299D01*
X93768056Y-88077299D01*
X93768064Y-88077299D01*
X93768079Y-88077297D01*
X93768082Y-88077297D01*
X93793187Y-88074386D01*
X93793188Y-88074385D01*
X93793191Y-88074385D01*
X93895965Y-88029006D01*
X93975406Y-87949565D01*
X94020785Y-87846791D01*
X94023700Y-87821665D01*
X94023699Y-87243184D01*
X94043383Y-87176147D01*
X94096187Y-87130392D01*
X94165346Y-87120448D01*
X94228902Y-87149473D01*
X94235380Y-87155505D01*
X99001185Y-91921310D01*
X99121521Y-91990785D01*
X99126715Y-91993784D01*
X99266725Y-92031300D01*
X100908700Y-92031300D01*
X100975739Y-92050985D01*
X101021494Y-92103789D01*
X101032700Y-92155300D01*
X101032700Y-92773902D01*
X101034224Y-92786589D01*
X101043322Y-92862361D01*
X101043322Y-92862363D01*
X101043323Y-92862364D01*
X101049977Y-92879238D01*
X101098839Y-93003143D01*
X101190277Y-93123722D01*
X101310856Y-93215160D01*
X101310857Y-93215160D01*
X101310858Y-93215161D01*
X101451636Y-93270677D01*
X101540098Y-93281300D01*
X101540103Y-93281300D01*
X102726297Y-93281300D01*
X102726302Y-93281300D01*
X102814764Y-93270677D01*
X102955542Y-93215161D01*
X103076122Y-93123722D01*
X103167561Y-93003142D01*
X103223077Y-92862364D01*
X103233700Y-92773902D01*
X103233700Y-92155300D01*
X103253385Y-92088261D01*
X103306189Y-92042506D01*
X103357700Y-92031300D01*
X104053813Y-92031300D01*
X104120852Y-92050985D01*
X104141494Y-92067619D01*
X104456344Y-92382469D01*
X104489829Y-92443792D01*
X104490280Y-92445958D01*
X104507618Y-92533122D01*
X104507621Y-92533132D01*
X104560421Y-92660604D01*
X104560428Y-92660617D01*
X104637085Y-92775341D01*
X104637088Y-92775345D01*
X104734654Y-92872911D01*
X104734658Y-92872914D01*
X104849382Y-92949571D01*
X104849395Y-92949578D01*
X104951356Y-92991811D01*
X104976872Y-93002380D01*
X104976876Y-93002380D01*
X104976877Y-93002381D01*
X105112204Y-93029300D01*
X105112207Y-93029300D01*
X105250195Y-93029300D01*
X105341241Y-93011189D01*
X105385528Y-93002380D01*
X105513011Y-92949575D01*
X105627742Y-92872914D01*
X105725314Y-92775342D01*
X105801975Y-92660611D01*
X105854780Y-92533128D01*
X105866942Y-92471987D01*
X105881700Y-92397795D01*
X105881700Y-92259804D01*
X105854781Y-92124477D01*
X105854780Y-92124476D01*
X105854780Y-92124472D01*
X105842170Y-92094028D01*
X105801978Y-91996995D01*
X105801971Y-91996982D01*
X105725314Y-91882258D01*
X105725311Y-91882254D01*
X105627745Y-91784688D01*
X105627741Y-91784685D01*
X105513017Y-91708028D01*
X105513004Y-91708021D01*
X105385532Y-91655221D01*
X105385522Y-91655218D01*
X105298358Y-91637880D01*
X105236447Y-91605495D01*
X105234869Y-91603944D01*
X104671216Y-91040291D01*
X104671215Y-91040290D01*
X104545685Y-90967816D01*
X104545680Y-90967814D01*
X104529691Y-90963529D01*
X104529691Y-90963530D01*
X104467682Y-90946915D01*
X104405675Y-90930300D01*
X104405674Y-90930300D01*
X103357700Y-90930300D01*
X103290661Y-90910615D01*
X103244906Y-90857811D01*
X103233700Y-90806300D01*
X103233700Y-90187703D01*
X103233700Y-90187698D01*
X103223077Y-90099236D01*
X103167561Y-89958458D01*
X103167560Y-89958457D01*
X103167560Y-89958456D01*
X103076122Y-89837877D01*
X102955543Y-89746439D01*
X102831181Y-89697397D01*
X102814764Y-89690923D01*
X102814763Y-89690922D01*
X102814761Y-89690922D01*
X102769126Y-89685442D01*
X102726302Y-89680300D01*
X101540098Y-89680300D01*
X101501117Y-89684981D01*
X101451638Y-89690922D01*
X101310856Y-89746439D01*
X101190277Y-89837877D01*
X101098839Y-89958456D01*
X101043322Y-90099238D01*
X101038399Y-90140236D01*
X101032700Y-90187698D01*
X101032700Y-90187703D01*
X101032700Y-90806300D01*
X101013015Y-90873339D01*
X100960211Y-90919094D01*
X100908700Y-90930300D01*
X99618587Y-90930300D01*
X99551548Y-90910615D01*
X99530906Y-90893981D01*
X97017711Y-88380786D01*
X100833201Y-88380786D01*
X100843694Y-88483497D01*
X100898841Y-88649919D01*
X100898843Y-88649924D01*
X100990884Y-88799145D01*
X101114854Y-88923115D01*
X101264075Y-89015156D01*
X101264080Y-89015158D01*
X101430502Y-89070305D01*
X101430509Y-89070306D01*
X101533219Y-89080799D01*
X101883199Y-89080799D01*
X102383200Y-89080799D01*
X102733172Y-89080799D01*
X102733186Y-89080798D01*
X102835897Y-89070305D01*
X103002319Y-89015158D01*
X103002324Y-89015156D01*
X103114608Y-88945899D01*
X103114611Y-88945898D01*
X103151540Y-88923119D01*
X103151544Y-88923116D01*
X103275515Y-88799145D01*
X103367556Y-88649924D01*
X103367558Y-88649919D01*
X103422705Y-88483497D01*
X103422706Y-88483490D01*
X103433199Y-88380786D01*
X103433200Y-88380773D01*
X103433200Y-88202813D01*
X108278200Y-88202813D01*
X108278200Y-88602800D01*
X109349054Y-88602800D01*
X109310570Y-88669457D01*
X109278200Y-88790265D01*
X109278200Y-88915335D01*
X109310570Y-89036143D01*
X109349054Y-89102800D01*
X108278201Y-89102800D01*
X108278201Y-89502786D01*
X108288694Y-89605497D01*
X108343841Y-89771919D01*
X108343843Y-89771924D01*
X108435884Y-89921145D01*
X108559854Y-90045115D01*
X108709075Y-90137156D01*
X108709080Y-90137158D01*
X108875502Y-90192305D01*
X108875509Y-90192306D01*
X108896969Y-90194499D01*
X108961660Y-90220895D01*
X109001812Y-90278076D01*
X109004675Y-90347887D01*
X108969341Y-90408164D01*
X108957251Y-90418175D01*
X108878705Y-90475241D01*
X108878700Y-90475245D01*
X108750645Y-90603300D01*
X108750641Y-90603305D01*
X108644206Y-90749802D01*
X108561988Y-90911160D01*
X108561987Y-90911163D01*
X108506029Y-91083389D01*
X108477700Y-91262248D01*
X108477700Y-91443351D01*
X108506029Y-91622210D01*
X108561987Y-91794436D01*
X108561988Y-91794439D01*
X108611405Y-91891422D01*
X108639226Y-91946025D01*
X108644206Y-91955797D01*
X108750641Y-92102294D01*
X108750645Y-92102299D01*
X108878700Y-92230354D01*
X108878705Y-92230358D01*
X108930871Y-92268258D01*
X109025206Y-92336796D01*
X109115876Y-92382995D01*
X109186560Y-92419011D01*
X109186563Y-92419012D01*
X109262830Y-92443792D01*
X109358791Y-92474971D01*
X109383491Y-92478883D01*
X109392606Y-92480327D01*
X109455740Y-92510257D01*
X109492671Y-92569568D01*
X109491673Y-92639431D01*
X109453063Y-92697663D01*
X109392606Y-92725273D01*
X109358789Y-92730629D01*
X109186563Y-92786587D01*
X109186560Y-92786588D01*
X109025202Y-92868806D01*
X108878705Y-92975241D01*
X108878700Y-92975245D01*
X108750648Y-93103298D01*
X108750641Y-93103305D01*
X108644206Y-93249802D01*
X108561988Y-93411160D01*
X108561987Y-93411163D01*
X108506029Y-93583389D01*
X108477700Y-93762248D01*
X108477700Y-93943351D01*
X108506029Y-94122210D01*
X108561987Y-94294436D01*
X108561988Y-94294439D01*
X108615348Y-94399161D01*
X108643098Y-94453624D01*
X108644206Y-94455797D01*
X108750641Y-94602294D01*
X108750645Y-94602299D01*
X108878700Y-94730354D01*
X108878705Y-94730358D01*
X108988576Y-94810183D01*
X109025206Y-94836796D01*
X109126048Y-94888178D01*
X109186560Y-94919011D01*
X109186563Y-94919012D01*
X109242308Y-94937124D01*
X109358791Y-94974971D01*
X109441629Y-94988091D01*
X109537649Y-95003300D01*
X109537654Y-95003300D01*
X109968751Y-95003300D01*
X110060700Y-94988736D01*
X110147609Y-94974971D01*
X110147617Y-94974968D01*
X110152356Y-94973832D01*
X110152873Y-94975987D01*
X110213473Y-94974188D01*
X110269766Y-95006469D01*
X110377586Y-95114289D01*
X110377588Y-95114290D01*
X110377592Y-95114293D01*
X110422155Y-95140021D01*
X110480313Y-95173598D01*
X110594890Y-95204299D01*
X110594893Y-95204299D01*
X110713507Y-95204299D01*
X110713509Y-95204299D01*
X110795371Y-95182364D01*
X110802235Y-95180525D01*
X110834328Y-95176300D01*
X115500538Y-95176300D01*
X115567577Y-95195985D01*
X115613332Y-95248789D01*
X115615887Y-95254797D01*
X115618602Y-95261682D01*
X115642838Y-95323142D01*
X115734277Y-95443722D01*
X115854856Y-95535160D01*
X115854857Y-95535160D01*
X115854858Y-95535161D01*
X115995636Y-95590677D01*
X116084098Y-95601300D01*
X116084103Y-95601300D01*
X117070297Y-95601300D01*
X117070302Y-95601300D01*
X117158764Y-95590677D01*
X117299542Y-95535161D01*
X117420122Y-95443722D01*
X117511561Y-95323142D01*
X117567077Y-95182364D01*
X117577700Y-95093902D01*
X117577700Y-94357698D01*
X117567077Y-94269236D01*
X117511561Y-94128458D01*
X117511560Y-94128457D01*
X117511560Y-94128456D01*
X117420122Y-94007877D01*
X117299543Y-93916439D01*
X117203392Y-93878522D01*
X117158764Y-93860923D01*
X117158763Y-93860922D01*
X117158761Y-93860922D01*
X117113126Y-93855442D01*
X117070302Y-93850300D01*
X116084098Y-93850300D01*
X116045053Y-93854988D01*
X115995638Y-93860922D01*
X115854856Y-93916439D01*
X115734277Y-94007877D01*
X115642838Y-94128457D01*
X115623419Y-94177703D01*
X115619595Y-94187402D01*
X115615893Y-94196789D01*
X115572987Y-94251934D01*
X115507080Y-94275127D01*
X115500538Y-94275300D01*
X111120910Y-94275300D01*
X111053871Y-94255615D01*
X111008116Y-94202811D01*
X110998172Y-94133653D01*
X111000337Y-94122349D01*
X111000368Y-94122216D01*
X111000371Y-94122209D01*
X111012384Y-94046361D01*
X111028700Y-93943351D01*
X111028700Y-93762248D01*
X111012219Y-93658197D01*
X111000371Y-93583391D01*
X110966455Y-93479006D01*
X110944412Y-93411163D01*
X110944411Y-93411160D01*
X110915940Y-93355284D01*
X110862196Y-93249806D01*
X110848596Y-93231087D01*
X110755758Y-93103305D01*
X110755752Y-93103298D01*
X110627699Y-92975245D01*
X110627694Y-92975241D01*
X110481197Y-92868806D01*
X110481196Y-92868805D01*
X110481194Y-92868804D01*
X110414731Y-92834939D01*
X110319839Y-92786588D01*
X110319836Y-92786587D01*
X110147610Y-92730629D01*
X110113794Y-92725273D01*
X110050659Y-92695344D01*
X110013728Y-92636032D01*
X110014726Y-92566170D01*
X110053336Y-92507937D01*
X110113794Y-92480327D01*
X110121588Y-92479092D01*
X110147609Y-92474971D01*
X110319839Y-92419011D01*
X110481194Y-92336796D01*
X110627701Y-92230353D01*
X110755753Y-92102301D01*
X110862196Y-91955794D01*
X110944411Y-91794439D01*
X111000371Y-91622209D01*
X111019913Y-91498827D01*
X111028700Y-91443351D01*
X111028700Y-91262248D01*
X111007232Y-91126709D01*
X111000371Y-91083391D01*
X110963789Y-90970800D01*
X110944412Y-90911163D01*
X110944411Y-90911160D01*
X110904320Y-90832478D01*
X110862196Y-90749806D01*
X110826032Y-90700030D01*
X110755758Y-90603305D01*
X110755754Y-90603300D01*
X110627699Y-90475245D01*
X110627694Y-90475241D01*
X110549148Y-90418174D01*
X110506482Y-90362844D01*
X110500503Y-90293231D01*
X110533109Y-90231436D01*
X110593947Y-90197079D01*
X110609435Y-90194498D01*
X110630896Y-90192306D01*
X110797319Y-90137158D01*
X110797324Y-90137156D01*
X110946545Y-90045115D01*
X111070515Y-89921145D01*
X111162556Y-89771924D01*
X111162558Y-89771919D01*
X111217705Y-89605497D01*
X111217706Y-89605490D01*
X111228199Y-89502786D01*
X111228200Y-89502773D01*
X111228200Y-89102800D01*
X110157346Y-89102800D01*
X110195830Y-89036143D01*
X110228200Y-88915335D01*
X110228200Y-88790265D01*
X110195830Y-88669457D01*
X110157346Y-88602800D01*
X111228199Y-88602800D01*
X111228199Y-88595300D01*
X115352201Y-88595300D01*
X115352201Y-88732786D01*
X115362694Y-88835497D01*
X115417841Y-89001919D01*
X115417843Y-89001924D01*
X115509884Y-89151145D01*
X115633854Y-89275115D01*
X115783076Y-89367156D01*
X115804955Y-89374406D01*
X115862401Y-89414178D01*
X115889225Y-89478693D01*
X115876911Y-89547469D01*
X115835593Y-89591966D01*
X115836616Y-89593314D01*
X115709277Y-89689877D01*
X115617839Y-89810456D01*
X115562322Y-89951238D01*
X115557718Y-89989582D01*
X115551700Y-90039698D01*
X115551700Y-90800902D01*
X115556343Y-90839565D01*
X115562322Y-90889361D01*
X115562322Y-90889363D01*
X115562323Y-90889364D01*
X115571175Y-90911811D01*
X115617839Y-91030143D01*
X115709277Y-91150722D01*
X115829857Y-91242161D01*
X115863460Y-91255411D01*
X115948191Y-91288826D01*
X116003333Y-91331730D01*
X116026527Y-91397637D01*
X116026700Y-91404179D01*
X116026700Y-91714278D01*
X116007015Y-91781317D01*
X115954211Y-91827072D01*
X115948191Y-91829632D01*
X115854858Y-91866438D01*
X115734277Y-91957877D01*
X115642839Y-92078456D01*
X115587322Y-92219238D01*
X115584821Y-92240069D01*
X115576700Y-92307698D01*
X115576700Y-93043902D01*
X115581730Y-93085790D01*
X115587322Y-93132361D01*
X115587322Y-93132363D01*
X115587323Y-93132364D01*
X115590703Y-93140934D01*
X115642839Y-93273143D01*
X115734277Y-93393722D01*
X115854856Y-93485160D01*
X115854857Y-93485160D01*
X115854858Y-93485161D01*
X115995636Y-93540677D01*
X116084098Y-93551300D01*
X116084103Y-93551300D01*
X117070297Y-93551300D01*
X117070302Y-93551300D01*
X117158764Y-93540677D01*
X117299542Y-93485161D01*
X117420122Y-93393722D01*
X117447896Y-93357095D01*
X117504087Y-93315573D01*
X117573808Y-93311020D01*
X117634923Y-93344885D01*
X117668027Y-93406414D01*
X117670700Y-93432021D01*
X117670700Y-93711656D01*
X117670702Y-93711682D01*
X117673613Y-93736787D01*
X117673615Y-93736791D01*
X117718993Y-93839564D01*
X117718994Y-93839565D01*
X117798435Y-93919006D01*
X117901209Y-93964385D01*
X117926335Y-93967300D01*
X118562575Y-93967299D01*
X118629614Y-93986983D01*
X118675369Y-94039787D01*
X118685313Y-94108946D01*
X118676010Y-94141384D01*
X118673615Y-94146806D01*
X118673615Y-94146808D01*
X118670700Y-94171931D01*
X118670700Y-95261656D01*
X118670702Y-95261682D01*
X118673613Y-95286787D01*
X118673615Y-95286791D01*
X118718993Y-95389564D01*
X118718994Y-95389565D01*
X118798435Y-95469006D01*
X118901209Y-95514385D01*
X118926335Y-95517300D01*
X119816064Y-95517299D01*
X119816079Y-95517297D01*
X119816082Y-95517297D01*
X119841187Y-95514386D01*
X119841188Y-95514385D01*
X119841191Y-95514385D01*
X119943965Y-95469006D01*
X120023406Y-95389565D01*
X120068785Y-95286791D01*
X120071700Y-95261665D01*
X120071699Y-94171936D01*
X120071699Y-94171935D01*
X120071699Y-94171931D01*
X120880700Y-94171931D01*
X120880700Y-95261656D01*
X120880702Y-95261682D01*
X120883613Y-95286787D01*
X120883615Y-95286791D01*
X120928993Y-95389564D01*
X120928994Y-95389565D01*
X121008435Y-95469006D01*
X121111209Y-95514385D01*
X121136335Y-95517300D01*
X122026064Y-95517299D01*
X122026079Y-95517297D01*
X122026082Y-95517297D01*
X122051187Y-95514386D01*
X122051188Y-95514385D01*
X122051191Y-95514385D01*
X122153965Y-95469006D01*
X122233406Y-95389565D01*
X122278785Y-95286791D01*
X122281700Y-95261665D01*
X122281699Y-94171936D01*
X122281697Y-94171917D01*
X122278786Y-94146812D01*
X122278785Y-94146810D01*
X122278785Y-94146809D01*
X122233406Y-94044035D01*
X122153965Y-93964594D01*
X122138809Y-93957902D01*
X122051192Y-93919215D01*
X122026065Y-93916300D01*
X121136343Y-93916300D01*
X121136317Y-93916302D01*
X121111212Y-93919213D01*
X121111208Y-93919215D01*
X121008435Y-93964593D01*
X120928994Y-94044034D01*
X120883615Y-94146806D01*
X120883615Y-94146808D01*
X120880700Y-94171931D01*
X120071699Y-94171931D01*
X120071699Y-94171930D01*
X120068786Y-94146812D01*
X120068785Y-94146810D01*
X120068785Y-94146809D01*
X120023406Y-94044035D01*
X119943965Y-93964594D01*
X119928809Y-93957902D01*
X119832658Y-93915447D01*
X119833476Y-93913593D01*
X119784236Y-93883319D01*
X119753948Y-93820356D01*
X119762509Y-93751013D01*
X119762876Y-93750173D01*
X119762908Y-93750101D01*
X119768785Y-93736791D01*
X119771700Y-93711665D01*
X119771699Y-93147317D01*
X119791383Y-93080279D01*
X119844187Y-93034524D01*
X119913346Y-93024580D01*
X119976902Y-93053605D01*
X119983380Y-93059637D01*
X120034654Y-93110911D01*
X120034658Y-93110914D01*
X120149382Y-93187571D01*
X120149395Y-93187578D01*
X120276867Y-93240378D01*
X120276872Y-93240380D01*
X120276876Y-93240380D01*
X120276877Y-93240381D01*
X120412204Y-93267300D01*
X120412207Y-93267300D01*
X120550195Y-93267300D01*
X120641241Y-93249189D01*
X120685528Y-93240380D01*
X120808291Y-93189530D01*
X120813004Y-93187578D01*
X120813004Y-93187577D01*
X120813011Y-93187575D01*
X120927742Y-93110914D01*
X121025314Y-93013342D01*
X121101975Y-92898611D01*
X121102722Y-92896809D01*
X121128349Y-92834939D01*
X121154780Y-92771128D01*
X121169393Y-92697663D01*
X121181700Y-92635795D01*
X121181700Y-92497804D01*
X121154781Y-92362477D01*
X121154780Y-92362476D01*
X121154780Y-92362472D01*
X121150409Y-92351919D01*
X121101978Y-92234995D01*
X121101971Y-92234982D01*
X121025314Y-92120258D01*
X121025311Y-92120254D01*
X120927745Y-92022688D01*
X120927741Y-92022685D01*
X120813017Y-91946028D01*
X120813004Y-91946021D01*
X120685532Y-91893221D01*
X120685522Y-91893218D01*
X120550195Y-91866300D01*
X120550193Y-91866300D01*
X120412207Y-91866300D01*
X120412205Y-91866300D01*
X120276877Y-91893218D01*
X120276867Y-91893221D01*
X120149395Y-91946021D01*
X120149382Y-91946028D01*
X120034658Y-92022685D01*
X120034654Y-92022688D01*
X119937088Y-92120254D01*
X119937085Y-92120258D01*
X119860428Y-92234982D01*
X119860421Y-92234995D01*
X119807621Y-92362467D01*
X119807618Y-92362477D01*
X119780700Y-92497804D01*
X119780700Y-92584667D01*
X119761015Y-92651706D01*
X119708211Y-92697461D01*
X119639053Y-92707405D01*
X119606614Y-92698102D01*
X119574619Y-92683975D01*
X119541191Y-92669215D01*
X119516065Y-92666300D01*
X117926343Y-92666300D01*
X117926317Y-92666302D01*
X117901212Y-92669213D01*
X117901208Y-92669215D01*
X117798435Y-92714593D01*
X117798434Y-92714594D01*
X117789381Y-92723648D01*
X117728058Y-92757133D01*
X117658366Y-92752149D01*
X117602433Y-92710277D01*
X117578016Y-92644813D01*
X117577700Y-92635967D01*
X117577700Y-92307703D01*
X117577700Y-92307698D01*
X117567077Y-92219236D01*
X117511561Y-92078458D01*
X117511560Y-92078457D01*
X117511560Y-92078456D01*
X117420122Y-91957877D01*
X117299541Y-91866438D01*
X117206209Y-91829632D01*
X117151066Y-91786726D01*
X117127873Y-91720818D01*
X117127700Y-91714278D01*
X117127700Y-91404179D01*
X117147385Y-91337140D01*
X117200189Y-91291385D01*
X117206178Y-91288837D01*
X117324542Y-91242161D01*
X117445122Y-91150722D01*
X117496181Y-91083391D01*
X117541686Y-91023384D01*
X117543712Y-91024920D01*
X117584392Y-90985238D01*
X117642463Y-90970800D01*
X118690175Y-90970800D01*
X118698231Y-90969739D01*
X118698278Y-90970101D01*
X118719565Y-90967299D01*
X119516056Y-90967299D01*
X119516064Y-90967299D01*
X119516079Y-90967297D01*
X119516082Y-90967297D01*
X119541187Y-90964386D01*
X119541188Y-90964385D01*
X119541191Y-90964385D01*
X119643965Y-90919006D01*
X119723406Y-90839565D01*
X119768785Y-90736791D01*
X119771700Y-90711665D01*
X119771699Y-90147317D01*
X119791383Y-90080279D01*
X119844187Y-90034524D01*
X119913346Y-90024580D01*
X119976902Y-90053605D01*
X119983380Y-90059637D01*
X120034654Y-90110911D01*
X120034658Y-90110914D01*
X120149382Y-90187571D01*
X120149395Y-90187578D01*
X120248669Y-90228698D01*
X120276872Y-90240380D01*
X120276876Y-90240380D01*
X120276877Y-90240381D01*
X120412204Y-90267300D01*
X120412207Y-90267300D01*
X120550195Y-90267300D01*
X120641241Y-90249189D01*
X120685528Y-90240380D01*
X120813011Y-90187575D01*
X120927742Y-90110914D01*
X121025314Y-90013342D01*
X121101975Y-89898611D01*
X121102722Y-89896809D01*
X121143155Y-89799193D01*
X121154780Y-89771128D01*
X121164142Y-89724061D01*
X121181700Y-89635795D01*
X121181700Y-89497804D01*
X121154781Y-89362477D01*
X121154780Y-89362476D01*
X121154780Y-89362472D01*
X121143519Y-89335285D01*
X121101978Y-89234995D01*
X121101971Y-89234982D01*
X121025314Y-89120258D01*
X121025311Y-89120254D01*
X120927745Y-89022688D01*
X120927741Y-89022685D01*
X120813017Y-88946028D01*
X120813004Y-88946021D01*
X120685532Y-88893221D01*
X120685522Y-88893218D01*
X120550195Y-88866300D01*
X120550193Y-88866300D01*
X120412207Y-88866300D01*
X120412205Y-88866300D01*
X120276877Y-88893218D01*
X120276867Y-88893221D01*
X120149395Y-88946021D01*
X120149382Y-88946028D01*
X120034658Y-89022685D01*
X120034653Y-89022689D01*
X119983379Y-89073963D01*
X119922056Y-89107447D01*
X119852364Y-89102462D01*
X119796431Y-89060591D01*
X119772015Y-88995126D01*
X119771699Y-88986301D01*
X119771699Y-88421936D01*
X119771528Y-88420458D01*
X119768786Y-88396812D01*
X119768785Y-88396811D01*
X119768785Y-88396809D01*
X119762873Y-88383421D01*
X119753803Y-88314144D01*
X119783627Y-88250959D01*
X119833406Y-88219847D01*
X119832658Y-88218153D01*
X119879868Y-88197307D01*
X119943965Y-88169006D01*
X120023406Y-88089565D01*
X120068785Y-87986791D01*
X120071700Y-87961665D01*
X120071699Y-86871936D01*
X120071699Y-86871935D01*
X120071699Y-86871931D01*
X120880700Y-86871931D01*
X120880700Y-87961656D01*
X120880702Y-87961682D01*
X120883613Y-87986787D01*
X120883615Y-87986791D01*
X120928993Y-88089564D01*
X120928994Y-88089565D01*
X121008435Y-88169006D01*
X121111209Y-88214385D01*
X121136335Y-88217300D01*
X122026064Y-88217299D01*
X122026079Y-88217297D01*
X122026082Y-88217297D01*
X122051187Y-88214386D01*
X122051188Y-88214385D01*
X122051191Y-88214385D01*
X122153965Y-88169006D01*
X122233406Y-88089565D01*
X122278785Y-87986791D01*
X122281700Y-87961665D01*
X122281699Y-86871936D01*
X122281203Y-86867660D01*
X122278786Y-86846812D01*
X122278785Y-86846810D01*
X122278785Y-86846809D01*
X122233406Y-86744035D01*
X122153965Y-86664594D01*
X122153963Y-86664593D01*
X122051192Y-86619215D01*
X122026065Y-86616300D01*
X121136343Y-86616300D01*
X121136317Y-86616302D01*
X121111212Y-86619213D01*
X121111208Y-86619215D01*
X121008435Y-86664593D01*
X120928994Y-86744034D01*
X120883615Y-86846806D01*
X120883615Y-86846808D01*
X120880700Y-86871931D01*
X120071699Y-86871931D01*
X120071699Y-86871930D01*
X120068786Y-86846812D01*
X120068785Y-86846810D01*
X120068785Y-86846809D01*
X120023406Y-86744035D01*
X119943965Y-86664594D01*
X119943963Y-86664593D01*
X119841192Y-86619215D01*
X119816065Y-86616300D01*
X118926343Y-86616300D01*
X118926317Y-86616302D01*
X118901212Y-86619213D01*
X118901208Y-86619215D01*
X118787924Y-86669235D01*
X118787096Y-86667360D01*
X118734586Y-86684470D01*
X118666997Y-86666764D01*
X118643262Y-86648205D01*
X118547745Y-86552688D01*
X118547741Y-86552685D01*
X118433017Y-86476028D01*
X118433004Y-86476021D01*
X118305532Y-86423221D01*
X118305522Y-86423218D01*
X118170195Y-86396300D01*
X118170193Y-86396300D01*
X118032207Y-86396300D01*
X118032205Y-86396300D01*
X117896877Y-86423218D01*
X117896867Y-86423221D01*
X117769395Y-86476021D01*
X117769382Y-86476028D01*
X117654658Y-86552685D01*
X117654654Y-86552688D01*
X117557088Y-86650254D01*
X117557085Y-86650258D01*
X117480428Y-86764982D01*
X117480421Y-86764995D01*
X117427621Y-86892467D01*
X117427618Y-86892477D01*
X117400700Y-87027804D01*
X117400700Y-87161457D01*
X117381015Y-87228496D01*
X117328211Y-87274251D01*
X117259053Y-87284195D01*
X117237697Y-87279163D01*
X117204900Y-87268295D01*
X117204890Y-87268293D01*
X117102186Y-87257800D01*
X116827200Y-87257800D01*
X116827200Y-88221300D01*
X116807515Y-88288339D01*
X116754711Y-88334094D01*
X116703200Y-88345300D01*
X116577200Y-88345300D01*
X116577200Y-88471300D01*
X116557515Y-88538339D01*
X116504711Y-88584094D01*
X116453200Y-88595300D01*
X115352201Y-88595300D01*
X111228199Y-88595300D01*
X111228199Y-88202828D01*
X111228198Y-88202813D01*
X111217706Y-88100104D01*
X111182436Y-87993669D01*
X111182435Y-87993667D01*
X111170555Y-87957813D01*
X115352200Y-87957813D01*
X115352200Y-88095300D01*
X116327200Y-88095300D01*
X116327200Y-87257800D01*
X116052229Y-87257800D01*
X116052212Y-87257801D01*
X115949502Y-87268294D01*
X115783080Y-87323441D01*
X115783075Y-87323443D01*
X115633854Y-87415484D01*
X115509884Y-87539454D01*
X115417843Y-87688675D01*
X115417841Y-87688680D01*
X115362694Y-87855102D01*
X115362693Y-87855109D01*
X115352200Y-87957813D01*
X111170555Y-87957813D01*
X111162558Y-87933680D01*
X111162556Y-87933675D01*
X111070515Y-87784454D01*
X110946545Y-87660484D01*
X110797324Y-87568443D01*
X110797319Y-87568441D01*
X110630897Y-87513294D01*
X110630890Y-87513293D01*
X110528186Y-87502800D01*
X110003200Y-87502800D01*
X110003200Y-88448654D01*
X109936543Y-88410170D01*
X109815735Y-88377800D01*
X109690665Y-88377800D01*
X109569857Y-88410170D01*
X109503200Y-88448654D01*
X109503200Y-87502800D01*
X108978228Y-87502800D01*
X108978212Y-87502801D01*
X108875502Y-87513294D01*
X108709080Y-87568441D01*
X108709075Y-87568443D01*
X108559854Y-87660484D01*
X108435884Y-87784454D01*
X108343843Y-87933675D01*
X108343841Y-87933680D01*
X108288694Y-88100102D01*
X108288693Y-88100109D01*
X108278200Y-88202813D01*
X103433200Y-88202813D01*
X103433200Y-87330800D01*
X102383200Y-87330800D01*
X102383200Y-89080799D01*
X101883199Y-89080799D01*
X101883200Y-89080798D01*
X101883200Y-87330800D01*
X100833201Y-87330800D01*
X100833201Y-88380786D01*
X97017711Y-88380786D01*
X94473216Y-85836291D01*
X94473215Y-85836290D01*
X94377125Y-85780813D01*
X100833200Y-85780813D01*
X100833200Y-86830800D01*
X101883200Y-86830800D01*
X102383200Y-86830800D01*
X103433199Y-86830800D01*
X103433199Y-85780828D01*
X103433198Y-85780813D01*
X103422705Y-85678102D01*
X103367558Y-85511680D01*
X103367556Y-85511675D01*
X103275515Y-85362454D01*
X103151545Y-85238484D01*
X103002324Y-85146443D01*
X103002319Y-85146441D01*
X102835897Y-85091294D01*
X102835890Y-85091293D01*
X102733186Y-85080800D01*
X102383200Y-85080800D01*
X102383200Y-86830800D01*
X101883200Y-86830800D01*
X101883200Y-85080800D01*
X101533228Y-85080800D01*
X101533212Y-85080801D01*
X101430502Y-85091294D01*
X101264080Y-85146441D01*
X101264075Y-85146443D01*
X101114854Y-85238484D01*
X100990884Y-85362454D01*
X100898843Y-85511675D01*
X100898841Y-85511680D01*
X100843694Y-85678102D01*
X100843693Y-85678109D01*
X100833200Y-85780813D01*
X94377125Y-85780813D01*
X94347685Y-85763816D01*
X94347686Y-85763816D01*
X94266756Y-85742131D01*
X94266756Y-85742130D01*
X94207675Y-85726300D01*
X94147699Y-85726300D01*
X94080660Y-85706615D01*
X94034905Y-85653811D01*
X94023699Y-85602300D01*
X94023699Y-84781943D01*
X94023699Y-84781936D01*
X94023697Y-84781917D01*
X94020786Y-84756812D01*
X94020785Y-84756810D01*
X94020785Y-84756809D01*
X93975406Y-84654035D01*
X93895965Y-84574594D01*
X93895963Y-84574593D01*
X93793192Y-84529215D01*
X93768065Y-84526300D01*
X90178343Y-84526300D01*
X90178317Y-84526302D01*
X90153212Y-84529213D01*
X90153208Y-84529215D01*
X90050435Y-84574593D01*
X89970994Y-84654034D01*
X89925615Y-84756806D01*
X89925615Y-84756808D01*
X89922700Y-84781931D01*
X89922700Y-87422413D01*
X89903015Y-87489452D01*
X89850211Y-87535207D01*
X89781053Y-87545151D01*
X89717497Y-87516126D01*
X89711019Y-87510094D01*
X87739216Y-85538291D01*
X87739215Y-85538290D01*
X87613685Y-85465816D01*
X87613686Y-85465816D01*
X87578682Y-85456437D01*
X87473675Y-85428300D01*
X79730225Y-85428300D01*
X79625217Y-85456437D01*
X79590214Y-85465816D01*
X79464686Y-85538289D01*
X79464683Y-85538291D01*
X78561994Y-86440981D01*
X78500671Y-86474466D01*
X78474313Y-86477300D01*
X77898098Y-86477300D01*
X77859053Y-86481988D01*
X77809638Y-86487922D01*
X77668856Y-86543439D01*
X77548277Y-86634877D01*
X77451714Y-86762216D01*
X77449886Y-86760830D01*
X77408561Y-86801126D01*
X77340106Y-86815115D01*
X77274955Y-86789873D01*
X77233793Y-86733415D01*
X77232807Y-86730555D01*
X77225559Y-86708682D01*
X77225556Y-86708675D01*
X77133515Y-86559454D01*
X77009545Y-86435484D01*
X76860324Y-86343443D01*
X76860319Y-86343441D01*
X76693897Y-86288294D01*
X76693890Y-86288293D01*
X76591186Y-86277800D01*
X76453700Y-86277800D01*
X76453700Y-88727799D01*
X76591172Y-88727799D01*
X76591186Y-88727798D01*
X76693897Y-88717305D01*
X76860319Y-88662158D01*
X76860324Y-88662156D01*
X77009545Y-88570115D01*
X77133515Y-88446145D01*
X77225556Y-88296924D01*
X77225557Y-88296920D01*
X77232806Y-88275045D01*
X77272577Y-88217599D01*
X77337092Y-88190774D01*
X77405868Y-88203087D01*
X77450367Y-88244405D01*
X77451714Y-88243384D01*
X77548277Y-88370722D01*
X77668857Y-88462161D01*
X77692033Y-88471300D01*
X77749691Y-88494037D01*
X77804833Y-88536942D01*
X77828027Y-88602849D01*
X77828200Y-88609391D01*
X77828200Y-88641610D01*
X77847944Y-88715298D01*
X77858900Y-88756185D01*
X77858900Y-88756186D01*
X77858901Y-88756187D01*
X77918211Y-88858914D01*
X77918213Y-88858916D01*
X78748482Y-89689185D01*
X78781967Y-89750508D01*
X78777842Y-89817821D01*
X78738554Y-89930098D01*
X78738553Y-89930100D01*
X78735700Y-89960530D01*
X78735700Y-90369069D01*
X78738553Y-90399499D01*
X78738553Y-90399501D01*
X78783406Y-90527680D01*
X78783407Y-90527682D01*
X78864050Y-90636950D01*
X78940101Y-90693078D01*
X78949521Y-90700030D01*
X78991771Y-90755677D01*
X78997230Y-90825334D01*
X78964162Y-90886883D01*
X78949521Y-90899570D01*
X78864050Y-90962650D01*
X78783407Y-91071917D01*
X78783406Y-91071919D01*
X78738553Y-91200098D01*
X78738553Y-91200100D01*
X78735700Y-91230530D01*
X78735700Y-91639069D01*
X78738553Y-91669499D01*
X78738553Y-91669501D01*
X78782570Y-91795290D01*
X78783407Y-91797682D01*
X78864049Y-91906949D01*
X78864051Y-91906951D01*
X78956294Y-91975029D01*
X78972764Y-91996721D01*
X78991894Y-92016113D01*
X78993583Y-92024141D01*
X78998545Y-92030676D01*
X79000673Y-92057832D01*
X79006282Y-92084485D01*
X79003362Y-92092151D01*
X79004004Y-92100332D01*
X78991111Y-92124328D01*
X78981421Y-92149782D01*
X78972945Y-92158142D01*
X78970937Y-92161882D01*
X78956296Y-92174568D01*
X78867547Y-92240069D01*
X78801918Y-92264041D01*
X78793912Y-92264300D01*
X77865165Y-92264300D01*
X77798126Y-92244615D01*
X77777484Y-92227981D01*
X76623816Y-91074313D01*
X76623814Y-91074311D01*
X76564890Y-91040291D01*
X76521088Y-91015001D01*
X76508980Y-91011757D01*
X76496873Y-91008513D01*
X76496870Y-91008512D01*
X76458678Y-90998278D01*
X76406509Y-90984300D01*
X76406508Y-90984300D01*
X75845302Y-90984300D01*
X75778263Y-90964615D01*
X75732508Y-90911811D01*
X75722564Y-90842653D01*
X75751589Y-90779097D01*
X75757621Y-90772619D01*
X75813878Y-90716361D01*
X75813885Y-90716352D01*
X75897481Y-90574998D01*
X75943300Y-90417286D01*
X75943495Y-90414801D01*
X75943495Y-90414800D01*
X74745200Y-90414800D01*
X74678161Y-90395115D01*
X74632406Y-90342311D01*
X74621200Y-90290800D01*
X74621200Y-90164800D01*
X74495200Y-90164800D01*
X74428161Y-90145115D01*
X74382406Y-90092311D01*
X74371200Y-90040800D01*
X74371200Y-89914800D01*
X74871200Y-89914800D01*
X75943495Y-89914800D01*
X75943495Y-89914798D01*
X75943300Y-89912313D01*
X75897481Y-89754601D01*
X75813885Y-89613247D01*
X75813878Y-89613238D01*
X75697761Y-89497121D01*
X75697752Y-89497114D01*
X75556396Y-89413517D01*
X75556393Y-89413516D01*
X75398695Y-89367700D01*
X75398689Y-89367699D01*
X75361849Y-89364800D01*
X74871200Y-89364800D01*
X74871200Y-89914800D01*
X74371200Y-89914800D01*
X74371200Y-89364800D01*
X73880550Y-89364800D01*
X73843710Y-89367699D01*
X73843704Y-89367700D01*
X73686006Y-89413516D01*
X73686003Y-89413517D01*
X73544647Y-89497114D01*
X73544638Y-89497121D01*
X73428521Y-89613238D01*
X73428514Y-89613247D01*
X73344917Y-89754603D01*
X73344916Y-89754606D01*
X73299100Y-89912304D01*
X73299097Y-89912324D01*
X73299083Y-89912505D01*
X73299047Y-89912599D01*
X73297961Y-89918545D01*
X73296856Y-89918343D01*
X73274190Y-89977789D01*
X73217952Y-90019252D01*
X73148226Y-90023728D01*
X73087786Y-89990438D01*
X72852196Y-89754848D01*
X72818711Y-89693525D01*
X72815877Y-89667167D01*
X72815877Y-88949535D01*
X72815877Y-88949530D01*
X72805254Y-88861068D01*
X72749738Y-88720290D01*
X72749737Y-88720289D01*
X72749737Y-88720288D01*
X72658299Y-88599709D01*
X72530961Y-88503146D01*
X72532347Y-88501317D01*
X72492056Y-88460004D01*
X72478060Y-88391551D01*
X72503295Y-88326397D01*
X72559749Y-88285230D01*
X72562622Y-88284238D01*
X72584499Y-88276988D01*
X72584501Y-88276988D01*
X72733722Y-88184947D01*
X72857692Y-88060977D01*
X72878165Y-88027786D01*
X75116201Y-88027786D01*
X75126694Y-88130497D01*
X75181841Y-88296919D01*
X75181843Y-88296924D01*
X75273884Y-88446145D01*
X75397854Y-88570115D01*
X75547075Y-88662156D01*
X75547080Y-88662158D01*
X75713502Y-88717305D01*
X75713509Y-88717306D01*
X75816219Y-88727799D01*
X75953699Y-88727799D01*
X75953700Y-88727798D01*
X75953700Y-87752800D01*
X75116201Y-87752800D01*
X75116201Y-88027786D01*
X72878165Y-88027786D01*
X72949733Y-87911756D01*
X72949735Y-87911751D01*
X73004882Y-87745329D01*
X73004883Y-87745321D01*
X73010655Y-87688835D01*
X73010655Y-87688834D01*
X73015376Y-87642620D01*
X73015377Y-87642605D01*
X73015377Y-87505132D01*
X70565378Y-87505132D01*
X70565378Y-87642618D01*
X70575871Y-87745329D01*
X70631018Y-87911751D01*
X70631020Y-87911756D01*
X70723061Y-88060977D01*
X70847031Y-88184947D01*
X70996253Y-88276988D01*
X71018132Y-88284238D01*
X71075578Y-88324010D01*
X71102402Y-88388525D01*
X71090088Y-88457301D01*
X71048770Y-88501798D01*
X71049793Y-88503146D01*
X70922454Y-88599709D01*
X70831016Y-88720288D01*
X70775499Y-88861070D01*
X70771639Y-88893218D01*
X70764877Y-88949530D01*
X70764877Y-89710734D01*
X70769165Y-89746439D01*
X70775499Y-89799193D01*
X70775499Y-89799195D01*
X70775500Y-89799196D01*
X70779941Y-89810458D01*
X70831016Y-89939975D01*
X70922454Y-90060554D01*
X71043033Y-90151992D01*
X71043034Y-90151992D01*
X71043035Y-90151993D01*
X71183813Y-90207509D01*
X71250505Y-90215517D01*
X71314716Y-90243052D01*
X71353850Y-90300934D01*
X71355478Y-90370785D01*
X71319084Y-90430427D01*
X71256221Y-90460925D01*
X71250505Y-90461747D01*
X71208818Y-90466753D01*
X71068033Y-90522271D01*
X70947454Y-90613710D01*
X70872842Y-90712100D01*
X70816650Y-90753623D01*
X70746929Y-90758174D01*
X70686358Y-90724855D01*
X68638760Y-88677257D01*
X68638758Y-88677254D01*
X68464845Y-88503342D01*
X68464843Y-88503340D01*
X68385102Y-88457301D01*
X68362117Y-88444030D01*
X68350009Y-88440786D01*
X68337902Y-88437542D01*
X68337899Y-88437541D01*
X68299707Y-88427307D01*
X68247538Y-88413329D01*
X68247537Y-88413329D01*
X65929488Y-88413329D01*
X65862449Y-88393644D01*
X65855855Y-88389099D01*
X65750086Y-88311038D01*
X65750080Y-88311035D01*
X65621900Y-88266182D01*
X65591470Y-88263329D01*
X65591466Y-88263329D01*
X64302934Y-88263329D01*
X64302930Y-88263329D01*
X64272500Y-88266182D01*
X64272498Y-88266182D01*
X64144319Y-88311035D01*
X64144317Y-88311036D01*
X64035050Y-88391679D01*
X63954407Y-88500946D01*
X63954406Y-88500948D01*
X63909553Y-88629127D01*
X63909553Y-88629129D01*
X63906700Y-88659559D01*
X63906700Y-89068098D01*
X63909553Y-89098528D01*
X63909554Y-89098530D01*
X63944491Y-89198374D01*
X63948053Y-89268153D01*
X63913325Y-89328780D01*
X63851331Y-89361008D01*
X63827450Y-89363329D01*
X60852362Y-89363329D01*
X60761996Y-89387542D01*
X60761995Y-89387541D01*
X60737787Y-89394028D01*
X60737784Y-89394029D01*
X60635057Y-89453340D01*
X60635054Y-89453342D01*
X60403416Y-89684981D01*
X60342093Y-89718466D01*
X60315735Y-89721300D01*
X59766665Y-89721300D01*
X59699626Y-89701615D01*
X59678984Y-89684981D01*
X59048037Y-89054034D01*
X59048035Y-89054032D01*
X58980704Y-89015158D01*
X58945309Y-88994722D01*
X58933201Y-88991478D01*
X58921094Y-88988234D01*
X58921091Y-88988233D01*
X58878713Y-88976878D01*
X58830730Y-88964021D01*
X58830729Y-88964021D01*
X57744452Y-88964021D01*
X57677413Y-88944336D01*
X57631658Y-88891532D01*
X57620452Y-88840021D01*
X57620452Y-88614924D01*
X57620452Y-88614919D01*
X57609829Y-88526457D01*
X57554313Y-88385679D01*
X57554312Y-88385678D01*
X57554312Y-88385677D01*
X57462874Y-88265098D01*
X57342295Y-88173660D01*
X57246144Y-88135743D01*
X57201516Y-88118144D01*
X57201515Y-88118143D01*
X57201513Y-88118143D01*
X57155878Y-88112663D01*
X57113054Y-88107521D01*
X55926850Y-88107521D01*
X55887805Y-88112209D01*
X55838390Y-88118143D01*
X55697608Y-88173660D01*
X55577029Y-88265098D01*
X55485591Y-88385677D01*
X55430074Y-88526459D01*
X55424832Y-88570115D01*
X55419452Y-88614919D01*
X53700452Y-88614919D01*
X53689829Y-88526457D01*
X53634313Y-88385679D01*
X53634312Y-88385678D01*
X53634312Y-88385677D01*
X53542874Y-88265098D01*
X53422295Y-88173660D01*
X53326144Y-88135743D01*
X53281516Y-88118144D01*
X53281515Y-88118143D01*
X53281513Y-88118143D01*
X53235878Y-88112663D01*
X53193054Y-88107521D01*
X52006850Y-88107521D01*
X51967805Y-88112209D01*
X51918390Y-88118143D01*
X51777608Y-88173660D01*
X51657029Y-88265098D01*
X51565591Y-88385677D01*
X51510074Y-88526459D01*
X51504832Y-88570115D01*
X51499452Y-88614919D01*
X51499452Y-88614924D01*
X51499452Y-88683521D01*
X51479767Y-88750560D01*
X51426963Y-88796315D01*
X51375452Y-88807521D01*
X49962143Y-88807521D01*
X49871777Y-88831734D01*
X49871776Y-88831733D01*
X49847567Y-88838221D01*
X49847558Y-88838225D01*
X49744844Y-88897526D01*
X49744836Y-88897532D01*
X49260713Y-89381656D01*
X49260711Y-89381659D01*
X49201399Y-89484387D01*
X49197805Y-89497805D01*
X49183313Y-89551892D01*
X49146949Y-89611553D01*
X49084102Y-89642083D01*
X49063538Y-89643800D01*
X48928098Y-89643800D01*
X48889053Y-89648488D01*
X48839638Y-89654422D01*
X48698856Y-89709939D01*
X48578277Y-89801377D01*
X48486839Y-89921956D01*
X48431322Y-90062738D01*
X48426338Y-90104244D01*
X48420700Y-90151198D01*
X47021700Y-90151198D01*
X47021700Y-88235490D01*
X47041385Y-88168451D01*
X47076808Y-88132388D01*
X47240855Y-88022777D01*
X47387177Y-87876455D01*
X47502141Y-87704398D01*
X47581330Y-87513220D01*
X47621700Y-87310265D01*
X47621700Y-87103335D01*
X47581330Y-86900380D01*
X47502141Y-86709202D01*
X47387177Y-86537145D01*
X47387175Y-86537142D01*
X47240857Y-86390824D01*
X47118701Y-86309203D01*
X47068798Y-86275859D01*
X47052246Y-86269003D01*
X46877620Y-86196670D01*
X46877612Y-86196668D01*
X46674669Y-86156300D01*
X46674665Y-86156300D01*
X46467735Y-86156300D01*
X46467730Y-86156300D01*
X46264787Y-86196668D01*
X46264779Y-86196670D01*
X46073603Y-86275858D01*
X45901542Y-86390824D01*
X45755224Y-86537142D01*
X45640258Y-86709203D01*
X45561070Y-86900379D01*
X45561068Y-86900387D01*
X45520700Y-87103330D01*
X43330255Y-87103330D01*
X43122735Y-86895810D01*
X43122734Y-86895809D01*
X42997204Y-86823335D01*
X42997205Y-86823335D01*
X42962201Y-86813956D01*
X42857194Y-86785819D01*
X42857191Y-86785819D01*
X40177815Y-86785819D01*
X40110776Y-86766134D01*
X40065021Y-86713330D01*
X40062461Y-86707309D01*
X40015797Y-86588979D01*
X40015796Y-86588977D01*
X39924357Y-86468396D01*
X39803778Y-86376958D01*
X39707627Y-86339041D01*
X39662999Y-86321442D01*
X39662998Y-86321441D01*
X39662996Y-86321441D01*
X39617361Y-86315961D01*
X39574537Y-86310819D01*
X38813333Y-86310819D01*
X38774288Y-86315507D01*
X38724873Y-86321441D01*
X38584091Y-86376958D01*
X38463512Y-86468396D01*
X38366949Y-86595735D01*
X38365121Y-86594349D01*
X38323796Y-86634645D01*
X38255341Y-86648634D01*
X38190190Y-86623392D01*
X38149028Y-86566934D01*
X38148042Y-86564074D01*
X38140794Y-86542201D01*
X38140791Y-86542194D01*
X38048750Y-86392973D01*
X37924780Y-86269003D01*
X37775559Y-86176962D01*
X37775554Y-86176960D01*
X37609132Y-86121813D01*
X37609125Y-86121812D01*
X37506421Y-86111319D01*
X37368935Y-86111319D01*
X37368935Y-88561318D01*
X37506407Y-88561318D01*
X37506421Y-88561317D01*
X37609132Y-88550824D01*
X37775554Y-88495677D01*
X37775559Y-88495675D01*
X37924780Y-88403634D01*
X38048750Y-88279664D01*
X38140791Y-88130443D01*
X38140792Y-88130439D01*
X38148041Y-88108564D01*
X38187812Y-88051118D01*
X38252327Y-88024293D01*
X38321103Y-88036606D01*
X38365602Y-88077924D01*
X38366949Y-88076903D01*
X38463512Y-88204241D01*
X38584091Y-88295679D01*
X38584092Y-88295679D01*
X38584093Y-88295680D01*
X38724871Y-88351196D01*
X38813333Y-88361819D01*
X38813338Y-88361819D01*
X39574532Y-88361819D01*
X39574537Y-88361819D01*
X39662999Y-88351196D01*
X39803777Y-88295680D01*
X39892798Y-88228173D01*
X39926789Y-88202397D01*
X39927164Y-88202254D01*
X39927404Y-88201934D01*
X39959738Y-88189873D01*
X39992100Y-88177574D01*
X39992492Y-88177656D01*
X39992868Y-88177517D01*
X40026616Y-88184858D01*
X40060464Y-88192002D01*
X40060881Y-88192312D01*
X40061141Y-88192369D01*
X40089395Y-88213520D01*
X40158381Y-88282506D01*
X40191866Y-88343829D01*
X40194700Y-88370187D01*
X40194700Y-89440300D01*
X40175015Y-89507339D01*
X40122211Y-89553094D01*
X40070700Y-89564300D01*
X40015930Y-89564300D01*
X39985500Y-89567153D01*
X39985498Y-89567153D01*
X39857319Y-89612006D01*
X39857313Y-89612009D01*
X39740575Y-89698166D01*
X39740007Y-89697397D01*
X39728537Y-89706188D01*
X39697188Y-89724287D01*
X39697182Y-89724292D01*
X38192691Y-91228783D01*
X38192689Y-91228786D01*
X38184967Y-91242161D01*
X38137372Y-91324601D01*
X38125915Y-91344445D01*
X38125913Y-91344448D01*
X38120216Y-91354314D01*
X38118297Y-91361475D01*
X38082700Y-91494325D01*
X38082700Y-91494327D01*
X38082700Y-92557412D01*
X38074055Y-92586849D01*
X38067532Y-92616840D01*
X38063776Y-92621856D01*
X38063015Y-92624451D01*
X38046381Y-92645094D01*
X37978064Y-92713410D01*
X37916740Y-92746894D01*
X37847049Y-92741909D01*
X37791115Y-92700038D01*
X37768766Y-92649919D01*
X37762455Y-92618193D01*
X37741028Y-92510472D01*
X37725087Y-92471987D01*
X37688226Y-92382995D01*
X37688219Y-92382982D01*
X37611562Y-92268258D01*
X37611559Y-92268254D01*
X37513993Y-92170688D01*
X37513989Y-92170685D01*
X37399265Y-92094028D01*
X37399252Y-92094021D01*
X37271780Y-92041221D01*
X37271770Y-92041218D01*
X37136443Y-92014300D01*
X37136441Y-92014300D01*
X36998455Y-92014300D01*
X36998453Y-92014300D01*
X36863125Y-92041218D01*
X36863115Y-92041221D01*
X36735643Y-92094021D01*
X36735630Y-92094028D01*
X36620906Y-92170685D01*
X36620901Y-92170689D01*
X36604610Y-92186980D01*
X36574313Y-92203522D01*
X36544111Y-92220281D01*
X36543673Y-92220252D01*
X36543286Y-92220464D01*
X36508760Y-92217993D01*
X36474387Y-92215770D01*
X36473881Y-92215498D01*
X36473595Y-92215478D01*
X36443296Y-92199066D01*
X36410103Y-92174568D01*
X36367853Y-92118921D01*
X36362396Y-92049264D01*
X36395463Y-91987715D01*
X36410093Y-91975038D01*
X36502350Y-91906950D01*
X36582993Y-91797682D01*
X36611182Y-91717122D01*
X36627846Y-91669501D01*
X36627846Y-91669499D01*
X36630700Y-91639069D01*
X36630700Y-91230530D01*
X36627846Y-91200100D01*
X36627846Y-91200098D01*
X36592315Y-91098560D01*
X36582993Y-91071918D01*
X36541131Y-91015197D01*
X36517161Y-90949570D01*
X36532476Y-90881400D01*
X36577789Y-90834828D01*
X36581757Y-90832481D01*
X36581761Y-90832478D01*
X36697878Y-90716361D01*
X36697885Y-90716352D01*
X36781481Y-90574998D01*
X36827300Y-90417286D01*
X36827495Y-90414801D01*
X36827495Y-90414800D01*
X34182905Y-90414800D01*
X34182904Y-90414801D01*
X34183099Y-90417286D01*
X34228918Y-90574998D01*
X34312514Y-90716352D01*
X34312521Y-90716361D01*
X34368779Y-90772619D01*
X34402264Y-90833942D01*
X34397280Y-90903634D01*
X34355408Y-90959567D01*
X34289944Y-90983984D01*
X34281098Y-90984300D01*
X33915700Y-90984300D01*
X33848661Y-90964615D01*
X33802906Y-90911811D01*
X33791700Y-90860300D01*
X33791700Y-90395703D01*
X33791700Y-90395698D01*
X33781077Y-90307236D01*
X33725561Y-90166458D01*
X33725560Y-90166457D01*
X33725560Y-90166456D01*
X33634122Y-90045877D01*
X33513543Y-89954439D01*
X33458872Y-89932880D01*
X33413020Y-89914798D01*
X34182904Y-89914798D01*
X34182905Y-89914800D01*
X35255200Y-89914800D01*
X35755200Y-89914800D01*
X36827495Y-89914800D01*
X36827495Y-89914798D01*
X36827300Y-89912313D01*
X36781481Y-89754601D01*
X36697885Y-89613247D01*
X36697878Y-89613238D01*
X36581761Y-89497121D01*
X36581752Y-89497114D01*
X36440396Y-89413517D01*
X36440393Y-89413516D01*
X36282695Y-89367700D01*
X36282689Y-89367699D01*
X36245849Y-89364800D01*
X35755200Y-89364800D01*
X35755200Y-89914800D01*
X35255200Y-89914800D01*
X35255200Y-89364800D01*
X34764550Y-89364800D01*
X34727710Y-89367699D01*
X34727704Y-89367700D01*
X34570006Y-89413516D01*
X34570003Y-89413517D01*
X34428647Y-89497114D01*
X34428638Y-89497121D01*
X34312521Y-89613238D01*
X34312514Y-89613247D01*
X34228918Y-89754601D01*
X34183099Y-89912313D01*
X34182904Y-89914798D01*
X33413020Y-89914798D01*
X33386026Y-89904153D01*
X33330885Y-89861249D01*
X33307692Y-89795341D01*
X33323812Y-89727357D01*
X33374129Y-89678880D01*
X33386014Y-89673451D01*
X33513542Y-89623161D01*
X33634122Y-89531722D01*
X33725561Y-89411142D01*
X33781077Y-89270364D01*
X33791700Y-89181902D01*
X33791700Y-88395698D01*
X33781077Y-88307236D01*
X33725561Y-88166458D01*
X33725560Y-88166457D01*
X33725560Y-88166456D01*
X33634122Y-88045877D01*
X33513543Y-87954439D01*
X33372761Y-87898922D01*
X33327126Y-87893442D01*
X33284302Y-87888300D01*
X32298098Y-87888300D01*
X32259053Y-87892988D01*
X32209638Y-87898922D01*
X32068856Y-87954439D01*
X31948277Y-88045877D01*
X31856839Y-88166456D01*
X31801322Y-88307238D01*
X31797020Y-88343068D01*
X31790700Y-88395698D01*
X31790700Y-89181902D01*
X31794274Y-89211664D01*
X31801322Y-89270361D01*
X31856839Y-89411143D01*
X31948277Y-89531722D01*
X32068856Y-89623160D01*
X32068857Y-89623160D01*
X32068858Y-89623161D01*
X32196371Y-89673446D01*
X32251514Y-89716351D01*
X32274707Y-89782259D01*
X32258586Y-89850244D01*
X32208270Y-89898720D01*
X32196378Y-89904151D01*
X32151229Y-89921956D01*
X32068856Y-89954439D01*
X31948277Y-90045877D01*
X31856839Y-90166456D01*
X31801322Y-90307238D01*
X31797102Y-90342382D01*
X31790700Y-90395698D01*
X31790700Y-91181902D01*
X31794058Y-91209867D01*
X31801322Y-91270361D01*
X31856839Y-91411143D01*
X31948277Y-91531722D01*
X32068856Y-91623160D01*
X32068857Y-91623160D01*
X32068858Y-91623161D01*
X32209636Y-91678677D01*
X32231483Y-91681300D01*
X32295697Y-91708836D01*
X32334831Y-91766718D01*
X32340700Y-91804416D01*
X32340700Y-92599183D01*
X32321015Y-92666222D01*
X32268211Y-92711977D01*
X32231486Y-92722298D01*
X32209641Y-92724921D01*
X32068856Y-92780439D01*
X31948277Y-92871877D01*
X31856839Y-92992456D01*
X31842310Y-93029300D01*
X31820032Y-93085791D01*
X31777128Y-93140934D01*
X31731478Y-93161369D01*
X31718236Y-93164300D01*
X31699891Y-93164300D01*
X31615361Y-93186950D01*
X31612766Y-93187645D01*
X31612731Y-93187653D01*
X31585314Y-93194999D01*
X31482586Y-93254311D01*
X31482583Y-93254313D01*
X30906713Y-93830183D01*
X30906709Y-93830189D01*
X30847401Y-93932912D01*
X30847400Y-93932917D01*
X30816700Y-94047491D01*
X24131700Y-94047491D01*
X24131700Y-87861305D01*
X36031436Y-87861305D01*
X36041929Y-87964016D01*
X36097076Y-88130438D01*
X36097078Y-88130443D01*
X36189119Y-88279664D01*
X36313089Y-88403634D01*
X36462310Y-88495675D01*
X36462315Y-88495677D01*
X36628737Y-88550824D01*
X36628744Y-88550825D01*
X36731454Y-88561318D01*
X36868934Y-88561318D01*
X36868935Y-88561317D01*
X36868935Y-87586319D01*
X36031436Y-87586319D01*
X36031436Y-87861305D01*
X24131700Y-87861305D01*
X24131700Y-86053330D01*
X31720700Y-86053330D01*
X31720700Y-86260269D01*
X31761068Y-86463212D01*
X31761070Y-86463220D01*
X31832173Y-86634878D01*
X31840259Y-86654398D01*
X31876529Y-86708680D01*
X31955224Y-86826457D01*
X32101542Y-86972775D01*
X32101545Y-86972777D01*
X32273602Y-87087741D01*
X32464780Y-87166930D01*
X32667730Y-87207299D01*
X32667734Y-87207300D01*
X32667735Y-87207300D01*
X32874666Y-87207300D01*
X32874667Y-87207299D01*
X33077620Y-87166930D01*
X33268798Y-87087741D01*
X33440855Y-86972777D01*
X33587177Y-86826455D01*
X33597282Y-86811332D01*
X36031435Y-86811332D01*
X36031435Y-87086319D01*
X36868935Y-87086319D01*
X36868935Y-86111319D01*
X36731462Y-86111319D01*
X36731447Y-86111320D01*
X36628737Y-86121813D01*
X36462315Y-86176960D01*
X36462310Y-86176962D01*
X36313089Y-86269003D01*
X36189119Y-86392973D01*
X36097078Y-86542194D01*
X36097076Y-86542199D01*
X36041929Y-86708621D01*
X36041928Y-86708628D01*
X36031435Y-86811332D01*
X33597282Y-86811332D01*
X33651790Y-86729755D01*
X33702140Y-86654399D01*
X33702141Y-86654398D01*
X33781330Y-86463220D01*
X33821700Y-86260265D01*
X33821700Y-86053335D01*
X33781330Y-85850380D01*
X33702141Y-85659202D01*
X33587177Y-85487145D01*
X33587175Y-85487142D01*
X33440857Y-85340824D01*
X33354826Y-85283341D01*
X33268798Y-85225859D01*
X33077620Y-85146670D01*
X33077612Y-85146668D01*
X32874669Y-85106300D01*
X32874665Y-85106300D01*
X32667735Y-85106300D01*
X32667730Y-85106300D01*
X32464787Y-85146668D01*
X32464779Y-85146670D01*
X32273603Y-85225858D01*
X32101542Y-85340824D01*
X31955224Y-85487142D01*
X31840258Y-85659203D01*
X31761070Y-85850379D01*
X31761068Y-85850387D01*
X31720700Y-86053330D01*
X24131700Y-86053330D01*
X24131700Y-84336000D01*
X24151385Y-84268961D01*
X24204189Y-84223206D01*
X24255700Y-84212000D01*
X64101535Y-84212000D01*
X64168574Y-84231685D01*
G37*
%TD.AperFunction*%
%TD*%
M02*
