M48
; DRILL file {KiCad 9.0.5} date 2025-12-22T18:40:51+0100
; FORMAT={-:-/ absolute / inch / decimal}
; #@! TF.CreationDate,2025-12-22T18:40:51+01:00
; #@! TF.GenerationSoftware,Kicad,Pcbnew,9.0.5
; #@! TF.FileFunction,Plated,1,2,PTH
FMAT,2
INCH
; #@! TA.AperFunction,Plated,PTH,ViaDrill
T1C0.0157
; #@! TA.AperFunction,Plated,PTH,ComponentDrill
T2C0.0276
; #@! TA.AperFunction,Plated,PTH,ComponentDrill
T3C0.0374
; #@! TA.AperFunction,Plated,PTH,ComponentDrill
T4C0.0472
; #@! TA.AperFunction,Plated,PTH,ComponentDrill
T5C0.1000
%
G90
G05
T1
X1.291Y-3.4956
X1.4593Y-3.6502
X1.5431Y-3.4384
X1.5451Y-4.0185
X1.9314Y-3.9611
X2.3817Y-3.882
X2.401Y-3.4765
X2.6773Y-3.5779
X2.8264Y-3.6755
X3.0804Y-3.795
X4.141Y-3.635
X4.2209Y-3.9724
X4.2209Y-4.0924
X4.6497Y-3.429
T2
X1.2902Y-3.392
X1.5166Y-3.8389
X1.8335Y-3.4333
X2.5432Y-4.0259
X2.6878Y-3.4176
X2.7725Y-3.8251
X3.2882Y-4.0514
X3.789Y-4.0506
T3
X4.321Y-3.4981
X4.321Y-3.5966
X4.321Y-3.695
T4
X3.4941Y-3.895
X3.6123Y-3.895
T5
X1.141Y-3.095
X1.4408Y-3.095
X4.356Y-3.095
X4.656Y-3.095
M30
