%TF.GenerationSoftware,KiCad,Pcbnew,9.0.5*%
%TF.CreationDate,2025-12-22T18:40:51+01:00*%
%TF.ProjectId,Carte__lectronique,43617274-655f-4e96-9c65-6374726f6e69,rev?*%
%TF.SameCoordinates,Original*%
%TF.FileFunction,Soldermask,Top*%
%TF.FilePolarity,Negative*%
%FSLAX46Y46*%
G04 Gerber Fmt 4.6, Leading zero omitted, Abs format (unit mm)*
G04 Created by KiCad (PCBNEW 9.0.5) date 2025-12-22 18:40:51*
%MOMM*%
%LPD*%
G01*
G04 APERTURE LIST*
G04 Aperture macros list*
%AMRoundRect*
0 Rectangle with rounded corners*
0 $1 Rounding radius*
0 $2 $3 $4 $5 $6 $7 $8 $9 X,Y pos of 4 corners*
0 Add a 4 corners polygon primitive as box body*
4,1,4,$2,$3,$4,$5,$6,$7,$8,$9,$2,$3,0*
0 Add four circle primitives for the rounded corners*
1,1,$1+$1,$2,$3*
1,1,$1+$1,$4,$5*
1,1,$1+$1,$6,$7*
1,1,$1+$1,$8,$9*
0 Add four rect primitives between the rounded corners*
20,1,$1+$1,$2,$3,$4,$5,0*
20,1,$1+$1,$4,$5,$6,$7,0*
20,1,$1+$1,$6,$7,$8,$9,0*
20,1,$1+$1,$8,$9,$2,$3,0*%
G04 Aperture macros list end*
%ADD10C,1.500000*%
%ADD11RoundRect,0.250000X0.450000X-0.350000X0.450000X0.350000X-0.450000X0.350000X-0.450000X-0.350000X0*%
%ADD12C,4.000000*%
%ADD13RoundRect,0.250000X0.350000X0.450000X-0.350000X0.450000X-0.350000X-0.450000X0.350000X-0.450000X0*%
%ADD14RoundRect,0.250000X-0.650000X0.412500X-0.650000X-0.412500X0.650000X-0.412500X0.650000X0.412500X0*%
%ADD15RoundRect,0.250000X-0.475000X0.337500X-0.475000X-0.337500X0.475000X-0.337500X0.475000X0.337500X0*%
%ADD16RoundRect,0.250000X-0.550000X-0.600000X0.550000X-0.600000X0.550000X0.600000X-0.550000X0.600000X0*%
%ADD17RoundRect,0.150000X0.150000X-0.590000X0.150000X0.590000X-0.150000X0.590000X-0.150000X-0.590000X0*%
%ADD18RoundRect,0.250000X0.337500X0.475000X-0.337500X0.475000X-0.337500X-0.475000X0.337500X-0.475000X0*%
%ADD19RoundRect,0.150000X-0.590000X-0.150000X0.590000X-0.150000X0.590000X0.150000X-0.590000X0.150000X0*%
%ADD20RoundRect,0.250000X0.475000X-0.337500X0.475000X0.337500X-0.475000X0.337500X-0.475000X-0.337500X0*%
%ADD21RoundRect,0.250000X0.325000X0.450000X-0.325000X0.450000X-0.325000X-0.450000X0.325000X-0.450000X0*%
%ADD22R,1.200000X1.200000*%
%ADD23R,1.500000X1.600000*%
%ADD24RoundRect,0.250000X-0.450000X0.350000X-0.450000X-0.350000X0.450000X-0.350000X0.450000X0.350000X0*%
%ADD25RoundRect,0.150000X-0.675000X-0.150000X0.675000X-0.150000X0.675000X0.150000X-0.675000X0.150000X0*%
%ADD26RoundRect,0.250000X0.550000X-1.250000X0.550000X1.250000X-0.550000X1.250000X-0.550000X-1.250000X0*%
%ADD27RoundRect,0.250000X-0.550000X1.250000X-0.550000X-1.250000X0.550000X-1.250000X0.550000X1.250000X0*%
%ADD28RoundRect,0.250000X-0.725000X0.600000X-0.725000X-0.600000X0.725000X-0.600000X0.725000X0.600000X0*%
%ADD29O,1.950000X1.700000*%
%ADD30RoundRect,0.250000X-0.350000X-0.450000X0.350000X-0.450000X0.350000X0.450000X-0.350000X0.450000X0*%
%ADD31RoundRect,0.250000X0.550000X0.600000X-0.550000X0.600000X-0.550000X-0.600000X0.550000X-0.600000X0*%
%ADD32RoundRect,0.250000X0.650000X-0.412500X0.650000X0.412500X-0.650000X0.412500X-0.650000X-0.412500X0*%
%ADD33C,2.400000*%
%ADD34RoundRect,0.250000X0.450000X-0.325000X0.450000X0.325000X-0.450000X0.325000X-0.450000X-0.325000X0*%
%ADD35R,0.800000X1.000000*%
%ADD36R,1.500000X0.700000*%
%ADD37R,3.500000X2.950000*%
G04 APERTURE END LIST*
D10*
%TO.C,TP5*%
X46571200Y-87206800D03*
%TD*%
D11*
%TO.C,R17*%
X41532200Y-102031800D03*
X41532200Y-100031800D03*
%TD*%
D12*
%TO.C,V1*%
X118262200Y-78612800D03*
X110642200Y-78612800D03*
X36596200Y-78612800D03*
X28981200Y-78612800D03*
%TD*%
D13*
%TO.C,R15*%
X36436200Y-103063800D03*
X34436200Y-103063800D03*
%TD*%
D14*
%TO.C,C2*%
X49621200Y-90606800D03*
X49621200Y-93731800D03*
%TD*%
D10*
%TO.C,TP1*%
X83521200Y-102906800D03*
%TD*%
D15*
%TO.C,C11*%
X43713200Y-93577300D03*
X43713200Y-95652300D03*
%TD*%
D16*
%TO.C,D3*%
X56519952Y-92306021D03*
X52599952Y-92306021D03*
%TD*%
D17*
%TO.C,Q3*%
X34232200Y-100569300D03*
X36132200Y-100569300D03*
X35182200Y-98689300D03*
%TD*%
D18*
%TO.C,C9*%
X39193935Y-87336319D03*
X37118935Y-87336319D03*
%TD*%
D19*
%TO.C,Q2*%
X64947200Y-93664800D03*
X64947200Y-95564800D03*
X66827200Y-94614800D03*
%TD*%
D20*
%TO.C,C7*%
X71790377Y-89330132D03*
X71790377Y-87255132D03*
%TD*%
D13*
%TO.C,R14*%
X111005200Y-103946800D03*
X109005200Y-103946800D03*
%TD*%
D11*
%TO.C,R3*%
X53629200Y-100610800D03*
X53629200Y-98610800D03*
%TD*%
D21*
%TO.C,D1*%
X115376200Y-100826800D03*
X113326200Y-100826800D03*
%TD*%
D22*
%TO.C,RV1*%
X75441200Y-99456800D03*
D23*
X78691200Y-100456800D03*
D22*
X75441200Y-101456800D03*
%TD*%
D24*
%TO.C,R12*%
X43713200Y-89042800D03*
X43713200Y-91042800D03*
%TD*%
D10*
%TO.C,TP3*%
X64596200Y-102256800D03*
%TD*%
D19*
%TO.C,Q1*%
X64947200Y-88863829D03*
X64947200Y-90763829D03*
X66827200Y-89813829D03*
%TD*%
D24*
%TO.C,R11*%
X49057200Y-98610800D03*
X49057200Y-100610800D03*
%TD*%
D25*
%TO.C,U1*%
X74621200Y-90164800D03*
X74621200Y-91434800D03*
X74621200Y-92714800D03*
X74621200Y-93984800D03*
X79861200Y-93984800D03*
X79861200Y-92714800D03*
X79861200Y-91434800D03*
X79861200Y-90164800D03*
%TD*%
D24*
%TO.C,R9*%
X82829200Y-93360800D03*
X82829200Y-95360800D03*
%TD*%
%TO.C,R6*%
X55915200Y-98610800D03*
X55915200Y-100610800D03*
%TD*%
D10*
%TO.C,TP8*%
X38521200Y-97506800D03*
%TD*%
D25*
%TO.C,U2*%
X35505200Y-90164800D03*
X35505200Y-91434800D03*
X35505200Y-92714800D03*
X35505200Y-93984800D03*
X40745200Y-93984800D03*
X40745200Y-92714800D03*
X40745200Y-91434800D03*
X40745200Y-90164800D03*
%TD*%
D14*
%TO.C,C8*%
X46771200Y-97794300D03*
X46771200Y-100919300D03*
%TD*%
D10*
%TO.C,TP2*%
X96239687Y-102885185D03*
%TD*%
D26*
%TO.C,C4*%
X102133200Y-91480800D03*
X102133200Y-87080800D03*
%TD*%
D24*
%TO.C,R2*%
X51343200Y-98610800D03*
X51343200Y-100610800D03*
%TD*%
D27*
%TO.C,C5*%
X102136146Y-95746721D03*
X102136146Y-100146721D03*
%TD*%
D28*
%TO.C,J1*%
X109753200Y-88852800D03*
D29*
X109753200Y-91352800D03*
X109753200Y-93852800D03*
%TD*%
D11*
%TO.C,R13*%
X32791200Y-95614800D03*
X32791200Y-93614800D03*
%TD*%
D30*
%TO.C,R10*%
X76241200Y-96392800D03*
X78241200Y-96392800D03*
%TD*%
D20*
%TO.C,C10*%
X39246200Y-102069300D03*
X39246200Y-99994300D03*
%TD*%
D11*
%TO.C,R8*%
X71790377Y-93356632D03*
X71790377Y-91356632D03*
%TD*%
D20*
%TO.C,C1*%
X116577200Y-90420300D03*
X116577200Y-88345300D03*
%TD*%
D10*
%TO.C,TP7*%
X68271200Y-86806800D03*
%TD*%
D31*
%TO.C,D2*%
X52599952Y-89258021D03*
X56519952Y-89258021D03*
%TD*%
D24*
%TO.C,R7*%
X82829200Y-88534800D03*
X82829200Y-90534800D03*
%TD*%
D18*
%TO.C,C6*%
X78278700Y-87502800D03*
X76203700Y-87502800D03*
%TD*%
D32*
%TO.C,C3*%
X60041200Y-93809300D03*
X60041200Y-90684300D03*
%TD*%
D33*
%TO.C,L2*%
X88751200Y-98932800D03*
X91751200Y-98932800D03*
%TD*%
D10*
%TO.C,TP4*%
X70421200Y-97156800D03*
%TD*%
D34*
%TO.C,F1*%
X116577200Y-94725800D03*
X116577200Y-92675800D03*
%TD*%
D30*
%TO.C,R1*%
X109005200Y-100898800D03*
X111005200Y-100898800D03*
%TD*%
D31*
%TO.C,D4*%
X52599952Y-95354021D03*
X56519952Y-95354021D03*
%TD*%
D11*
%TO.C,R5*%
X58201200Y-100610800D03*
X58201200Y-98610800D03*
%TD*%
%TO.C,R16*%
X32791200Y-90788800D03*
X32791200Y-88788800D03*
%TD*%
D35*
%TO.C,SW1*%
X119371200Y-94716800D03*
X121581200Y-94716800D03*
X119371200Y-87416800D03*
X121581200Y-87416800D03*
D36*
X118721200Y-93316800D03*
X118721200Y-90316800D03*
X118721200Y-88816800D03*
%TD*%
D10*
%TO.C,TP6*%
X32771200Y-86156800D03*
%TD*%
D24*
%TO.C,R4*%
X60487200Y-98610800D03*
X60487200Y-100610800D03*
%TD*%
D21*
%TO.C,D5*%
X115348200Y-103946800D03*
X113298200Y-103946800D03*
%TD*%
D37*
%TO.C,L1*%
X91973200Y-86301800D03*
X91973200Y-91751800D03*
%TD*%
M02*
