%TF.GenerationSoftware,KiCad,Pcbnew,9.0.5*%
%TF.CreationDate,2025-12-22T18:40:51+01:00*%
%TF.ProjectId,Carte__lectronique,43617274-655f-4e96-9c65-6374726f6e69,rev?*%
%TF.SameCoordinates,Original*%
%TF.FileFunction,Copper,L2,Bot*%
%TF.FilePolarity,Positive*%
%FSLAX46Y46*%
G04 Gerber Fmt 4.6, Leading zero omitted, Abs format (unit mm)*
G04 Created by KiCad (PCBNEW 9.0.5) date 2025-12-22 18:40:51*
%MOMM*%
%LPD*%
G01*
G04 APERTURE LIST*
G04 Aperture macros list*
%AMRoundRect*
0 Rectangle with rounded corners*
0 $1 Rounding radius*
0 $2 $3 $4 $5 $6 $7 $8 $9 X,Y pos of 4 corners*
0 Add a 4 corners polygon primitive as box body*
4,1,4,$2,$3,$4,$5,$6,$7,$8,$9,$2,$3,0*
0 Add four circle primitives for the rounded corners*
1,1,$1+$1,$2,$3*
1,1,$1+$1,$4,$5*
1,1,$1+$1,$6,$7*
1,1,$1+$1,$8,$9*
0 Add four rect primitives between the rounded corners*
20,1,$1+$1,$2,$3,$4,$5,0*
20,1,$1+$1,$4,$5,$6,$7,0*
20,1,$1+$1,$6,$7,$8,$9,0*
20,1,$1+$1,$8,$9,$2,$3,0*%
G04 Aperture macros list end*
%TA.AperFunction,ComponentPad*%
%ADD10C,1.500000*%
%TD*%
%TA.AperFunction,ComponentPad*%
%ADD11C,4.000000*%
%TD*%
%TA.AperFunction,ComponentPad*%
%ADD12RoundRect,0.250000X-0.725000X0.600000X-0.725000X-0.600000X0.725000X-0.600000X0.725000X0.600000X0*%
%TD*%
%TA.AperFunction,ComponentPad*%
%ADD13O,1.950000X1.700000*%
%TD*%
%TA.AperFunction,ComponentPad*%
%ADD14C,2.400000*%
%TD*%
%TA.AperFunction,ViaPad*%
%ADD15C,0.800000*%
%TD*%
%TA.AperFunction,Conductor*%
%ADD16C,0.300000*%
%TD*%
G04 APERTURE END LIST*
D10*
%TO.P,TP5,1,1*%
%TO.N,/tripleur*%
X46571200Y-87206800D03*
%TD*%
D11*
%TO.P,V1,1,1*%
%TO.N,/400V_HV_TP*%
X118262200Y-78612800D03*
X110642200Y-78612800D03*
%TO.P,V1,2,2*%
%TO.N,Net-(C10-Pad1)*%
X36596200Y-78612800D03*
X28981200Y-78612800D03*
%TD*%
D10*
%TO.P,TP1,1,1*%
%TO.N,+5V*%
X83521200Y-102906800D03*
%TD*%
%TO.P,TP3,1,1*%
%TO.N,Net-(R4-Pad1)*%
X64596200Y-102256800D03*
%TD*%
%TO.P,TP8,1,1*%
%TO.N,/out_NE-Mono*%
X38521200Y-97506800D03*
%TD*%
%TO.P,TP2,1,1*%
%TO.N,GND*%
X96239687Y-102885185D03*
%TD*%
D12*
%TO.P,J1,1,Pin_1*%
%TO.N,GND*%
X109753200Y-88852800D03*
D13*
%TO.P,J1,2,Pin_2*%
%TO.N,INT*%
X109753200Y-91352800D03*
%TO.P,J1,3,Pin_3*%
%TO.N,Net-(J1-Pin_3)*%
X109753200Y-93852800D03*
%TD*%
D10*
%TO.P,TP7,1,1*%
%TO.N,/out_NE-A*%
X68271200Y-86806800D03*
%TD*%
D14*
%TO.P,L2,1,1*%
%TO.N,/boost_dc*%
X88751200Y-98932800D03*
%TO.P,L2,2,2*%
%TO.N,Net-(U1-VCC)*%
X91751200Y-98932800D03*
%TD*%
D10*
%TO.P,TP4,1,1*%
%TO.N,/boost_dc*%
X70421200Y-97156800D03*
%TD*%
%TO.P,TP6,1,1*%
%TO.N,INT*%
X32771200Y-86156800D03*
%TD*%
D15*
%TO.N,+5V*%
X107211200Y-100898800D03*
X39193935Y-87336319D03*
X78241200Y-96392800D03*
X105181200Y-92328800D03*
X118101200Y-87096800D03*
%TO.N,/boost_dc*%
X68003324Y-90878056D03*
%TO.N,INT*%
X32791200Y-88788800D03*
%TO.N,/400V_HV_TP*%
X60985200Y-88303300D03*
X49057200Y-100610800D03*
%TO.N,/out_NE-A*%
X71790377Y-93356632D03*
%TO.N,/out_NE-Mono*%
X37067448Y-92714800D03*
X107211200Y-103946800D03*
%TO.N,Net-(R4-Pad1)*%
X60495200Y-98602800D03*
%TO.N,Net-(C10-Pad1)*%
X39246200Y-102069300D03*
%TD*%
D16*
%TO.N,/boost_dc*%
X70421200Y-95558451D02*
X70421200Y-97156800D01*
X68003324Y-93140575D02*
X68003324Y-90878056D01*
X88751200Y-98932800D02*
X85195200Y-95376800D01*
X85195200Y-95376800D02*
X70239549Y-95376800D01*
X70239549Y-95376800D02*
X70421200Y-95558451D01*
X70239549Y-95376800D02*
X68003324Y-93140575D01*
%TO.N,INT*%
X32771200Y-86156800D02*
X32771200Y-88768800D01*
X50047200Y-88788800D02*
X53679200Y-85156800D01*
X109744200Y-91343800D02*
X109753200Y-91352800D01*
X32771200Y-88768800D02*
X32791200Y-88788800D01*
X99465200Y-85156800D02*
X105652200Y-91343800D01*
X32791200Y-88788800D02*
X50047200Y-88788800D01*
X53679200Y-85156800D02*
X99465200Y-85156800D01*
X105652200Y-91343800D02*
X109744200Y-91343800D01*
%TO.N,/400V_HV_TP*%
X60985200Y-88303300D02*
X60985200Y-88342800D01*
X49057200Y-100270800D02*
X49057200Y-100610800D01*
X60985200Y-88342800D02*
X49057200Y-100270800D01*
%TO.N,/out_NE-A*%
X69396200Y-87931800D02*
X69396200Y-92406800D01*
X68271200Y-86806800D02*
X69396200Y-87931800D01*
X70346032Y-93356632D02*
X71790377Y-93356632D01*
X69396200Y-92406800D02*
X70346032Y-93356632D01*
%TO.N,/out_NE-Mono*%
X64541200Y-88264800D02*
X64541200Y-95884800D01*
X37067448Y-92714800D02*
X37453448Y-93100800D01*
X38521200Y-97506800D02*
X38521200Y-95518800D01*
X49213681Y-95972319D02*
X58445200Y-86740800D01*
X64541200Y-95884800D02*
X73863200Y-105206800D01*
X37453448Y-94451048D02*
X38521200Y-95518800D01*
X38521200Y-95518800D02*
X38974719Y-95972319D01*
X105011200Y-105206800D02*
X106271200Y-103946800D01*
X38974719Y-95972319D02*
X49213681Y-95972319D01*
X58445200Y-86740800D02*
X63017200Y-86740800D01*
X37453448Y-93100800D02*
X37453448Y-94451048D01*
X106271200Y-103946800D02*
X107211200Y-103946800D01*
X63017200Y-86740800D02*
X64541200Y-88264800D01*
X73863200Y-105206800D02*
X105011200Y-105206800D01*
%TO.N,Net-(R4-Pad1)*%
X61317200Y-98602800D02*
X64596200Y-101881800D01*
X64596200Y-101881800D02*
X64596200Y-102256800D01*
X60495200Y-98602800D02*
X61317200Y-98602800D01*
%TO.N,Net-(C10-Pad1)*%
X36265200Y-78612800D02*
X29489200Y-85388800D01*
X29489200Y-85388800D02*
X29489200Y-99186800D01*
X29489200Y-99186800D02*
X32371700Y-102069300D01*
X32371700Y-102069300D02*
X39246200Y-102069300D01*
X36251062Y-78267662D02*
X36596200Y-78612800D01*
X36596200Y-78612800D02*
X36265200Y-78612800D01*
X27714696Y-78267662D02*
X36251062Y-78267662D01*
%TD*%
%TA.AperFunction,Conductor*%
%TO.N,+5V*%
G36*
X29802174Y-84226085D02*
G01*
X29847929Y-84278889D01*
X29857873Y-84348047D01*
X29828848Y-84411603D01*
X29822816Y-84418081D01*
X29128713Y-85112183D01*
X29128709Y-85112189D01*
X29069401Y-85214912D01*
X29069400Y-85214917D01*
X29038700Y-85329491D01*
X29038700Y-99246108D01*
X29062912Y-99336472D01*
X29069400Y-99360685D01*
X29069400Y-99360686D01*
X29069401Y-99360687D01*
X29128711Y-99463414D01*
X32095086Y-102429790D01*
X32197814Y-102489099D01*
X32312391Y-102519800D01*
X38654682Y-102519800D01*
X38721721Y-102539485D01*
X38742358Y-102556114D01*
X38799655Y-102613411D01*
X38799659Y-102613415D01*
X38914382Y-102690071D01*
X38914395Y-102690078D01*
X39041867Y-102742878D01*
X39041872Y-102742880D01*
X39041876Y-102742880D01*
X39041877Y-102742881D01*
X39177204Y-102769800D01*
X39177207Y-102769800D01*
X39315195Y-102769800D01*
X39406241Y-102751689D01*
X39450528Y-102742880D01*
X39578011Y-102690075D01*
X39692742Y-102613414D01*
X39790314Y-102515842D01*
X39866975Y-102401111D01*
X39919780Y-102273628D01*
X39931109Y-102216672D01*
X39946700Y-102138295D01*
X39946700Y-102000304D01*
X39919781Y-101864977D01*
X39919780Y-101864976D01*
X39919780Y-101864972D01*
X39919013Y-101863120D01*
X39866978Y-101737495D01*
X39866971Y-101737482D01*
X39790314Y-101622758D01*
X39790311Y-101622754D01*
X39692745Y-101525188D01*
X39692741Y-101525185D01*
X39578017Y-101448528D01*
X39578004Y-101448521D01*
X39450532Y-101395721D01*
X39450522Y-101395718D01*
X39315195Y-101368800D01*
X39315193Y-101368800D01*
X39177207Y-101368800D01*
X39177205Y-101368800D01*
X39041877Y-101395718D01*
X39041867Y-101395721D01*
X38914395Y-101448521D01*
X38914382Y-101448528D01*
X38799659Y-101525184D01*
X38771011Y-101553832D01*
X38742361Y-101582482D01*
X38681041Y-101615966D01*
X38654682Y-101618800D01*
X32609666Y-101618800D01*
X32542627Y-101599115D01*
X32521985Y-101582481D01*
X31619299Y-100679795D01*
X48356699Y-100679795D01*
X48383618Y-100815122D01*
X48383621Y-100815132D01*
X48436421Y-100942604D01*
X48436428Y-100942617D01*
X48513085Y-101057341D01*
X48513088Y-101057345D01*
X48610654Y-101154911D01*
X48610658Y-101154914D01*
X48725382Y-101231571D01*
X48725395Y-101231578D01*
X48852867Y-101284378D01*
X48852872Y-101284380D01*
X48852876Y-101284380D01*
X48852877Y-101284381D01*
X48988204Y-101311300D01*
X48988207Y-101311300D01*
X49126195Y-101311300D01*
X49217241Y-101293189D01*
X49261528Y-101284380D01*
X49389011Y-101231575D01*
X49503742Y-101154914D01*
X49601314Y-101057342D01*
X49677975Y-100942611D01*
X49730780Y-100815128D01*
X49757700Y-100679793D01*
X49757700Y-100541807D01*
X49757700Y-100541804D01*
X49730781Y-100406477D01*
X49730780Y-100406476D01*
X49730780Y-100406472D01*
X49726589Y-100396353D01*
X49712065Y-100361289D01*
X49704596Y-100291820D01*
X49735871Y-100229341D01*
X49738917Y-100226184D01*
X51293306Y-98671795D01*
X59794699Y-98671795D01*
X59821618Y-98807122D01*
X59821621Y-98807132D01*
X59874421Y-98934604D01*
X59874428Y-98934617D01*
X59951085Y-99049341D01*
X59951088Y-99049345D01*
X60048654Y-99146911D01*
X60048658Y-99146914D01*
X60163382Y-99223571D01*
X60163395Y-99223578D01*
X60290867Y-99276378D01*
X60290872Y-99276380D01*
X60290876Y-99276380D01*
X60290877Y-99276381D01*
X60426204Y-99303300D01*
X60426207Y-99303300D01*
X60564195Y-99303300D01*
X60660375Y-99284168D01*
X60699528Y-99276380D01*
X60827011Y-99223575D01*
X60941742Y-99146914D01*
X60995297Y-99093358D01*
X61056616Y-99059875D01*
X61126308Y-99064858D01*
X61170657Y-99093360D01*
X63661889Y-101584592D01*
X63695374Y-101645915D01*
X63690390Y-101715607D01*
X63677314Y-101741159D01*
X63665257Y-101759203D01*
X63586070Y-101950379D01*
X63586068Y-101950387D01*
X63545700Y-102153330D01*
X63545700Y-102360269D01*
X63584793Y-102556800D01*
X63586070Y-102563220D01*
X63665259Y-102754398D01*
X63675550Y-102769800D01*
X63780224Y-102926457D01*
X63926542Y-103072775D01*
X63926545Y-103072777D01*
X64098602Y-103187741D01*
X64289780Y-103266930D01*
X64492730Y-103307299D01*
X64492734Y-103307300D01*
X64492735Y-103307300D01*
X64699666Y-103307300D01*
X64699667Y-103307299D01*
X64902620Y-103266930D01*
X65093798Y-103187741D01*
X65265855Y-103072777D01*
X65412177Y-102926455D01*
X65527141Y-102754398D01*
X65606330Y-102563220D01*
X65646700Y-102360265D01*
X65646700Y-102153335D01*
X65606330Y-101950380D01*
X65527141Y-101759202D01*
X65412177Y-101587145D01*
X65412175Y-101587142D01*
X65265857Y-101440824D01*
X65158064Y-101368800D01*
X65093798Y-101325859D01*
X64993659Y-101284380D01*
X64902620Y-101246670D01*
X64902612Y-101246668D01*
X64699669Y-101206300D01*
X64699665Y-101206300D01*
X64609165Y-101206300D01*
X64542126Y-101186615D01*
X64521484Y-101169981D01*
X61593816Y-98242313D01*
X61593814Y-98242311D01*
X61491087Y-98183001D01*
X61491084Y-98182999D01*
X61466658Y-98176455D01*
X61466657Y-98176454D01*
X61466657Y-98176455D01*
X61391265Y-98156254D01*
X61376509Y-98152300D01*
X61376508Y-98152300D01*
X61086718Y-98152300D01*
X61019679Y-98132615D01*
X60999041Y-98115985D01*
X60941742Y-98058686D01*
X60941741Y-98058685D01*
X60941740Y-98058684D01*
X60827017Y-97982028D01*
X60827004Y-97982021D01*
X60699532Y-97929221D01*
X60699522Y-97929218D01*
X60564195Y-97902300D01*
X60564193Y-97902300D01*
X60426207Y-97902300D01*
X60426205Y-97902300D01*
X60290877Y-97929218D01*
X60290867Y-97929221D01*
X60163395Y-97982021D01*
X60163382Y-97982028D01*
X60048658Y-98058685D01*
X60048654Y-98058688D01*
X59951088Y-98156254D01*
X59951085Y-98156258D01*
X59874428Y-98270982D01*
X59874421Y-98270995D01*
X59821621Y-98398467D01*
X59821618Y-98398477D01*
X59794700Y-98533804D01*
X59794700Y-98533807D01*
X59794700Y-98671793D01*
X59794700Y-98671795D01*
X59794699Y-98671795D01*
X51293306Y-98671795D01*
X60924984Y-89040119D01*
X60986307Y-89006634D01*
X61012665Y-89003800D01*
X61054195Y-89003800D01*
X61145241Y-88985689D01*
X61189528Y-88976880D01*
X61317011Y-88924075D01*
X61431742Y-88847414D01*
X61529314Y-88749842D01*
X61605975Y-88635111D01*
X61658780Y-88507628D01*
X61685700Y-88372293D01*
X61685700Y-88234307D01*
X61685700Y-88234304D01*
X61658781Y-88098977D01*
X61658780Y-88098976D01*
X61658780Y-88098972D01*
X61655442Y-88090914D01*
X61605978Y-87971495D01*
X61605971Y-87971482D01*
X61529314Y-87856758D01*
X61529311Y-87856754D01*
X61431745Y-87759188D01*
X61431741Y-87759185D01*
X61317017Y-87682528D01*
X61317004Y-87682521D01*
X61189532Y-87629721D01*
X61189522Y-87629718D01*
X61054195Y-87602800D01*
X61054193Y-87602800D01*
X60916207Y-87602800D01*
X60916205Y-87602800D01*
X60780877Y-87629718D01*
X60780867Y-87629721D01*
X60653395Y-87682521D01*
X60653382Y-87682528D01*
X60538658Y-87759185D01*
X60538654Y-87759188D01*
X60441088Y-87856754D01*
X60441085Y-87856758D01*
X60364428Y-87971482D01*
X60364421Y-87971495D01*
X60311621Y-88098967D01*
X60311618Y-88098977D01*
X60284700Y-88234304D01*
X60284700Y-88354834D01*
X60265015Y-88421873D01*
X60248381Y-88442515D01*
X48696711Y-99994185D01*
X48691764Y-100000632D01*
X48691001Y-100000047D01*
X48658573Y-100034669D01*
X48610660Y-100066684D01*
X48513084Y-100164259D01*
X48436428Y-100278982D01*
X48436421Y-100278995D01*
X48383621Y-100406467D01*
X48383618Y-100406477D01*
X48356700Y-100541804D01*
X48356700Y-100541807D01*
X48356700Y-100679793D01*
X48356700Y-100679795D01*
X48356699Y-100679795D01*
X31619299Y-100679795D01*
X29976019Y-99036515D01*
X29942534Y-98975192D01*
X29939700Y-98948834D01*
X29939700Y-92783795D01*
X36366947Y-92783795D01*
X36393866Y-92919122D01*
X36393869Y-92919132D01*
X36446669Y-93046604D01*
X36446676Y-93046617D01*
X36523333Y-93161341D01*
X36523336Y-93161345D01*
X36620902Y-93258911D01*
X36620906Y-93258914D01*
X36735630Y-93335571D01*
X36735643Y-93335578D01*
X36863115Y-93388378D01*
X36863120Y-93388380D01*
X36903139Y-93396340D01*
X36965049Y-93428723D01*
X36999624Y-93489438D01*
X37002948Y-93517957D01*
X37002948Y-94510358D01*
X37026564Y-94598497D01*
X37033647Y-94624931D01*
X37033648Y-94624934D01*
X37033649Y-94624935D01*
X37092959Y-94727662D01*
X37092961Y-94727664D01*
X38034381Y-95669084D01*
X38067866Y-95730407D01*
X38070700Y-95756765D01*
X38070700Y-96478109D01*
X38051015Y-96545148D01*
X38015591Y-96581211D01*
X37851544Y-96690822D01*
X37705224Y-96837142D01*
X37590258Y-97009203D01*
X37511070Y-97200379D01*
X37511068Y-97200387D01*
X37470700Y-97403330D01*
X37470700Y-97610269D01*
X37506110Y-97788285D01*
X37511070Y-97813220D01*
X37590259Y-98004398D01*
X37626532Y-98058685D01*
X37705223Y-98176455D01*
X37705225Y-98176458D01*
X37851542Y-98322775D01*
X37851545Y-98322777D01*
X38023602Y-98437741D01*
X38214780Y-98516930D01*
X38417730Y-98557299D01*
X38417734Y-98557300D01*
X38417735Y-98557300D01*
X38624666Y-98557300D01*
X38624667Y-98557299D01*
X38827620Y-98516930D01*
X39018798Y-98437741D01*
X39190855Y-98322777D01*
X39337177Y-98176455D01*
X39452141Y-98004398D01*
X39531330Y-97813220D01*
X39571700Y-97610265D01*
X39571700Y-97403335D01*
X39531330Y-97200380D01*
X39452141Y-97009202D01*
X39337177Y-96837145D01*
X39337175Y-96837142D01*
X39190858Y-96690825D01*
X39190850Y-96690819D01*
X39129642Y-96649921D01*
X39084836Y-96596309D01*
X39076129Y-96526984D01*
X39106283Y-96463957D01*
X39165726Y-96427237D01*
X39198532Y-96422819D01*
X49272989Y-96422819D01*
X49272990Y-96422819D01*
X49363354Y-96398605D01*
X49387568Y-96392118D01*
X49490295Y-96332808D01*
X58595484Y-87227619D01*
X58656807Y-87194134D01*
X58683165Y-87191300D01*
X62779235Y-87191300D01*
X62846274Y-87210985D01*
X62866916Y-87227619D01*
X64054381Y-88415084D01*
X64087866Y-88476407D01*
X64090700Y-88502765D01*
X64090700Y-95944111D01*
X64097449Y-95969296D01*
X64097449Y-95969299D01*
X64097450Y-95969299D01*
X64121401Y-96058687D01*
X64180711Y-96161414D01*
X73586586Y-105567290D01*
X73689313Y-105626599D01*
X73713521Y-105633084D01*
X73713524Y-105633086D01*
X73713525Y-105633086D01*
X73743647Y-105641157D01*
X73803891Y-105657300D01*
X73803893Y-105657300D01*
X105070508Y-105657300D01*
X105070509Y-105657300D01*
X105160873Y-105633086D01*
X105185087Y-105626599D01*
X105287814Y-105567289D01*
X106421484Y-104433619D01*
X106448411Y-104418915D01*
X106474230Y-104402323D01*
X106480430Y-104401431D01*
X106482807Y-104400134D01*
X106509165Y-104397300D01*
X106619682Y-104397300D01*
X106686721Y-104416985D01*
X106707358Y-104433614D01*
X106764655Y-104490911D01*
X106764659Y-104490915D01*
X106879382Y-104567571D01*
X106879395Y-104567578D01*
X107006867Y-104620378D01*
X107006872Y-104620380D01*
X107006876Y-104620380D01*
X107006877Y-104620381D01*
X107142204Y-104647300D01*
X107142207Y-104647300D01*
X107280195Y-104647300D01*
X107371241Y-104629189D01*
X107415528Y-104620380D01*
X107514124Y-104579540D01*
X107543004Y-104567578D01*
X107543004Y-104567577D01*
X107543011Y-104567575D01*
X107657742Y-104490914D01*
X107755314Y-104393342D01*
X107831975Y-104278611D01*
X107884695Y-104151334D01*
X119383694Y-104151334D01*
X119383694Y-104387529D01*
X119420640Y-104620800D01*
X119493627Y-104845428D01*
X119600851Y-105055865D01*
X119739677Y-105246942D01*
X119906684Y-105413949D01*
X120097761Y-105552775D01*
X120197185Y-105603434D01*
X120308197Y-105659998D01*
X120308199Y-105659998D01*
X120308202Y-105660000D01*
X120428606Y-105699121D01*
X120532825Y-105732985D01*
X120766097Y-105769932D01*
X120766102Y-105769932D01*
X121002291Y-105769932D01*
X121235562Y-105732985D01*
X121460186Y-105660000D01*
X121670627Y-105552775D01*
X121861704Y-105413949D01*
X122028711Y-105246942D01*
X122167537Y-105055865D01*
X122274762Y-104845424D01*
X122347747Y-104620800D01*
X122355237Y-104573508D01*
X122384694Y-104387529D01*
X122384694Y-104151334D01*
X122347747Y-103918063D01*
X122290695Y-103742477D01*
X122274762Y-103693440D01*
X122274760Y-103693437D01*
X122274760Y-103693435D01*
X122189957Y-103527001D01*
X122167537Y-103482999D01*
X122028711Y-103291922D01*
X121861704Y-103124915D01*
X121670627Y-102986089D01*
X121605447Y-102952878D01*
X121460190Y-102878865D01*
X121235562Y-102805878D01*
X121002291Y-102768932D01*
X121002286Y-102768932D01*
X120766102Y-102768932D01*
X120766097Y-102768932D01*
X120532825Y-102805878D01*
X120308197Y-102878865D01*
X120097760Y-102986089D01*
X120020951Y-103041895D01*
X119906684Y-103124915D01*
X119906682Y-103124917D01*
X119906681Y-103124917D01*
X119739679Y-103291919D01*
X119739679Y-103291920D01*
X119739677Y-103291922D01*
X119680056Y-103373982D01*
X119600851Y-103482998D01*
X119493627Y-103693435D01*
X119420640Y-103918063D01*
X119383694Y-104151334D01*
X107884695Y-104151334D01*
X107884780Y-104151128D01*
X107911700Y-104015793D01*
X107911700Y-103877807D01*
X107911700Y-103877804D01*
X107884781Y-103742477D01*
X107884780Y-103742476D01*
X107884780Y-103742472D01*
X107867668Y-103701160D01*
X107831978Y-103614995D01*
X107831971Y-103614982D01*
X107755314Y-103500258D01*
X107755311Y-103500254D01*
X107657745Y-103402688D01*
X107657741Y-103402685D01*
X107543017Y-103326028D01*
X107543004Y-103326021D01*
X107415532Y-103273221D01*
X107415522Y-103273218D01*
X107280195Y-103246300D01*
X107280193Y-103246300D01*
X107142207Y-103246300D01*
X107142205Y-103246300D01*
X107006877Y-103273218D01*
X107006867Y-103273221D01*
X106879395Y-103326021D01*
X106879382Y-103326028D01*
X106764659Y-103402684D01*
X106736011Y-103431332D01*
X106707361Y-103459982D01*
X106646041Y-103493466D01*
X106619682Y-103496300D01*
X106211891Y-103496300D01*
X106121525Y-103520513D01*
X106121524Y-103520512D01*
X106097316Y-103526999D01*
X106097313Y-103527000D01*
X105994586Y-103586311D01*
X105994583Y-103586313D01*
X104860916Y-104719981D01*
X104799593Y-104753466D01*
X104773235Y-104756300D01*
X74101166Y-104756300D01*
X74034127Y-104736615D01*
X74013485Y-104719981D01*
X73243981Y-103950477D01*
X82831073Y-103950477D01*
X82831073Y-103950478D01*
X82866058Y-103975896D01*
X83041364Y-104065218D01*
X83228494Y-104126021D01*
X83422818Y-104156800D01*
X83619582Y-104156800D01*
X83813905Y-104126021D01*
X84001035Y-104065218D01*
X84176343Y-103975895D01*
X84211325Y-103950478D01*
X84211326Y-103950478D01*
X83521201Y-103260353D01*
X83521200Y-103260353D01*
X82831073Y-103950477D01*
X73243981Y-103950477D01*
X72101921Y-102808417D01*
X82271200Y-102808417D01*
X82271200Y-103005182D01*
X82301978Y-103199505D01*
X82362781Y-103386635D01*
X82452105Y-103561945D01*
X82477519Y-103596925D01*
X82477520Y-103596925D01*
X83167646Y-102906800D01*
X83167646Y-102906799D01*
X83121569Y-102860722D01*
X83171200Y-102860722D01*
X83171200Y-102952878D01*
X83195052Y-103041895D01*
X83241130Y-103121705D01*
X83306295Y-103186870D01*
X83386105Y-103232948D01*
X83475122Y-103256800D01*
X83567278Y-103256800D01*
X83656295Y-103232948D01*
X83736105Y-103186870D01*
X83801270Y-103121705D01*
X83847348Y-103041895D01*
X83871200Y-102952878D01*
X83871200Y-102906799D01*
X83874753Y-102906799D01*
X83874753Y-102906801D01*
X84564878Y-103596926D01*
X84564878Y-103596925D01*
X84590295Y-103561943D01*
X84679618Y-103386635D01*
X84740421Y-103199505D01*
X84771200Y-103005182D01*
X84771200Y-102808417D01*
X84769079Y-102795026D01*
X84766971Y-102781715D01*
X95189187Y-102781715D01*
X95189187Y-102988654D01*
X95229555Y-103191597D01*
X95229557Y-103191605D01*
X95258033Y-103260353D01*
X95308746Y-103382783D01*
X95322044Y-103402685D01*
X95423711Y-103554842D01*
X95570029Y-103701160D01*
X95570032Y-103701162D01*
X95742089Y-103816126D01*
X95933267Y-103895315D01*
X96136217Y-103935684D01*
X96136221Y-103935685D01*
X96136222Y-103935685D01*
X96343153Y-103935685D01*
X96343154Y-103935684D01*
X96546107Y-103895315D01*
X96737285Y-103816126D01*
X96909342Y-103701162D01*
X97055664Y-103554840D01*
X97170628Y-103382783D01*
X97249817Y-103191605D01*
X97290187Y-102988650D01*
X97290187Y-102781720D01*
X97249817Y-102578765D01*
X97170628Y-102387587D01*
X97055664Y-102215530D01*
X97055662Y-102215527D01*
X96909344Y-102069209D01*
X96806219Y-102000304D01*
X96737285Y-101954244D01*
X96727973Y-101950387D01*
X96546107Y-101875055D01*
X96546099Y-101875053D01*
X96343156Y-101834685D01*
X96343152Y-101834685D01*
X96136222Y-101834685D01*
X96136217Y-101834685D01*
X95933274Y-101875053D01*
X95933266Y-101875055D01*
X95742090Y-101954243D01*
X95570029Y-102069209D01*
X95423711Y-102215527D01*
X95308745Y-102387588D01*
X95229557Y-102578764D01*
X95229555Y-102578772D01*
X95189187Y-102781715D01*
X84766971Y-102781715D01*
X84740421Y-102614094D01*
X84679618Y-102426964D01*
X84590296Y-102251658D01*
X84564878Y-102216673D01*
X84564877Y-102216673D01*
X83874753Y-102906799D01*
X83871200Y-102906799D01*
X83871200Y-102860722D01*
X83847348Y-102771705D01*
X83801270Y-102691895D01*
X83736105Y-102626730D01*
X83656295Y-102580652D01*
X83567278Y-102556800D01*
X83475122Y-102556800D01*
X83386105Y-102580652D01*
X83306295Y-102626730D01*
X83241130Y-102691895D01*
X83195052Y-102771705D01*
X83171200Y-102860722D01*
X83121569Y-102860722D01*
X82477520Y-102216672D01*
X82477520Y-102216673D01*
X82452102Y-102251659D01*
X82452099Y-102251663D01*
X82362782Y-102426961D01*
X82301978Y-102614094D01*
X82271200Y-102808417D01*
X72101921Y-102808417D01*
X71156624Y-101863120D01*
X82831072Y-101863120D01*
X83521200Y-102553246D01*
X83521201Y-102553246D01*
X84211325Y-101863120D01*
X84211325Y-101863119D01*
X84176345Y-101837705D01*
X84001035Y-101748381D01*
X83813905Y-101687578D01*
X83619582Y-101656800D01*
X83422818Y-101656800D01*
X83228494Y-101687578D01*
X83041361Y-101748382D01*
X82866063Y-101837699D01*
X82866059Y-101837702D01*
X82831073Y-101863120D01*
X82831072Y-101863120D01*
X71156624Y-101863120D01*
X65028019Y-95734515D01*
X64994534Y-95673192D01*
X64991700Y-95646834D01*
X64991700Y-90947051D01*
X67302823Y-90947051D01*
X67329742Y-91082378D01*
X67329745Y-91082388D01*
X67382545Y-91209860D01*
X67382552Y-91209873D01*
X67459208Y-91324596D01*
X67459209Y-91324597D01*
X67459210Y-91324598D01*
X67516506Y-91381894D01*
X67549990Y-91443215D01*
X67552824Y-91469574D01*
X67552824Y-93199885D01*
X67563674Y-93240380D01*
X67563675Y-93240380D01*
X67583525Y-93314462D01*
X67642835Y-93417189D01*
X69934382Y-95708737D01*
X69967866Y-95770058D01*
X69970700Y-95796416D01*
X69970700Y-96128109D01*
X69951015Y-96195148D01*
X69915591Y-96231211D01*
X69751544Y-96340822D01*
X69605224Y-96487142D01*
X69490258Y-96659203D01*
X69411070Y-96850379D01*
X69411068Y-96850387D01*
X69370700Y-97053330D01*
X69370700Y-97260269D01*
X69411068Y-97463212D01*
X69411070Y-97463220D01*
X69490258Y-97654396D01*
X69605224Y-97826457D01*
X69751542Y-97972775D01*
X69751545Y-97972777D01*
X69923602Y-98087741D01*
X70114780Y-98166930D01*
X70317730Y-98207299D01*
X70317734Y-98207300D01*
X70317735Y-98207300D01*
X70524666Y-98207300D01*
X70524667Y-98207299D01*
X70727620Y-98166930D01*
X70918798Y-98087741D01*
X71090855Y-97972777D01*
X71237177Y-97826455D01*
X71352141Y-97654398D01*
X71431330Y-97463220D01*
X71471700Y-97260265D01*
X71471700Y-97053335D01*
X71431330Y-96850380D01*
X71352141Y-96659202D01*
X71237177Y-96487145D01*
X71237175Y-96487142D01*
X71090855Y-96340822D01*
X70926809Y-96231211D01*
X70921718Y-96225119D01*
X70914497Y-96221822D01*
X70899633Y-96198694D01*
X70882004Y-96177599D01*
X70880052Y-96168224D01*
X70876723Y-96163044D01*
X70871700Y-96128109D01*
X70871700Y-95951300D01*
X70891385Y-95884261D01*
X70944189Y-95838506D01*
X70995700Y-95827300D01*
X84957235Y-95827300D01*
X85024274Y-95846985D01*
X85044916Y-95863619D01*
X87356831Y-98175534D01*
X87390316Y-98236857D01*
X87385332Y-98306549D01*
X87379636Y-98319507D01*
X87360635Y-98356800D01*
X87287646Y-98581431D01*
X87250700Y-98814702D01*
X87250700Y-99050897D01*
X87287646Y-99284168D01*
X87360633Y-99508796D01*
X87467857Y-99719233D01*
X87606683Y-99910310D01*
X87773690Y-100077317D01*
X87964767Y-100216143D01*
X87984419Y-100226156D01*
X88175203Y-100323366D01*
X88175205Y-100323366D01*
X88175208Y-100323368D01*
X88291916Y-100361289D01*
X88399831Y-100396353D01*
X88633103Y-100433300D01*
X88633108Y-100433300D01*
X88869297Y-100433300D01*
X89102568Y-100396353D01*
X89327192Y-100323368D01*
X89537633Y-100216143D01*
X89728710Y-100077317D01*
X89895717Y-99910310D01*
X90034543Y-99719233D01*
X90140715Y-99510857D01*
X90188689Y-99460062D01*
X90256510Y-99443267D01*
X90322645Y-99465804D01*
X90361684Y-99510857D01*
X90467857Y-99719233D01*
X90606683Y-99910310D01*
X90773690Y-100077317D01*
X90964767Y-100216143D01*
X90984419Y-100226156D01*
X91175203Y-100323366D01*
X91175205Y-100323366D01*
X91175208Y-100323368D01*
X91291916Y-100361289D01*
X91399831Y-100396353D01*
X91633103Y-100433300D01*
X91633108Y-100433300D01*
X91869297Y-100433300D01*
X92102568Y-100396353D01*
X92327192Y-100323368D01*
X92537633Y-100216143D01*
X92728710Y-100077317D01*
X92895717Y-99910310D01*
X93034543Y-99719233D01*
X93141768Y-99508792D01*
X93214753Y-99284168D01*
X93215986Y-99276381D01*
X93251700Y-99050897D01*
X93251700Y-98814702D01*
X93214753Y-98581431D01*
X93141766Y-98356803D01*
X93049875Y-98176458D01*
X93034543Y-98146367D01*
X92895717Y-97955290D01*
X92728710Y-97788283D01*
X92537633Y-97649457D01*
X92327196Y-97542233D01*
X92102568Y-97469246D01*
X91869297Y-97432300D01*
X91869292Y-97432300D01*
X91633108Y-97432300D01*
X91633103Y-97432300D01*
X91399831Y-97469246D01*
X91175203Y-97542233D01*
X90964766Y-97649457D01*
X90855750Y-97728662D01*
X90773690Y-97788283D01*
X90773688Y-97788285D01*
X90773687Y-97788285D01*
X90606685Y-97955287D01*
X90606685Y-97955288D01*
X90606683Y-97955290D01*
X90571004Y-98004398D01*
X90467857Y-98146366D01*
X90361685Y-98354741D01*
X90313710Y-98405537D01*
X90245889Y-98422332D01*
X90179754Y-98399795D01*
X90140715Y-98354741D01*
X90083429Y-98242311D01*
X90034543Y-98146367D01*
X89895717Y-97955290D01*
X89728710Y-97788283D01*
X89537633Y-97649457D01*
X89327196Y-97542233D01*
X89102568Y-97469246D01*
X88869297Y-97432300D01*
X88869292Y-97432300D01*
X88633108Y-97432300D01*
X88633103Y-97432300D01*
X88399831Y-97469246D01*
X88227354Y-97525288D01*
X88175208Y-97542232D01*
X88175205Y-97542233D01*
X88175200Y-97542235D01*
X88137907Y-97561236D01*
X88069238Y-97574131D01*
X88004498Y-97547853D01*
X87993934Y-97538431D01*
X85471816Y-95016313D01*
X85471814Y-95016311D01*
X85400210Y-94974970D01*
X85369088Y-94957001D01*
X85356980Y-94953757D01*
X85344873Y-94950513D01*
X85344870Y-94950512D01*
X85306678Y-94940278D01*
X85254509Y-94926300D01*
X85254508Y-94926300D01*
X70477515Y-94926300D01*
X70410476Y-94906615D01*
X70389834Y-94889981D01*
X68490143Y-92990290D01*
X68456658Y-92928967D01*
X68453824Y-92902609D01*
X68453824Y-91469574D01*
X68473509Y-91402535D01*
X68490138Y-91381897D01*
X68547438Y-91324598D01*
X68624099Y-91209867D01*
X68676904Y-91082384D01*
X68687621Y-91028503D01*
X68697700Y-90977839D01*
X68697700Y-90977836D01*
X68703824Y-90947049D01*
X68703824Y-90809063D01*
X68697700Y-90778275D01*
X68697700Y-90778273D01*
X68676905Y-90673733D01*
X68676904Y-90673732D01*
X68676904Y-90673728D01*
X68647732Y-90603300D01*
X68624102Y-90546251D01*
X68624095Y-90546238D01*
X68547438Y-90431514D01*
X68547435Y-90431510D01*
X68449869Y-90333944D01*
X68449865Y-90333941D01*
X68335141Y-90257284D01*
X68335128Y-90257277D01*
X68207656Y-90204477D01*
X68207646Y-90204474D01*
X68072319Y-90177556D01*
X68072317Y-90177556D01*
X67934331Y-90177556D01*
X67934329Y-90177556D01*
X67799001Y-90204474D01*
X67798991Y-90204477D01*
X67671519Y-90257277D01*
X67671506Y-90257284D01*
X67556782Y-90333941D01*
X67556778Y-90333944D01*
X67459212Y-90431510D01*
X67459209Y-90431514D01*
X67382552Y-90546238D01*
X67382545Y-90546251D01*
X67329745Y-90673723D01*
X67329742Y-90673733D01*
X67302824Y-90809060D01*
X67302824Y-90809063D01*
X67302824Y-90947049D01*
X67302824Y-90947051D01*
X67302823Y-90947051D01*
X64991700Y-90947051D01*
X64991700Y-88205493D01*
X64991700Y-88205491D01*
X64960999Y-88090914D01*
X64906192Y-87995986D01*
X64901689Y-87988186D01*
X64901687Y-87988184D01*
X64901686Y-87988182D01*
X63293816Y-86380313D01*
X63293814Y-86380311D01*
X63234502Y-86346067D01*
X63191088Y-86321001D01*
X63178980Y-86317757D01*
X63166873Y-86314513D01*
X63166870Y-86314512D01*
X63128678Y-86304278D01*
X63076509Y-86290300D01*
X58385891Y-86290300D01*
X58317144Y-86308720D01*
X58271312Y-86321001D01*
X58271307Y-86321004D01*
X58227895Y-86346067D01*
X58227896Y-86346068D01*
X58168589Y-86380308D01*
X58168583Y-86380313D01*
X49063397Y-95485500D01*
X49002074Y-95518985D01*
X48975716Y-95521819D01*
X39212685Y-95521819D01*
X39145646Y-95502134D01*
X39125004Y-95485500D01*
X38797814Y-95158311D01*
X37940267Y-94300764D01*
X37906782Y-94239441D01*
X37903948Y-94213083D01*
X37903948Y-93041493D01*
X37903948Y-93041491D01*
X37873247Y-92926914D01*
X37815330Y-92826599D01*
X37813937Y-92824186D01*
X37799802Y-92810051D01*
X37795817Y-92805160D01*
X37784621Y-92778538D01*
X37770782Y-92753193D01*
X37769689Y-92743030D01*
X37768732Y-92740754D01*
X37769173Y-92738230D01*
X37767948Y-92726835D01*
X37767948Y-92645804D01*
X37741029Y-92510477D01*
X37741028Y-92510476D01*
X37741028Y-92510472D01*
X37726323Y-92474970D01*
X37688226Y-92382995D01*
X37688219Y-92382982D01*
X37611562Y-92268258D01*
X37611559Y-92268254D01*
X37513993Y-92170688D01*
X37513989Y-92170685D01*
X37399265Y-92094028D01*
X37399252Y-92094021D01*
X37271780Y-92041221D01*
X37271770Y-92041218D01*
X37136443Y-92014300D01*
X37136441Y-92014300D01*
X36998455Y-92014300D01*
X36998453Y-92014300D01*
X36863125Y-92041218D01*
X36863115Y-92041221D01*
X36735643Y-92094021D01*
X36735630Y-92094028D01*
X36620906Y-92170685D01*
X36620902Y-92170688D01*
X36523336Y-92268254D01*
X36523333Y-92268258D01*
X36446676Y-92382982D01*
X36446669Y-92382995D01*
X36393869Y-92510467D01*
X36393866Y-92510477D01*
X36366948Y-92645804D01*
X36366948Y-92645807D01*
X36366948Y-92783793D01*
X36366948Y-92783795D01*
X36366947Y-92783795D01*
X29939700Y-92783795D01*
X29939700Y-86053330D01*
X31720700Y-86053330D01*
X31720700Y-86260269D01*
X31761068Y-86463212D01*
X31761070Y-86463220D01*
X31840259Y-86654398D01*
X31876878Y-86709202D01*
X31955224Y-86826457D01*
X32101542Y-86972775D01*
X32101545Y-86972777D01*
X32265591Y-87082388D01*
X32310396Y-87135999D01*
X32320700Y-87185490D01*
X32320700Y-88217281D01*
X32301015Y-88284320D01*
X32284381Y-88304962D01*
X32247088Y-88342254D01*
X32247085Y-88342258D01*
X32170428Y-88456982D01*
X32170421Y-88456995D01*
X32117621Y-88584467D01*
X32117618Y-88584477D01*
X32090700Y-88719804D01*
X32090700Y-88719807D01*
X32090700Y-88857793D01*
X32090700Y-88857795D01*
X32090699Y-88857795D01*
X32117618Y-88993122D01*
X32117621Y-88993132D01*
X32170421Y-89120604D01*
X32170428Y-89120617D01*
X32247085Y-89235341D01*
X32247088Y-89235345D01*
X32344654Y-89332911D01*
X32344658Y-89332914D01*
X32459382Y-89409571D01*
X32459395Y-89409578D01*
X32586867Y-89462378D01*
X32586872Y-89462380D01*
X32586876Y-89462380D01*
X32586877Y-89462381D01*
X32722204Y-89489300D01*
X32722207Y-89489300D01*
X32860195Y-89489300D01*
X32951241Y-89471189D01*
X32995528Y-89462380D01*
X33123011Y-89409575D01*
X33237742Y-89332914D01*
X33295038Y-89275617D01*
X33356359Y-89242134D01*
X33382718Y-89239300D01*
X50106508Y-89239300D01*
X50106509Y-89239300D01*
X50196873Y-89215086D01*
X50221087Y-89208599D01*
X50323814Y-89149289D01*
X53829485Y-85643619D01*
X53890808Y-85610134D01*
X53917166Y-85607300D01*
X67798570Y-85607300D01*
X67865609Y-85626985D01*
X67911364Y-85679789D01*
X67921308Y-85748947D01*
X67892283Y-85812503D01*
X67846023Y-85845861D01*
X67773603Y-85875858D01*
X67601542Y-85990824D01*
X67455224Y-86137142D01*
X67340258Y-86309203D01*
X67261070Y-86500379D01*
X67261068Y-86500387D01*
X67220700Y-86703330D01*
X67220700Y-86910269D01*
X67261068Y-87113212D01*
X67261070Y-87113220D01*
X67340258Y-87304396D01*
X67455224Y-87476457D01*
X67601542Y-87622775D01*
X67601545Y-87622777D01*
X67773602Y-87737741D01*
X67964780Y-87816930D01*
X68164990Y-87856754D01*
X68167730Y-87857299D01*
X68167734Y-87857300D01*
X68167735Y-87857300D01*
X68374666Y-87857300D01*
X68374667Y-87857299D01*
X68431690Y-87845956D01*
X68568171Y-87818810D01*
X68637763Y-87825037D01*
X68680043Y-87852746D01*
X68909381Y-88082084D01*
X68942866Y-88143407D01*
X68945700Y-88169765D01*
X68945700Y-92466109D01*
X68960573Y-92521616D01*
X68976399Y-92580684D01*
X68976401Y-92580687D01*
X69035711Y-92683414D01*
X70069418Y-93717121D01*
X70069419Y-93717122D01*
X70069421Y-93717123D01*
X70128725Y-93751361D01*
X70128728Y-93751364D01*
X70147591Y-93762254D01*
X70172146Y-93776431D01*
X70286723Y-93807132D01*
X71198859Y-93807132D01*
X71265898Y-93826817D01*
X71286535Y-93843446D01*
X71343832Y-93900743D01*
X71343836Y-93900747D01*
X71458559Y-93977403D01*
X71458572Y-93977410D01*
X71586044Y-94030210D01*
X71586049Y-94030212D01*
X71586053Y-94030212D01*
X71586054Y-94030213D01*
X71721381Y-94057132D01*
X71721384Y-94057132D01*
X71859372Y-94057132D01*
X71950418Y-94039021D01*
X71994705Y-94030212D01*
X72122188Y-93977407D01*
X72236919Y-93900746D01*
X72334491Y-93803174D01*
X72411152Y-93688443D01*
X72463957Y-93560960D01*
X72490877Y-93425625D01*
X72490877Y-93287639D01*
X72490877Y-93287636D01*
X72463958Y-93152309D01*
X72463957Y-93152308D01*
X72463957Y-93152304D01*
X72443659Y-93103299D01*
X72411155Y-93024827D01*
X72411148Y-93024814D01*
X72334491Y-92910090D01*
X72334488Y-92910086D01*
X72236922Y-92812520D01*
X72236918Y-92812517D01*
X72122194Y-92735860D01*
X72122181Y-92735853D01*
X71994709Y-92683053D01*
X71994699Y-92683050D01*
X71859372Y-92656132D01*
X71859370Y-92656132D01*
X71721384Y-92656132D01*
X71721382Y-92656132D01*
X71586054Y-92683050D01*
X71586044Y-92683053D01*
X71458572Y-92735853D01*
X71458559Y-92735860D01*
X71343836Y-92812516D01*
X71321143Y-92835210D01*
X71286538Y-92869814D01*
X71225218Y-92903298D01*
X71198859Y-92906132D01*
X70583997Y-92906132D01*
X70516958Y-92886447D01*
X70496316Y-92869813D01*
X69883019Y-92256516D01*
X69849534Y-92195193D01*
X69846700Y-92168835D01*
X69846700Y-87872493D01*
X69846700Y-87872491D01*
X69818819Y-87768439D01*
X69816000Y-87757917D01*
X69815999Y-87757914D01*
X69815999Y-87757913D01*
X69756689Y-87655186D01*
X69317146Y-87215643D01*
X69283661Y-87154320D01*
X69283210Y-87103771D01*
X69321699Y-86910269D01*
X69321700Y-86910266D01*
X69321700Y-86703334D01*
X69321699Y-86703330D01*
X69281331Y-86500387D01*
X69281330Y-86500380D01*
X69202141Y-86309202D01*
X69087177Y-86137145D01*
X69087175Y-86137142D01*
X68940857Y-85990824D01*
X68854826Y-85933341D01*
X68768798Y-85875859D01*
X68696377Y-85845861D01*
X68641974Y-85802020D01*
X68619909Y-85735726D01*
X68637188Y-85668026D01*
X68688326Y-85620416D01*
X68743830Y-85607300D01*
X99227235Y-85607300D01*
X99294274Y-85626985D01*
X99314916Y-85643619D01*
X105375581Y-91704285D01*
X105375585Y-91704288D01*
X105375586Y-91704289D01*
X105391172Y-91713287D01*
X105391175Y-91713290D01*
X105391175Y-91713289D01*
X105478314Y-91763599D01*
X105592891Y-91794300D01*
X108485931Y-91794300D01*
X108552970Y-91813985D01*
X108596415Y-91862004D01*
X108639226Y-91946025D01*
X108644206Y-91955797D01*
X108750641Y-92102294D01*
X108750645Y-92102299D01*
X108878700Y-92230354D01*
X108878705Y-92230358D01*
X108930871Y-92268258D01*
X109025206Y-92336796D01*
X109115876Y-92382995D01*
X109186560Y-92419011D01*
X109186563Y-92419012D01*
X109272676Y-92446991D01*
X109358791Y-92474971D01*
X109383491Y-92478883D01*
X109392606Y-92480327D01*
X109455740Y-92510257D01*
X109492671Y-92569568D01*
X109491673Y-92639431D01*
X109453063Y-92697663D01*
X109392606Y-92725273D01*
X109358789Y-92730629D01*
X109186563Y-92786587D01*
X109186560Y-92786588D01*
X109025202Y-92868806D01*
X108878705Y-92975241D01*
X108878700Y-92975245D01*
X108750645Y-93103300D01*
X108750641Y-93103305D01*
X108644206Y-93249802D01*
X108561988Y-93411160D01*
X108561987Y-93411163D01*
X108506029Y-93583389D01*
X108477700Y-93762248D01*
X108477700Y-93943351D01*
X108506029Y-94122210D01*
X108561987Y-94294436D01*
X108561988Y-94294439D01*
X108644206Y-94455797D01*
X108750641Y-94602294D01*
X108750645Y-94602299D01*
X108878700Y-94730354D01*
X108878705Y-94730358D01*
X109006487Y-94823196D01*
X109025206Y-94836796D01*
X109129587Y-94889981D01*
X109186560Y-94919011D01*
X109186563Y-94919012D01*
X109272676Y-94946991D01*
X109358791Y-94974971D01*
X109441629Y-94988091D01*
X109537649Y-95003300D01*
X109537654Y-95003300D01*
X109968751Y-95003300D01*
X110055459Y-94989565D01*
X110147609Y-94974971D01*
X110319839Y-94919011D01*
X110481194Y-94836796D01*
X110627701Y-94730353D01*
X110755753Y-94602301D01*
X110862196Y-94455794D01*
X110944411Y-94294439D01*
X111000371Y-94122209D01*
X111023305Y-93977410D01*
X111028700Y-93943351D01*
X111028700Y-93762248D01*
X111012219Y-93658197D01*
X111000371Y-93583391D01*
X110950117Y-93428723D01*
X110944412Y-93411163D01*
X110944411Y-93411160D01*
X110905896Y-93335571D01*
X110862196Y-93249806D01*
X110848596Y-93231087D01*
X110755758Y-93103305D01*
X110755754Y-93103300D01*
X110627699Y-92975245D01*
X110627694Y-92975241D01*
X110481197Y-92868806D01*
X110481196Y-92868805D01*
X110481194Y-92868804D01*
X110429500Y-92842464D01*
X110319839Y-92786588D01*
X110319836Y-92786587D01*
X110147610Y-92730629D01*
X110113794Y-92725273D01*
X110050659Y-92695344D01*
X110013728Y-92636032D01*
X110013731Y-92635795D01*
X119780699Y-92635795D01*
X119807618Y-92771122D01*
X119807621Y-92771132D01*
X119860421Y-92898604D01*
X119860428Y-92898617D01*
X119937085Y-93013341D01*
X119937088Y-93013345D01*
X120034654Y-93110911D01*
X120034658Y-93110914D01*
X120149382Y-93187571D01*
X120149395Y-93187578D01*
X120276867Y-93240378D01*
X120276872Y-93240380D01*
X120276876Y-93240380D01*
X120276877Y-93240381D01*
X120412204Y-93267300D01*
X120412207Y-93267300D01*
X120550195Y-93267300D01*
X120641241Y-93249189D01*
X120685528Y-93240380D01*
X120813011Y-93187575D01*
X120927742Y-93110914D01*
X121025314Y-93013342D01*
X121101975Y-92898611D01*
X121107014Y-92886447D01*
X121137636Y-92812517D01*
X121154780Y-92771128D01*
X121169393Y-92697663D01*
X121181700Y-92635795D01*
X121181700Y-92497804D01*
X121154781Y-92362477D01*
X121154780Y-92362476D01*
X121154780Y-92362472D01*
X121144145Y-92336796D01*
X121101978Y-92234995D01*
X121101971Y-92234982D01*
X121025314Y-92120258D01*
X121025311Y-92120254D01*
X120927745Y-92022688D01*
X120927741Y-92022685D01*
X120813017Y-91946028D01*
X120813004Y-91946021D01*
X120685532Y-91893221D01*
X120685522Y-91893218D01*
X120550195Y-91866300D01*
X120550193Y-91866300D01*
X120412207Y-91866300D01*
X120412205Y-91866300D01*
X120276877Y-91893218D01*
X120276867Y-91893221D01*
X120149395Y-91946021D01*
X120149382Y-91946028D01*
X120034658Y-92022685D01*
X120034654Y-92022688D01*
X119937088Y-92120254D01*
X119937085Y-92120258D01*
X119860428Y-92234982D01*
X119860421Y-92234995D01*
X119807621Y-92362467D01*
X119807618Y-92362477D01*
X119780700Y-92497804D01*
X119780700Y-92497807D01*
X119780700Y-92635793D01*
X119780700Y-92635795D01*
X119780699Y-92635795D01*
X110013731Y-92635795D01*
X110014726Y-92566170D01*
X110053336Y-92507937D01*
X110113794Y-92480327D01*
X110121588Y-92479092D01*
X110147609Y-92474971D01*
X110319839Y-92419011D01*
X110390536Y-92382989D01*
X110393988Y-92381230D01*
X110396409Y-92379996D01*
X110481194Y-92336796D01*
X110627701Y-92230353D01*
X110755753Y-92102301D01*
X110862196Y-91955794D01*
X110944411Y-91794439D01*
X111000371Y-91622209D01*
X111024546Y-91469574D01*
X111028700Y-91443351D01*
X111028700Y-91262248D01*
X111012219Y-91158197D01*
X111000371Y-91083391D01*
X110944411Y-90911161D01*
X110944411Y-90911160D01*
X110915940Y-90855284D01*
X110862196Y-90749806D01*
X110806926Y-90673733D01*
X110755758Y-90603305D01*
X110755754Y-90603300D01*
X110627699Y-90475245D01*
X110627694Y-90475241D01*
X110481197Y-90368806D01*
X110481196Y-90368805D01*
X110481194Y-90368804D01*
X110412772Y-90333941D01*
X110319839Y-90286588D01*
X110319836Y-90286587D01*
X110192551Y-90245231D01*
X110134876Y-90205794D01*
X110107677Y-90141436D01*
X110119591Y-90072589D01*
X110166835Y-90021113D01*
X110230869Y-90003300D01*
X110521297Y-90003300D01*
X110521302Y-90003300D01*
X110609764Y-89992677D01*
X110750542Y-89937161D01*
X110871122Y-89845722D01*
X110962561Y-89725142D01*
X110997795Y-89635795D01*
X119780699Y-89635795D01*
X119807618Y-89771122D01*
X119807621Y-89771132D01*
X119860421Y-89898604D01*
X119860428Y-89898617D01*
X119937085Y-90013341D01*
X119937088Y-90013345D01*
X120034654Y-90110911D01*
X120034658Y-90110914D01*
X120149382Y-90187571D01*
X120149395Y-90187578D01*
X120253331Y-90230629D01*
X120276872Y-90240380D01*
X120276876Y-90240380D01*
X120276877Y-90240381D01*
X120412204Y-90267300D01*
X120412207Y-90267300D01*
X120550195Y-90267300D01*
X120641241Y-90249189D01*
X120685528Y-90240380D01*
X120813011Y-90187575D01*
X120927742Y-90110914D01*
X121025314Y-90013342D01*
X121101975Y-89898611D01*
X121154780Y-89771128D01*
X121181700Y-89635793D01*
X121181700Y-89497807D01*
X121181700Y-89497804D01*
X121154781Y-89362477D01*
X121154780Y-89362476D01*
X121154780Y-89362472D01*
X121142537Y-89332914D01*
X121101978Y-89234995D01*
X121101971Y-89234982D01*
X121025314Y-89120258D01*
X121025311Y-89120254D01*
X120927745Y-89022688D01*
X120927741Y-89022685D01*
X120813017Y-88946028D01*
X120813004Y-88946021D01*
X120685532Y-88893221D01*
X120685522Y-88893218D01*
X120550195Y-88866300D01*
X120550193Y-88866300D01*
X120412207Y-88866300D01*
X120412205Y-88866300D01*
X120276877Y-88893218D01*
X120276867Y-88893221D01*
X120149395Y-88946021D01*
X120149382Y-88946028D01*
X120034658Y-89022685D01*
X120034654Y-89022688D01*
X119937088Y-89120254D01*
X119937085Y-89120258D01*
X119860428Y-89234982D01*
X119860421Y-89234995D01*
X119807621Y-89362467D01*
X119807618Y-89362477D01*
X119780700Y-89497804D01*
X119780700Y-89497807D01*
X119780700Y-89635793D01*
X119780700Y-89635795D01*
X119780699Y-89635795D01*
X110997795Y-89635795D01*
X111018077Y-89584364D01*
X111028700Y-89495902D01*
X111028700Y-88209698D01*
X111018077Y-88121236D01*
X110962561Y-87980458D01*
X110962560Y-87980457D01*
X110962560Y-87980456D01*
X110871122Y-87859877D01*
X110750543Y-87768439D01*
X110609761Y-87712922D01*
X110564126Y-87707442D01*
X110521302Y-87702300D01*
X108985098Y-87702300D01*
X108946053Y-87706988D01*
X108896638Y-87712922D01*
X108755856Y-87768439D01*
X108635277Y-87859877D01*
X108543839Y-87980456D01*
X108488322Y-88121238D01*
X108483090Y-88164810D01*
X108477700Y-88209698D01*
X108477700Y-89495902D01*
X108477929Y-89497807D01*
X108488322Y-89584361D01*
X108543839Y-89725143D01*
X108635277Y-89845722D01*
X108755856Y-89937160D01*
X108755857Y-89937160D01*
X108755858Y-89937161D01*
X108896636Y-89992677D01*
X108985098Y-90003300D01*
X108985103Y-90003300D01*
X109275531Y-90003300D01*
X109342570Y-90022985D01*
X109388325Y-90075789D01*
X109398269Y-90144947D01*
X109369244Y-90208503D01*
X109313849Y-90245231D01*
X109186563Y-90286587D01*
X109186560Y-90286588D01*
X109025202Y-90368806D01*
X108878705Y-90475241D01*
X108878700Y-90475245D01*
X108750645Y-90603300D01*
X108750641Y-90603305D01*
X108644206Y-90749801D01*
X108629699Y-90778273D01*
X108605586Y-90825596D01*
X108557614Y-90876391D01*
X108495103Y-90893300D01*
X105890165Y-90893300D01*
X105823126Y-90873615D01*
X105802484Y-90856981D01*
X99741816Y-84796313D01*
X99741814Y-84796311D01*
X99690450Y-84766656D01*
X99639088Y-84737001D01*
X99626980Y-84733757D01*
X99614873Y-84730513D01*
X99614870Y-84730512D01*
X99576678Y-84720278D01*
X99524509Y-84706300D01*
X53619891Y-84706300D01*
X53529525Y-84730513D01*
X53529524Y-84730512D01*
X53505315Y-84737000D01*
X53505306Y-84737004D01*
X53402592Y-84796305D01*
X53402584Y-84796311D01*
X49896916Y-88301981D01*
X49835593Y-88335466D01*
X49809235Y-88338300D01*
X47177414Y-88338300D01*
X47110375Y-88318615D01*
X47064620Y-88265811D01*
X47054676Y-88196653D01*
X47083701Y-88133097D01*
X47108524Y-88111198D01*
X47203816Y-88047525D01*
X47240855Y-88022777D01*
X47387177Y-87876455D01*
X47502141Y-87704398D01*
X47581330Y-87513220D01*
X47621700Y-87310265D01*
X47621700Y-87103335D01*
X47581330Y-86900380D01*
X47502141Y-86709202D01*
X47387177Y-86537145D01*
X47387175Y-86537142D01*
X47240857Y-86390824D01*
X47118701Y-86309203D01*
X47068798Y-86275859D01*
X47031153Y-86260266D01*
X46877620Y-86196670D01*
X46877612Y-86196668D01*
X46674669Y-86156300D01*
X46674665Y-86156300D01*
X46467735Y-86156300D01*
X46467730Y-86156300D01*
X46264787Y-86196668D01*
X46264779Y-86196670D01*
X46073603Y-86275858D01*
X45901542Y-86390824D01*
X45755224Y-86537142D01*
X45640258Y-86709203D01*
X45561070Y-86900379D01*
X45561068Y-86900387D01*
X45520700Y-87103330D01*
X45520700Y-87310269D01*
X45561068Y-87513212D01*
X45561070Y-87513220D01*
X45640258Y-87704396D01*
X45755224Y-87876457D01*
X45901541Y-88022774D01*
X45901549Y-88022780D01*
X46033876Y-88111198D01*
X46078682Y-88164810D01*
X46087389Y-88234135D01*
X46057235Y-88297162D01*
X45997792Y-88333882D01*
X45964986Y-88338300D01*
X33382718Y-88338300D01*
X33353273Y-88329654D01*
X33323290Y-88323131D01*
X33318276Y-88319377D01*
X33315679Y-88318615D01*
X33295036Y-88301980D01*
X33258018Y-88264961D01*
X33224533Y-88203637D01*
X33221700Y-88177281D01*
X33221700Y-87185490D01*
X33241385Y-87118451D01*
X33276808Y-87082388D01*
X33440855Y-86972777D01*
X33587177Y-86826455D01*
X33702141Y-86654398D01*
X33781330Y-86463220D01*
X33821700Y-86260265D01*
X33821700Y-86053335D01*
X33781330Y-85850380D01*
X33702141Y-85659202D01*
X33587177Y-85487145D01*
X33587175Y-85487142D01*
X33440857Y-85340824D01*
X33354826Y-85283341D01*
X33268798Y-85225859D01*
X33242372Y-85214913D01*
X33077620Y-85146670D01*
X33077612Y-85146668D01*
X32874669Y-85106300D01*
X32874665Y-85106300D01*
X32667735Y-85106300D01*
X32667730Y-85106300D01*
X32464787Y-85146668D01*
X32464779Y-85146670D01*
X32273603Y-85225858D01*
X32101542Y-85340824D01*
X31955224Y-85487142D01*
X31840258Y-85659203D01*
X31761070Y-85850379D01*
X31761068Y-85850387D01*
X31720700Y-86053330D01*
X29939700Y-86053330D01*
X29939700Y-85626765D01*
X29959385Y-85559726D01*
X29976019Y-85539084D01*
X31272384Y-84242719D01*
X31333707Y-84209234D01*
X31360065Y-84206400D01*
X123006700Y-84206400D01*
X123073739Y-84226085D01*
X123119494Y-84278889D01*
X123130700Y-84330400D01*
X123130700Y-106392300D01*
X123111015Y-106459339D01*
X123058211Y-106505094D01*
X123006700Y-106516300D01*
X24255700Y-106516300D01*
X24188661Y-106496615D01*
X24142906Y-106443811D01*
X24131700Y-106392300D01*
X24131700Y-104151334D01*
X24880700Y-104151334D01*
X24880700Y-104387529D01*
X24917646Y-104620800D01*
X24990633Y-104845428D01*
X25097857Y-105055865D01*
X25236683Y-105246942D01*
X25403690Y-105413949D01*
X25594767Y-105552775D01*
X25694191Y-105603434D01*
X25805203Y-105659998D01*
X25805205Y-105659998D01*
X25805208Y-105660000D01*
X25925612Y-105699121D01*
X26029831Y-105732985D01*
X26263103Y-105769932D01*
X26263108Y-105769932D01*
X26499297Y-105769932D01*
X26732568Y-105732985D01*
X26957192Y-105660000D01*
X27167633Y-105552775D01*
X27358710Y-105413949D01*
X27525717Y-105246942D01*
X27664543Y-105055865D01*
X27771768Y-104845424D01*
X27844753Y-104620800D01*
X27852243Y-104573508D01*
X27881700Y-104387529D01*
X27881700Y-104151334D01*
X27844753Y-103918063D01*
X27787701Y-103742477D01*
X27771768Y-103693440D01*
X27771766Y-103693437D01*
X27771766Y-103693435D01*
X27686963Y-103527001D01*
X27664543Y-103482999D01*
X27525717Y-103291922D01*
X27358710Y-103124915D01*
X27167633Y-102986089D01*
X27102453Y-102952878D01*
X26957196Y-102878865D01*
X26732568Y-102805878D01*
X26499297Y-102768932D01*
X26499292Y-102768932D01*
X26263108Y-102768932D01*
X26263103Y-102768932D01*
X26029831Y-102805878D01*
X25805203Y-102878865D01*
X25594766Y-102986089D01*
X25517957Y-103041895D01*
X25403690Y-103124915D01*
X25403688Y-103124917D01*
X25403687Y-103124917D01*
X25236685Y-103291919D01*
X25236685Y-103291920D01*
X25236683Y-103291922D01*
X25177062Y-103373982D01*
X25097857Y-103482998D01*
X24990633Y-103693435D01*
X24917646Y-103918063D01*
X24880700Y-104151334D01*
X24131700Y-104151334D01*
X24131700Y-84330400D01*
X24151385Y-84263361D01*
X24204189Y-84217606D01*
X24255700Y-84206400D01*
X29735135Y-84206400D01*
X29802174Y-84226085D01*
G37*
%TD.AperFunction*%
%TD*%
M02*
